<mxfile host="app.diagrams.net" modified="2023-12-22T09:31:31.415Z" agent="Mozilla/5.0 (Windows NT 10.0; Win64; x64; rv:120.0) Gecko/20100101 Firefox/120.0" etag="bJhIRHdJr_yhM8L7cAx3" version="22.1.11" type="github" pages="6">
  <diagram id="C5RBs43oDa-KdzZeNtuy" name="CardProDiagram">
    <mxGraphModel dx="2117" dy="1727" grid="1" gridSize="10" guides="1" tooltips="1" connect="1" arrows="1" fold="1" page="1" pageScale="1" pageWidth="827" pageHeight="1169" math="0" shadow="0">
      <root>
        <mxCell id="WIyWlLk6GJQsqaUBKTNV-0" />
        <mxCell id="WIyWlLk6GJQsqaUBKTNV-1" parent="WIyWlLk6GJQsqaUBKTNV-0" />
        <mxCell id="1EY1--HiL1jkh1mz086z-0" value="&lt;div&gt;SmartCPS Core&lt;/div&gt;&lt;div&gt;(Web app)&lt;br&gt;&lt;/div&gt;" style="ellipse;whiteSpace=wrap;html=1;fillColor=#66FFFF;" vertex="1" parent="WIyWlLk6GJQsqaUBKTNV-1">
          <mxGeometry x="198" y="-105" width="120" height="80" as="geometry" />
        </mxCell>
        <mxCell id="1EY1--HiL1jkh1mz086z-1" value="&lt;div&gt;SmartCPS KMS Server&lt;/div&gt;&lt;div&gt;(Web service)&lt;br&gt;&lt;/div&gt;" style="ellipse;whiteSpace=wrap;html=1;fillColor=#66FFFF;" vertex="1" parent="WIyWlLk6GJQsqaUBKTNV-1">
          <mxGeometry x="198" y="-5" width="120" height="80" as="geometry" />
        </mxCell>
        <mxCell id="1EY1--HiL1jkh1mz086z-2" value="&lt;div&gt;HSM 2&lt;/div&gt;&lt;div&gt;(LMK = AC Key)&lt;br&gt;&lt;/div&gt;" style="image;aspect=fixed;html=1;points=[];align=center;fontSize=12;image=img/lib/azure2/other/Dedicated_HSM.svg;" vertex="1" parent="WIyWlLk6GJQsqaUBKTNV-1">
          <mxGeometry x="-100" y="-53" width="68" height="62" as="geometry" />
        </mxCell>
        <mxCell id="1EY1--HiL1jkh1mz086z-3" value="" style="sketch=0;outlineConnect=0;fontColor=#232F3E;gradientColor=none;fillColor=#C925D1;strokeColor=none;dashed=0;verticalLabelPosition=bottom;verticalAlign=top;align=center;html=1;fontSize=12;fontStyle=0;aspect=fixed;pointerEvents=1;shape=mxgraph.aws4.rds_sql_server_instance;" vertex="1" parent="WIyWlLk6GJQsqaUBKTNV-1">
          <mxGeometry x="29" y="-230" width="78" height="78" as="geometry" />
        </mxCell>
        <mxCell id="1EY1--HiL1jkh1mz086z-4" value="Web Server" style="sketch=0;pointerEvents=1;shadow=0;dashed=0;html=1;strokeColor=none;fillColor=#505050;labelPosition=center;verticalLabelPosition=bottom;verticalAlign=top;outlineConnect=0;align=center;shape=mxgraph.office.servers.web_server_green;" vertex="1" parent="WIyWlLk6GJQsqaUBKTNV-1">
          <mxGeometry x="38" y="-77" width="90" height="110" as="geometry" />
        </mxCell>
        <mxCell id="1EY1--HiL1jkh1mz086z-5" value="" style="endArrow=none;dashed=1;html=1;dashPattern=1 3;strokeWidth=2;rounded=0;entryX=-0.033;entryY=0.363;entryDx=0;entryDy=0;entryPerimeter=0;" edge="1" parent="WIyWlLk6GJQsqaUBKTNV-1" target="1EY1--HiL1jkh1mz086z-1">
          <mxGeometry width="50" height="50" relative="1" as="geometry">
            <mxPoint x="138" y="5" as="sourcePoint" />
            <mxPoint x="408" y="155" as="targetPoint" />
          </mxGeometry>
        </mxCell>
        <mxCell id="1EY1--HiL1jkh1mz086z-6" value="" style="endArrow=none;dashed=1;html=1;dashPattern=1 3;strokeWidth=2;rounded=0;entryX=0;entryY=0.5;entryDx=0;entryDy=0;" edge="1" parent="WIyWlLk6GJQsqaUBKTNV-1" source="1EY1--HiL1jkh1mz086z-4" target="1EY1--HiL1jkh1mz086z-0">
          <mxGeometry width="50" height="50" relative="1" as="geometry">
            <mxPoint x="108" y="-53" as="sourcePoint" />
            <mxPoint x="198" y="-43" as="targetPoint" />
          </mxGeometry>
        </mxCell>
        <mxCell id="1EY1--HiL1jkh1mz086z-7" value="" style="endArrow=none;dashed=1;html=1;dashPattern=1 3;strokeWidth=2;rounded=0;exitX=1.059;exitY=0.79;exitDx=0;exitDy=0;exitPerimeter=0;" edge="1" parent="WIyWlLk6GJQsqaUBKTNV-1" source="1EY1--HiL1jkh1mz086z-2" target="1EY1--HiL1jkh1mz086z-4">
          <mxGeometry width="50" height="50" relative="1" as="geometry">
            <mxPoint x="358" y="205" as="sourcePoint" />
            <mxPoint x="408" y="155" as="targetPoint" />
          </mxGeometry>
        </mxCell>
        <mxCell id="1EY1--HiL1jkh1mz086z-8" value="" style="endArrow=none;dashed=1;html=1;dashPattern=1 3;strokeWidth=2;rounded=0;" edge="1" parent="WIyWlLk6GJQsqaUBKTNV-1" source="1EY1--HiL1jkh1mz086z-3">
          <mxGeometry width="50" height="50" relative="1" as="geometry">
            <mxPoint x="-18" y="31" as="sourcePoint" />
            <mxPoint x="68" y="-80" as="targetPoint" />
          </mxGeometry>
        </mxCell>
        <mxCell id="1EY1--HiL1jkh1mz086z-9" value="&lt;font style=&quot;font-size: 24px;&quot;&gt;Core Server&lt;/font&gt;" style="text;strokeColor=#FFE6CC;align=center;fillColor=#57FF24;html=1;verticalAlign=middle;whiteSpace=wrap;rounded=0;shadow=1;" vertex="1" parent="WIyWlLk6GJQsqaUBKTNV-1">
          <mxGeometry x="-4" y="-310" width="174" height="40" as="geometry" />
        </mxCell>
        <mxCell id="4Xzrb0yfbBRYlqgE_jvr-0" value="&lt;div&gt;SmartCPS CardPro&lt;/div&gt;&lt;div&gt;(Destop App)&lt;br&gt;&lt;/div&gt;" style="ellipse;whiteSpace=wrap;html=1;fillColor=#99FF99;" vertex="1" parent="WIyWlLk6GJQsqaUBKTNV-1">
          <mxGeometry x="510" y="140" width="120" height="80" as="geometry" />
        </mxCell>
        <mxCell id="4Xzrb0yfbBRYlqgE_jvr-1" value="" style="shape=image;verticalLabelPosition=bottom;labelBackgroundColor=default;verticalAlign=top;aspect=fixed;imageAspect=0;image=data:image/webp,UklGRoA7AABXRUJQVlA4IHQ7AABwbQGdASogA1gCPoFAmUgioaMhovIJYGYQCelu9DH5Rsf/P0rR/sNgCX++X/P/pZfX1TjONVeu9klnZJ97pPM7aPrL5by+Pje+5/tPWz/iPSe9OPpz/t/oF8330df8XpovWj/mPqwed16z399yPX5V3Nf5/wP9B/1Tbcwz/H+C/Z0/vPBH48/73qO+3f9t68UOLrh9t45f23z3vvvQP+l/1/Sl/5PK0/F/9j1Tv9X6yH+7333sgiiRExfvnY/fOx++YNGMuzzBqfIwyoXW0ZD2q1hCRExfvnY/fOx++dj987H75nJTpIzaQDL9ksn6RZzog2zY/fOx++dj987H752P3zsfvnYohKZ5sVSvkZ8VH1NmcL+5aTF++dj987H752P3zsfvnY/VvzEuWVFmMhJvXVmVeeviQEhy0iJi/fOx++dj987H752P1XWODZmUfhi1TTN2v1rD+A6rI6DtVFrsrv3C9PXUgQozhoM+DQZ8Ggz4Mrxf30KaMQ4Vbzs69OUouFHW5uajSOjxCif/V4X13n/gGcUbGgz4NBnwaDPg0AUn8a7RDU5BhzeFdpOgFRFCA1wRVCpUR6A3bLeNjU6DC9QNQ7H752P3zsfvl2NW7PrWclWylpSxMLt1+NWhpDbPQOsZE+MTYLU7Wj5wn8v3zsfvnY/eilttXizmi/OzMWXlveSQw3hJRaABt0G6HLKYwFwqbXOAOvOgz4NBnwZ/M1MffHUxtTprewD61aTe/NcBpjow3rGm1Q3CLzxQ2HP+ifIfWYlt8CB30Pb0WLi68NE+cdS4Tm2FhKsYp1sspqfJr9W/Z9Vth6ZZCSIpZ9hki9qtYQkRMXuAzTbc4xSinmoI6c/OheogDFqVS0cXtVnif7AtEx1IKtv4TY2t/ZWVCW3MTQ7SqjXl3SAy2mbR7BPYyGhX6doiInjaMJIG9sh//NoDmsYvwI4/EzCFVB9KT/1wBoofNUH2UW0mC9V2YkpfeuocfRt6cqxTRDtsDx1xTgXN1tVuSHtkhHEnFafR2P3zsfvnY9vqong5lbO1oV7DGnH/hJABlhTknVqvpcH5H//k3JzxrkrlDYefuqRBiTlk69fL/PFfe65ZV3v5Aq+BOA5ypYnH5NtCLoJp6ao3ppiz7LamSeYsM0VWpA8bCrp/AvvBiOKIaN74vj6/i7Lii98joG7cJU2P8Oj+KxEMqgJGGgz4NBnthrRQ78lcWxxSV/FpZgjlssUtR3hvPLbp3kpFLhVQttQQzaKaQCKdoA5i6qZDrZEJeDwPYcYloJ7xz4Y9SzensovD3OWGl2GrSoTMNdPb0TGz6vYJhiF9JOGJXVjVAlSQNAvZFkDAE2fuiyExq2CFNjkYMD1+hh4eCMbcEqCFSOAFBKqQ3kPTOvjBaDPg0GciCfD25JVFH6NGbXuH9R9di54QwJGfdL3M6PYEPQa60Q6YpTJws2rAHft9HOi+v/wXPukHKYG2+tR0mfyiTaMVGIhVSkpuleCcH5ttFOgDLmJUOb3MLUzQWir3k2dwgbIvHeLziBVvc2RqoQy7dxmaPiptuuDjpwsWKXGKqg4jIhz8OMuaN19JByQn+KpVvuc/5JcNXt32c/UXuGfBoM+DOWzg+6BnECPVqfiTaO+ofTM7D5ezZZ0/LNI2XqDVgTVWp9ILHnxgWCMu0WmSuZo+izMQpXn041HUPFdKWDXKCDtBCMr5GPANuGul9FBcagnUvo3H2thFKYNqAIvwWrmUt0sess5GP88i3bkOBgDcqDbg2Xas3aTo48VpX+9O5yrfCamdpj12BPxjSAdX3S9wz4NBnwZq7aiTSpIr7craimhpGKHulZnkCv/YUMg7nt3BgOAGWGw1VO1tV1p8Hry4QeGH+3Aj36BZ4bSECW4LK9MxEK2Idu7OOoA5FIFpopvV5y92wPtwGKQfYyCvlSMcLGuQbOGC86pQq0L7Qg/l9pJmzPZEuWGYZ3z6j+5nLkZq7pEdA2hW7bZwVYT5dpkIJ0nQptt2+r6wYj3OxLRqIz4NBnwaDEoB5D71u9AJEQYzU9apkCLIWE/RPDh9AWbwB6AyDTa2F0LVx6v9LRRCYmMoYB+W23H2xUxm2wmNk3jYbfFp+6p8FwPPReVUViAgyO3Sa8VArPN4T4s5ti8iK+Lhv7ocK4hZOV1sdtHtJJsmO9dDPkFcKbbHv8K0aF9QrsqZOgYynEOFhmf/HshIiYv3zshxlhZ9daZXtT8JRNv1On3C0TpQAuBs2yuZWFz1gtQK7ABzChEHPMYLa3RDSym6khCsBq/T0+qR63W8uBWQd6HOcRk8yKJF+cck+Cjwq9S9687cj+99WSkpvZD5yK9nVwGs8FyfeFM9R+7H752P3rk2reZeAzcxXaSi4gk+t22LOgaapj/1xrynGB6qR2r/oPo7wdaco9MhMJHJn3PIYsjztnAlG1BQ2PtXmlyWloiQ+3jnTW9ybqRLuxeaEm9a7t5V/Ue6vFsTs1TDZ5URIkkMYiiyzPg0GfBoMSgHjeX3MjYYmT3zAk5ocz5viWznxVotE8OWe4ZlVqkRCHBUjugRgr+VNGkeFsIUkC3tAKJ0uosQBqCdsb2xNet9Wq5zav2XDN65YV61hCRExftf+mP/GPvvTBPeG07NIsCc3JWuAGLY0JbRru2T6Vhyq3Y1AMb/sT5x6TPe4AdEax+hJin6dtuWoVkkT7S7XBMW7H752P3zpFJCYez2yeKwcBbidoKxxXwS4iCPrcxYVAqlFfRehLCsfMPRf23DmAy79kMkV/8jdte9nt6a6r6PNfHHYidj987H7009lwLxD1ZGOp8k7CI6VPiDhWT9eKcU8rv+hJa4ZRL+BuY5rna8fS8eCGr18dm7qcM85ftcFIrMOhL+seW7T3jecXqwyYZHD4NBnwZUI/lfczcxm2GZvhseHXSnaVIpZ5MdgF4bJSA/qq8y2z4xuyQbjiAMh6RgX6oLuTSz6AkbOgng1+PKaklHM/cOISImL986bQEf0l3Q7+nut5J5zWde23eCMNTqMtsnK9+5520Q1jJDqWHvfJ2jQ+newvnRGkRMX752Jrn6BvmSFPTWoVcwPlUS7b9x4UAI5T2DSvM2fWOa7Rdbw0u5RukFOBcDI3eQfFe5CN5QRBy4whTcsFoM+DQZ7goSTEIh9PKrky7V8+WTXVV5J15KJgXQAC7ue24StEEeXi7nXRppeIor///AkftgtYUQOVXzoM+DQZzmuYv5bQwaDt03Dq5QWCOHmM7fBYgPwRudqGHyjG5H30PtsS2SparI6WW6PMViti/fOx+9FuYoItcDNqAchQF/NRW91tTko49aEC1rOIxO5cE3xXWrjduOyr3Y+2wUgrNL21MpbaKf3qARRdzbuw4YnETF++dj99yUDyRkNpXqsT5EL88gJH8Pchjd4O2kHKD+ZCeZXM/C2pGToj7b3Wi/DjGtQUmfZp7nYIszvFHp3cFjh8Ggz4NBnweJznrgC6uQZo4FZT8Go4dhrMdzw5wjKIY4nfunA84Xrh8lugGYKvda0BRsoeEF50GfBoM+DQZ8GTE3O/IQ9OQ9POLaO6ffMO0nTAhQoy79cl9efUY/qnsVw0GfBoM+DQZ8Ggz4G1ak53MfCLK8uwMucquruIyUga6Ib3cEldiqCdlXfK0VbF++dj987H752P3zsf0+zbfLO7xQjY1pyW4HzvVGq0hBR6EyWXa/jvnY/fOx++dj987H752P3z76tXQNFn/M4SV9lGsCJa9/wcLJYtv4RCRExfvnY/fOx++dj987H752IkkAGOs4iZ7FJHfm6+4+V232QzupuAv3zsfvnY/fOx++dj987H752PYFfkL82Te/Fe0JW/Xeuow2ImL987H752P3zsfvnY/fOx++dj+JNbdNEL/ZVHnlUiJi/fOx++dj98tAAP7/O5AAAEW/b2oGVA32MNj5NjcK5nbNniIafsfb8wSgwb5QxmXF2K0X4SjlMh6Kq3r7y2ETkYAAAAAAjmTe0Qvu8O6YukRGL1ecyor7A3KfmyvxRMFm7e2CS/SP5ziYUVf2dZYZF/9HAAAAAAtO4OvtCK/7iSTjIDPoboF73HFwH6o4i1o6loDD7tmHXYTJO33WVivSmg8O9AAAAAAQ7QjNPehwnOEkwELSC57O94NbqEFUSk+XxZGZcXMviu72pH+jlXqLTTS/LIJWtKbFTiOXlBEp2AAAAAXO99ftSut6CuYuPDf2T1itDcp+kXbPNJORo6VywYjrHMdxpkbwNFSlQGqToV9AKtDwbgsQsRM4k7HriSrA09tO9M0ncUpwLAAAAinpfkw8hhKM5IwYza8wI0I3aEt7SBBGUBoEsM5sRHsubLo44Xs5MRCHU5YAOOwG9pE0/odzPbgALdHZOM5kxig1cXvkbY4kvoCG60wB1Aj6Kfp7o8VsQJ//8ffRr88yuJxmhxeznIGbnb/Opjaxinyz53+EcBSV447q+AL0PLfsAAACKa3PkQGb9Au+1G/7YBwG2KxUvoDtJAiti5VfIEeDPwL4n79l/GT/1HXQaBg/oUeYv9F6MV0OQYUq8Yl0qCZxwsjhCu45tFB2Kr8PwnKdJoD8uiJ1PdXHTlz19ttLKcF3ZF5Zbiihc6s/tMgAA4wijTBrrO4kKw2Prw6Mu0EuSQpyCqJ7+zg0Datzp/TKOlR88LcfKjHG3wwB0XjVQxTR9mqjMaT1KD/4BqJ9ybnNId3aFIrHPbaU1Xw7/jZeHYgTzJmYj8DKMubZQHG4lSDfu6Uv92/4oc602Cw0uGSgzMEAgAAAZVmS2aUNDBhMMHGOJZH4l1IblOtBwLG66/WWXD73xaiFdWU/Nx5w7gfojDhWJu2k4AU404xk/xoUIso6CgK0PaYABel/b1btuKol8mMRAHEoNANovSIEtKAADalkufBqgUrRei/xJLXXPha7QwHcb2kMn25rlUjd8NUcY+0lC6Xjt3HBZU0vLGRi9q5QY+pDs244YMuhzEq7vj6k6yl0CfOecpwm6avs2+XYF7VK8B6jrPY2pmwchPxxZ+qEoef56Qcat3ncpaWlPBNoUa24sJ/rx/sXWHuvi39G9TgjdUFJjnRZbFbQimoG3FdDEEgrSOClWTr7xios8KzVx5tOrdHsbCUv8SvErrW1rUF2r4dEPszVpoHkRjm3d0ADAjMbpt2dbR1tKKuMCTFKlHZoFjGB/ugYcnXaVv2JWCP2mUJYuSvJbnMQ3UTpwW/gAaxTXpQfE+aaZf9JoP2Q7yoTzei1cA9wmc0gde37waf2hq4W9IpvAfN2Y7/zp8FjXgIRn6nJ1m13j75/FRuoPWkf0bN+GEz5P/2WBJShrDVSvDTafkf2CAQLwUnJfUGUtk2XY4zVzSk8ZJZaDZd6bonv6iBpfb6f3GDTdLfSmMfRbsrBIg9T/QGUs9tN/EOUjM9Z1tbdLJtfcABUCYDvuxbQVHToS4fYHDX/oacxenU6UgnD6L2tZS8712w4HluxEf4+Vd+nmzd5OdrWhHzRYOJ0E03pPLquFp8E6iWEXj0C9gQTByyMWaD1IbFnb7CkzV/ChMK+CKtmZHYrv2vjw+3pIZegSdd9RMBrjAXA8mf+2S/RXQwHPazFQ3JDqdKX8ge75eXDZs3qVDyZHzqdqCXaTLNJVMzZCsFmn2okpaoxlFB55eO6boxEKGxWAoWN3GFDmPVJMo0g5X7bI2vTW+gYkRUvPmGP4GxMVd8PjG9l0q0LB664JTFuoT6/tt5DseogN2Sqh3gOIPUNTPo9Krk5ufGrGvHi5vbTfxmHGjk/rK7CirzRQ9V75sMukZrMkjS6M0bmpjikYfR4l2SbR4d2W09cegrF0BmcIkHRq2iHK04a/Zl6gIKF3F+lczAdIBrLy0BixijcXmHv2yWF2HMyzDU4ZR4Hz9Y/9hMmECh9b1PuIYBsQ/2/vKXodT7phXYJUmoZQbXU42CBGU8FvrYZz9xx2LAe7ggesMl05HwH/r1PATFZbwl89ob9kwa+BqWOAUmrWJOQY8+vRE1xidtg3y/wApS1lPaZbr+zwflE88uAiyJBtt2/ZDCrLh157ORPIgUnpVhrGhdYoxSPVL8MoKtWg6P27lhPb1ChtACTmdIkTu75giW5uQsXpkA++n7ZVZ7YNos5/S/uU/qyD/B9QGO+FFEKHEnzbnrvbCVYPash8Y0qkjkmliW9kqyMBctQ/6rDpQKp4uEPgWs33N3IBOQXNbEQw2/jhucE6mE02e2FTbZys8mkIuM0sgcH0S9yc6zRa9VWWXO5SlDs0Kopmndw/gmPG4FXyNkVVbspCVHXophqj0QcJ0JGdT9EiRihW9I0D6rcyaiNzukPO/cYM6jFqkGtWJrzhwbMvcrzTn8TwZpBZHxSsnBZLcl/QxDeaB4zvI2NnquI9j8NENPOApwhmeQ+F4ikLNqmx3wQ7IGiekADH2Jfienmz//h/yErCvvt8Uo2GICU0mwF3J+fktwbcPNXso69fn0P4MLt+FUitiy8KRWudXoZt0PzppTFuo0n8Or1x/EdNf2BPS5TYrwpETbsMBveB/hpGn4s9NOkEGaqA9ZYGFKC+tIqqFlMPrr6u3YVGiQK17/E9fAsHg3iOXICay3Gp87oeGVxG0fZdATnqjM9cBK1gOlAXQWrwwhuoweq6XRQExMO7gKnbLGpdorusxDY9EgkUAJnsK9JZDeYolkmW1g2/en9agLRfsrRay4TF/sezCmyFpQBjRoCOgPCOqfDEiyfQ0HTG1bTOFEpWxCOD7apKbF3144TKJu4VSvA/qnA7sr4HSrRwpks6jDl41kv8gEb0dLQ4nzMDSplbdhZreUTT3qTofV8syQBRB6C0mUgaZ9Oo9bcGO1CBHcb7o3a1MxmIBUgRp5jDhlBsML2Sm2emSsS9O4LjeSTL8Eq4gSZctwAy6pQBEixF20r9FZXtpo7zZ9Sf9jqKnypYqLG1GkzsySM2vJf6cD4Um2ixjW639z+Po/vhY2E3ayf0bHM76hlr9Q4by3/rQSIrrSiLtTgM/BRlI7AxzVBIKp4kJU+fv73prbVkhiMTMnBnlHRz3uNXMSpYSkSJTBJ2mPXOwixJV+G+kg1RR0TAgdvOQDFydY5rpcaJZs1dvZ4a8hrAzCxUO0a711gzlcHFPoEVAImTUu8B6O+NdrH9AGaLwXGpCxg5O1YNCCr8kusBPr4Jgh/WOARjZ+12YcgodATm15vxUAoUDKV8lZUOhCR3nkYODk4SoAUPEAOLguJ37PihlD9FgV3EdvziE2lLhcEvXiP++cUSDd/To1uTpC426m5FAs8NIzcI1KgDMQzW0L35d1cNTmo/IgI6VWWrdNszQZjTcVcP+3KRongq9BxtYOTL8dAF4AFZWrE/2R55X0TXXcF6x9F8vTnJPIX2kfCmvQRgVr0ihDMODnCEelm97S6bRL2QKa0iOYIZumCig5M8c4eStytFXnff6o94Jy5svZkSdVqmHZ+UCxrmdlgXZ94zTBHwpbotslcXwEmcOYtFBcgcpI68swvAIH9Ymx5L3nl7qghcjLOtgBTwEZNa9gfVKxRj60IVzosV7IAvQkDdDOTSxyMgKKJA6tAeLqHFpulyfqoM2a+fhtYuwP2gg7InKspxIuy9t0wbiPblNVz8+fgWvdm8xQ7uECAlmF/FrarE3GEKRVfsEtU6YvsTMv8K209Wb/wf8Fe11U6/eX54Lu7y8Ly4cz8aibpQ/byE6mKVVQEjRms1Ot+uXgExOtt/k9dHhAWIsLJwGAROmi6oAz1tX3LPfxnU7fT4CU5Tjaw6Kw5/LvkZnQV6zmou02XsECFrjmq9NvfYKEwQQEzSgaPyTK2ijeJp1NR0WhGFPmjr/K9Gq4qlAYpf2SDGLT0g1ngVHxoFB59lKRp0JcxdcaHCBVL/2MV+Y/uIl9FsbZMsApPhf/SdbaHyJR2HscsQGv3xl3W7Uy7sHIsx0feebXC4UARhKKE8v+6jJ5Q5M80JX5j28j/xMqoJdD7ksEPk/XxRnW9NoL+/VlOy7IKQG0xJIdaCIhU+di+Xkc9pvX9XU6eDjU0d2PRHeieLApSydHvq4YrIJxEa1k8DTg3pLDCveL3IyMfRXuntOB3J2D7h0c+Uz06kCQvuN2OZ5Fp5LMENfZLN4F6ALkfAhw4ka2Q9nIn5/fsUkGFXDeoD59fdXH6KVSGkgj9qfxkvJVJ+/qZC6WcmzInhRrZSsXM0SCdafwcaM3C7qJDkDKaLZMacf8y0X2KXjIWW7pJRC83J4MbtNzwBXDhZ4rZvZOeCNODHNkFhmfl3GKRe2ucfAdltxp8+Hq/m4J+6tb2jTNd1CqnclETJ9bP604qhKTH/O+NKTdaa/xALv1R+GprWsop/utkixk0UwaCeIwrlR1wx5ps7+25GqcXvOAemrYCupfu0j4PKJErUz5VS4z1gqtWJQ7NfjRj9zSu2QHEZbCnKUA2rrqnHxOLRJ4rfm6W0y90nX+dhBHE+PQKnmhl/K/CaaNbsvvPno7mqzNVynfgeauv7Rn/JNxRj6L6bIR6ZqYl8CFItf3JNdD/F8+S2CpDL2QLGuKTAzz6atyBgAMTxUmZ+aPzqJOa2KJj5RKfnt8R8vqswvznj1nfvakAI/WhiuuY2I+A9agmzD0bHNyAJhqLngWqT+VMfGwoc32YD06bUrrtzoo1gmMdvA22LiHqfjcQH7IicZgGuPsV4r3S6J1y2GraZs71oeEZZD7iXJ91gq3cl5H7DyrbLp9jFySlyL7i4zTxJ1f3nvo5/RLDbHgh2dnTEbCWkpGOGwiSwal0ZmTrr23AiT3ibK5j/MCSjgQVCzhyFQhipCsRyrpLlX6TuGToyg3jcPIseQ2u9+IBp2JgEzo12rRgAwCj+nRIuy97TuyrMnLufxvP3TEC+ILj61Xbf3l/25oxW0moV0HZfYmqW6mMLE9XT9hb8KUvAIfxzvBBQ3ZhbQCCOQ1gPmvVb2wRrpSWokxk67ztU16XmL8669OPzAxAxyV3AutZhiyrbh58ZbIfWwZnu1wd/+IyTbF5gzWEFtgZH+TnJzyg+HIGlAzivqyLu6CEa+/PxiGn4t6ats8lKxmgzx/rTeDaMtMpXgswrUc4rdKqRDHxZXiHIj+vgWnwu5Xddrg34GPB1Djo2t8p3EvutaBVBUoA8g49SJxtgtQz8G3/FDgI/E2oa0gDImhD4OSaO6crFCfOYnESRAOAvPKpMSI6OpMAy3lexiYhcGyL0SgECqXfcGL3rzoxzZ/YfQoCYK5ac/0PDmELZ2STiTb3Wvkov1hCWHW6ZVBj53vZuppXG+gVv7A82GrditsyG6rhgm3SJcFJI0jcwNoQCf84ljxEj2FfXJ7bA5ZNNtMzOU+wrDkXKZWZ7pAKdb/Pry+SfSDv8D28LAtg557H/NpSkTSxW34pFBgvWr57a/wtrLDCqKlQdB63ipRC64Roqi0UCete1agIo3SgJNmVahhgD4Q9wWjKVNwMy5FnnG5FMeJt9MkHOVsT1u17SveMFR22/H359zP0zlvLtA9qNrdvt1QnpD2UK5LdBaLs9J2AlbJpw42jXEpxrhbGYS0fZ7pDkLhATmzrwTr36hHb9Ngp0ftRtk8dExZPtxVkvoVGSxQCn/6JHxgf7CU12gYbk+B1Z5HuR0TL0ODjINkv6Pw1N4QpxZfpzHreSToYK41s5Hjkm4gxbhUsRFPc+M40QNGJW+4zBpR9xDTzVJobvW6gjWSnNa3ZdSZWnVmcxdY3JvlAN2lUdPZp4iEa0r2qpj/2lYfIDv4nF4A339VW6Vxlp5Ypil7H4296DXtuBHpEMO4pLrpUW5n2XSNhvKRTlU6Fbv3e2X5H51A3M3xFSy/qGe6e6tm+ldxSXg9XqCd1BvXCRGU1xcBv7LZScXMsAwxS86Ns0pEKln+ov2qRbYQE2g3CtHDhb73w4Pyn4H/77qVR6DlhOAJvEsDd5aYGkpOX2H2LWr7MJ5RRwDJhvrtUaLpdftKxVKlwv7QiZ0d2w8tJ8HANNr39JJcMcZXyf2klPuANqQPSK0JupecliVXn+pR/TqeMtEfTno3fMxUXDz5hFkiqVD9s7W94rd3Dn8fh0bMlGwsw2VnVbp+FtqQCwnSWCP95cfUMJCCFSiYH94/XgAAIitPssIP/GwCrJEPrxXdsqYZQwWPN8vyY+yLSlYUhGQ4++2TFzT/RfIWQj5ccJY8/bsDRK9X4TENDi2kO5oijwwLp33/DK7qDJswhGswtEzVN8XJGK8iQG+/wwOxnuS7mbS/z+1d8rNYxYOz8cvxcK+DyOqQu83s1VLBFP8IqHv+IrTUr+z/XoAEthRm+qF2+T3GGTzAWH4tcwx6N2qygOeZdE5SKhk8sOZXGVcUDskQ+oGBBJywtrZ3yLVz+FAbK4yPsQIXvgizUzLpCQJEEEQS+73lFiG4UjX/vVhl6KAdXixRPu9Px+39GY8BWAH+dw3NSlReJCwY7oDrGq/sngWElpOSxQlCgl1u8vYfTwmU/dcKMmDcPiBG61dD/xn0VDHXMwhr3WOA6APjeiSpiCMYf/mvFz7QdFccaqqEwQfH5uA2rvJTfBsK1ZQDl2Pvz7BooKoJNuH1neMfyzipEiBYOLa3/eKmZRtSDsvM3pinWr6Ma+X76crw7CUc00U1jS4qMK0EGpF2Pcbu63TCXimTrvY9DkeC8jzBwJoD9ewrUiyk938cx4fJNV39qjmGg/s1zJPMk9sCn6WHLnx3sL6lNGUPsVhwChSqcIKoA3cTmzE6v55xH98842mKqdYt8vB1Edx3Au6oGzzVOG1gUZq0JSBo9hTbAJUHY+ksPNxYVh/hIp9H+9pkVc2YePEQAlwlsNQuP3oRwoRmFDKz1dPlneoj/Ejs5fpV2dqvlE/+03R+C0GeMao07DgLqw2zoumzmAsBq7rjPPgAhrefBVK+Dx+3VRax/rESrFsXBKz7gS8W/AHf2L3nqPwThE5pg3gTysNIkVLJThd61VTADNexBZAzC5EellYPnB25UIJttF3N2q1jp+YyEFX5L7QcWYeH3Pw0onZXbCx43tLgecL8nboyl8Drb0qo/b7aJH6B9iRLOl3P5wfw1aYP+iW/EQVgf0Ud+TKlaf4fZvwyJA8nJhQRvEdNxGNzzYM31H55q9b9vR7+jxsdX85iBrbsEvTY2S5i4HCxTIvZA7P+hztjYloWPhC8wq8sQn6h139acUZ11TEMTsdUs1LAAsYWJSwWzLQ0AKgPcdNuJUkcP28vNKciIgjtk7RgcUlfSZ57bLBwpTQrwrgvmI6PLbp4QcCSX/n64xTgwZkyEhZ++Q+wEwJ/7lDdCLLqwzuPn9qMBSvoall/4+9k9cO0Wy/P+yPHy85tLm9UHIm3Iwj/3V9NpLuiw+ly8u43bf3UX3W2PsVJwhTluRIBW8tKiWiwdWo3ZvIZMxm9wU+zKGPiyjHdDB3TihcMxR2uqHZGXADM+X0kU7a1w59K7fBjf4IOMrXoBOLlL4lRtnEi9oj+/h/qyagQAsMaKR0OoUqQysDSDqX5pBF5L7uI1EkQc9/uA2LLVWN7WiT2aWGHC5gBUOPsFmRz09WjvC1kTZqbJGeAbnWw6/HiuXhx9EH54rGnI42i4kSc+S9qjRVmQIgylO29LXx8ydlLUyWJIlouAxNT+denYOrVznk4iX7disvWgBW3hFofVVsGABlQwCL47Ww6RgcU+ssi0/Cq48m8L11nJWzmBWM6nn74mUQ17cFOF+Mkmo6574O0JuLdn4+kK1xTcob2+qmqF6BHB71aaLz38RAx59BkwYR9CJlGvnMuNJ/P5kc9cr1eTxPxXKDzGjpYXTXvtFVqnkw446wwdxKHiqA6ronzFkE6eVsyNL4MPZmR+ZtrR3EwCQprgu2u5wu3hAw+UR7PQAMwftrCa5gKoMShVzlcoW5yPMiuN4PMuvSe+I2/Ar4HWVZspUzFtlo2NP2NBcIo85ZVcVF803ysp7UWk/vaiTAYqpcKqI2hA37V2HRYd0pyUtUxMC4lMcaDS9ChYWOwgfIof6ryIr3OoV17pcR9fzN5sK/a86bPOUcEhD52/hrAzfMMZf/7DlgU0hUfWpB/VpfT324YGDJAzIAKpyZ3a7+GRnxLSnwGQluJYFdWnto7tCEid4ht/rfzdUe0XzOSwK7hSH71PLSf3trmVHFwKpt677Q2puwlNfcjX73OAnGpBiTRQehj4aJTX5NoSDKRuH+wTKH9k9+sGM5SfcX8ZL4RXDITtKzcPMvV8MpREyCN6Qu460vapGHSHAST8bx+0vahVzyiizX84ffURe8mdBClFHcI4CiEGAmtl3cS2Njkl1fiT5+8xZ7qTqB4sjYHHeleTVTeCx0Ixb/7tLEE8Dz2xuZpnsCteAR0l3yBQyATYHmMmga1ivkAc/ASZITMlET80A9Zxsf3VQ1O4yEpf59eTiTbdONxFPcHG2vEefol7QXnabM/AKuOgK7ByJu9E23rsNRkHDzSjPK7L2GLtc0ZqrR7dtdJq7f8C+a3Az1Rlmpvjap+842/3LKdKteLWi54oTV8uRPK4EZzY4r31N9MT5L0sDk04s+IENsGG94HloA2hiBOtVYrG4mY6gi13guHkOZ/peXDPQwGVYOTPAZSYmBY5JbH3nMJekqzGd2ePZgZJPi/IRB2P1JsdFznnZuFC2rdsljZG4EKUIM2vhX6hjLwuYwpFFPNWrbwrmUxHKWkf9V349LvIcAyyRYxgV9A4X62BxnOCKllfe87Pzk6c4U0EoEQLnMCrUoncr+nDsatihZELc+O+12PmaYPFttLb5IYnP5li8pmjB5L5PoF+h+oCJFBPsRYVqqcvOSykacYNlfCnaTamC09GcrUwCvvgmZl4qrUd39dONmt/oRMNnAM0xAUDTi3CIfheNqtAcdiqYnlq0FEq96QCP+L1yEz1Ud8/2+eclPaiLtoNHcy4gzCABvkh6TJHCFwKMgAs85bi0YlhoCuxLTTZbAIAweRrF20vahwNj3zmjzZYa18lTYR0cVETDIUHhN+3Al46LXc80jeuORQsJes2uVSz9JVW2Ev+uTs5lr7AiUp5WcFtGfEKMjneKYax/jEFZ6z5hZKbnOo78QPwgzVg9fC+ek3k/rdvliB4lExJYzEAIKXG97NSDWjRKV/GXRQYl76qaiimY4ICMXdr2Jz2gyLglkUzrN5oelX67yq4TkO4c188UVvvisX9J3mloaUqOAGNjwqtqKvWn3PrCQGfh/Af3joBBQVdGRofFECPxMRQgbuBdKC2b34k71GAZtrgseTCS7Qmxx7MJcRpUg4mhGxQbptxMcUkBZqQbHH2u2SUshyOPNoy09/pWwzEB9KBsux0GTmKgzyZHD55s9bt5ESaYGAxgMpocYbP8yl5MOq2yFRwDsHAmS2Kl12Uks7xDW1Uu5mi5X3tq/cF+BLchqNG1lxz65u8qL9z/le1hQ09V5gH/N4h6q8Y8ZW9862zMV2L4cuZ9fEWT7LDjMoyIQsPsB77ArSoicMg8nb+/K1cp1qLjP/q5Hx79ndgPyN9ilVtmFvadTC7hrH5BLH3Tnrw96ALh8kGxIkx8pDk0RWx68bObENT/ba5pV7fpy473biPubMnygGDWqbg11C49X4ZTvbe6PdRSem4Bzc7xOGMZjGWRNNNAjxowxLyuc3V7lGSISdalXaDnal05KrI6HlcnU9fVRzBxvwNpBMLEOxn8eMtHPC9Bk73zssVzDKq33KlV5MnO7MizhLmEt5LOVLcU1VRyTCL148tnkn1wBvyBKuaKUZNBKYpq6l8UvGOBJzevDTbBedLArJTEoBv29HlSaAyEokr4G4KzRksXkmi5sZeNDQbS0GZyGzSgj8xpsEzFauNyRRxfEJcEZXU88HrrBAiBO8HI9jXhLW1FB5HCfVysY5VfnsunOKqc93fCj8l3SVTJkd8pAPSZ38djDEvA4A+mAjCgPb5yjB/41qcg6Pgud5caqivm+1B9iqyBd5dZk2JQM40ErnE6cZi08n7OSrTHStxj89qudmoLB5rb6FihGa878/HQEnROQwDUurfEC4AnwN/NZdxzx2sIbV/Wh4WxVbAUF+zlimA5dHZzx8o/+zLfTZDjqH62WfbfeMlY25HRVE5xK096nWqUvbY0mpLbpKyyKqfU1kIoFfD7HAupOmWGZgEhdlReYY6mpv0/MlpuhbSbHrdqcQk3JEs6jRViXWyeB6SdzZTBKshj3k+m1vLUYhNm6YjWwQfK4jHMvFabaBwk4kn6p3yk7XslUKy3sgzfJh9gdufX65shGq3zeaoV3jaDo/HoEeNL21lauHGHBrtbF9CdQLN18MvbVAinj25YyE71jKEPv4wLM+uAnDsnn9Hk3ppxHezs8x0nf5zvBq7CE5q2AofsU3wrL7Q9JmCmDEfIIRXbC28+KXJ5pv29JmOgSlx1BhbxVg0wfhpKAYb705VBdaHnhpzqQwXj/emn0odH+IunTfHi4+yGYdqD8Gl7qhxN7ohmVVh/tz/5ZAP+whiWJuzLzUxgxyhycbcP8tl5JGjaMiW8KfnvR+4BIExbwZjAZ0fjrlR2jDSal+B7wohilLUPJVPKstQzpn6JKZdZ6U4vE9asvLAtRV/ZCehQbPAC4geWZxlcEbkKRe71YAwG9gdLX2ou5HitXYE6LAUplOtCollH9YoYTTA7ztxLxNCqqvwU06lij0QK36lQ889Y7OGm0cJPTtCPCuHvUT8yemg+Y+HOA5CtsQfeOhGE5MVE4Ojm1LNfpWLUv/QbLyQQNkMKLyqxyitw0s9YgCIxzlfdtZkVMk66Ztqh5hDq3GNb4azJ6qH3smElaf+VmS0UG4ud4tbTCkuGAQltaPoqBH2IkOk2HQ/YKvog8nW48UMfIORQrFJKe7h5+PpheWmnBlkZR4u2y21mlbiEV0B3MZAlgQkNyzC8CLMsuubRklPXuvq4Q15IvkSg0EupNT4Vkv/g+lB9BH0PCcltwDhvv6/oAqQwz1Dm4cTSTeFdHdWyc/oeqKI/5Ay7aOzzQrqDdOrpVxC4xxnaHFC4dGnnbkHFjfX1R4TCjoWfJwa6G2KiSTsw+xxP7xPq+tqQck3lqASzSDRf8E0if8/KjoliVzqlin7JuEUivbMr6ELaxpLLlqNeXb5w2+isgme44KA7XQfNBDMYvradf8QiX6C+dfk1fyO+SDYxW0S2vw9ShyImEq3Mgsc4GgGP3HUfm1841NFNa/rPlLPCMG3h5Nfah6qsta/AR+qPsPTipORUxm2AK3y7fkgtdo0pCeHpKMeQFlABQySVAn/Hf47otD/saPGbgAZSe898fibcr4IxX2m+zJ7QNNo3naJpsdsoZIU1Txp+HsfD+4BM4qXb8lrZyaTDayTXAeDygoWNnwQuynaOqRTbnu8SXI3XngYMCW5yQuSKsXs5hK/y6kDUHQQqyMct6cdT299bvQ6YL8RQdDb6Y6ndnU5M7+DlTHTtkhX7n7lGgqaEn1CfQ0QwPpNRWSjszoClwRQfzrV9mkVFXID7kexbiKEmlS0cpBeKD/NdXcDKdCmdDh6144ru/JgNJLtuZddwb3dYHuPj1TeijP8RnTnf5uI80+9UpRloHMu8pinCAkiLNK/xDlKtboZGyIpFGLt5QD91uuZA/0p87mLZpp+6QVj4w1iGf2+l8HeXFa4mRAWC8xth/EJeSYNfu7IAJOmzwv3mQMb7VFToaghQlrpL9GoqOFiFDr7ZDrLPKNM+meoX+OmYjjzehZo8GR2g4r0oqHvrEffIE2yPUIhwihKadWGu/yBb/Aaivt3Kx7r2BeNDCADI6gnQvndsHpEBLCO1jcEP3askgRkLzeZ48ryBn3SX1GwKk2FWfQs3hirOPxGX0xnQO3A01or3qZQCk3YK7HlGpzVO+CF7mS4ZlgWuKpBsZA+up4v3Nuv0PKRmOHLIcKo9sv/X9WlAnzffCoHfNxgGMNIYnA5GS9zHgKNWrKy/IC4ZuMvsNl1RlHsX2SVKSCUyUCvJ20XwZP7LkXopMKIWBF0wWC+zxOjlNPu3tMivgiMhSNldc0hPv8OZeyoK/ntkd1J74z6FXkpqat3ipzur20BX7kK2Jq0YlB5kzIKddSKU730/OMiqVrpHtb+3Q7QfNQfTOwf0A4SgDx7/PQA1KiRcylckat7XspDQ2tctSGNvMKDRRUha1QfWWzkzcgFrOPyNgf9btvnVjd+qe1RE0HGpSQAcJxztk3RDTYwZlVqwbKDdxaBMeqiyUYMPF8CpjV+my1MTTyW/v9dleFYkj51tfkXSyNP9VZ33htwQFBTIC+5SZkmToWKaGqWnk6fo9GIkdDISZ1n3BBd3Cme60uNVJQcwUgNe3EHvgRx9z1ENwac51AzRXHRrPxllf7I6X82cqAXGbSP8vf7cuWEx8N0go6TvNLSSuKf572JyOc4lQHXX3pGf1lWe/mGu3yIa1nd1dl9maZBXP1tgi92eRRtwL0nGLfT3YTNwRI0aA7fR10NpeB580j1FJqfVAe33owf/W5NJw1bRGcRFDa7AsbT9SQFKU/wR/ENi2oRsVyMY+j+fqznq897JN1vle2bvP4vZOHdRnCYCakLXgdSSWZDQR8x3o5NzkOzjObXHPoP2c0KlLD+xYUbCJW9ScuhT4AZkq7WqmumdhfkMPQ3EAc4HbpuWBmEkvMHdVHE8phW6658TiB+8uaH/9sFEZkQNGcBsfaVEUs8JEZfHzxXTRBQlMDlIAYFSDltcypQoWGu45hGvLIGcDohaDXzYcOu9U5V7N1/u7Mi46YEYqKNUPV78ByBd5rmZ3qCX9mGmTfypytXPxJGaPiwcIdC4/I3KxgKWge44Q48yLxC7iC9HEeE2y7CybKO+dL9QuFR1lQuZSVW/wjMmQI1Zc8oatlxCY91dXU5vkG3i+N+9blqcCdPPUUsCgE5Mlqep0iNT4CTYU4KJ9Z1a7QRpDCxq6EuZFLyAKxQAjemm3HliMibCDgtLKM3iSr32mKJuWL6aL1nOtFBdcGR6yBgToJJdsXKBWflMpNqxU8AvxIjR6j9doH+Br2cNyOSGoNpi2foelJyY3pWb75xST/5QS//StJmXo9RO/qGh1KYcKeC5Axn2ahb2Z0ehgFu8tIVuOkO94vOuZOsA5nYXFyjkrEPYnICd4qA7YVBdBvNUG1z52MB0RRc3sK3Qi/wsyJOpxALF9rui8rorkrdWjnORe01wAARYb5p3zWSSWafwt0ZvZfs00Sd5VPEzwtJT1XnSziQb5tqHj+PTSBpwBvRVqntaVdxvv8vVWKf6m/Fd/3EZxGMsdL3OnYf2806PcJR7ZkZApMpBNlPfxfbvGqBW2zk1knr1Z/VrWDKe0cBFly9wafkXReixHBQZCQ2lgItYHZr4q5AZr1Lh6SR+AEOIMDVgsvnxQ7DlRk7H39sHh+b9ArCh6vYtBlr10SEjZa9qVel7LihoN1que2Qx1ulayW/zyayyTiBvDm93f5aP8P2B//lu0Z2ckxfGZIvitMdXHR7fWn1a8W0ew1YTzs/WIfVZidjt0lCDawlqEwe/Sf3h6XCUdYq57DyPcW4lXPb3IF3Wn6h5PkakJSbDrC67T85WzyDzvMk+y9QYYTyDGw/bdHFoN5oqEFo+d9M2T32lqxxXtZYBi10fdN2XmC2NE1nNXqoAdozEpw5uuLAwbhze1ghZcbH3mVPzbb1SetPwd68QAhWD1ilbBWQOzr/Rp9jAmiNsISQIOFE0WJ9FOIt+al/I5F+3rP0gE+YRhK9uJurwGa4M9kYkz5fZU2H7KkiGnI846cHEUaW3wkQ7xD5uNWTy9kNuTKkXE0q/bef9gORkvSUKRrUPrRQmcDsWzbRVss5CaTjVvppAxrqfw/yBL7uvRSaEU1cV2z63D/5FgzGsNsA3UQfWJl8Q3U5R8OeG9IgbsQmgIrfeG682EjXSxZRg6lzTIHCsKrIT6KxauOE2vCadBZbvKRUWlnjGw+EVXEoOPsNxztVNk80pwO8unDauPAQ+cEASv2m5fbozbe5vwI4oFQaWuGqVYbYkrDL8zzcA1GDEn5wM9sM+k2nnT46ObVW0SYx5Vcu6QYkeSKvOk1Og1rYTrdVRUTNBQj3adMRR2ZRIfH5xolg5GKfQJ0SOsRZRGkvl4ehrLOR8iAuQU1UPDu91FE8nYZu93wpOPeSUpNgL/1HXJwJmcsDQ8QAvCwS3N3RPmbCD05YowLY46Zx6GgQVk+Fzd6uMrS1Bhwd1461ONvYxlzmbZHLM9bJPJXiABr8uYvYo3DzN9BNulf6cbXzVLx4Y/Cpf1Twb2OfY3AFUeQKrD31hvVbZriDehhRzE6TpV6E40/FhPZc0k88X8X0MinWOFkAUF+wHEukASSaoU4zUZQKdjvUR40XYiDVbxxBJFEoFolp7kEpMRu01tsF32YuRFdQ72o+PsqtKz8Br5RtDTDhu4M+1Azyfw0NB2NlN2DaU9jDOYMRifn1EC3s0vcygVfiLkATogH6unZX2LUwzpLSWORaH5kOPJDpb0nxUxyPTolXD5ZLwAADW/DEQjMgaPEWPEmmQMOmaqI9KRI61yLD7B4O6r4qqc11Z18a1irN3aNStyZjTh5x9Bdo3W5lnh8ZfrahKRku9pFWVdT4rbBOrv/reaw/+bfiFhWFFw8z5FuOen8lERbog630PYB3ptNygrw99vtjDIYD62qa5Wx8Eo6Wowfm5pSTCziA6z2g7jmgrUxuPN34Ky+iiC9W6r5UBYjoP6AqukJoZvAAVG0hT9lWDRN8GU0bwjM9SM2EnUSZmob7gPz/dcWimtum3Lcn3YhE5Gon6T3tnxRRmBtt1snkPsCl1wOtvTDfhYcjcrt03gm/WciAGc2lOjXhsH3OC049IGvoWjyVaVnEcZNl7GLsi9+Yi+QOKmNB2fbZ31F0mPTgUnTz8gUjXu80uP3/YPQAAqIPhICLLopF0mcCvgG64dAZ3gWe2qAUmibVsZ2JJ6yGBJATVwb0bevCdZiMBBRn/rv96cu1E4GAVqSNiKxCNki6lwonW9pjO2qEu4sxc0aNLjZvsoB7I4bIvSi0I4qa1bcN2Z+8A3tvr2Pm4XUPRIK+cK/Qd/vQleFWxsj1MF+BM86riq+S2V7tr6mfmooeot4rjHsNRW3vJPUaZPk+bJPNMsV6pj0ULsj3oWE35yKxIuuPJZYSD26467lYK8UjVYquY/dxlCs2M2hterKiVCLO6F4wMUC4AAVH9TM5bk6pR2NIYzPnLWInUm5kJ/uQlGJVw08QrE4UznHDiZXr/Dk36L0Rq4WyRIUqDrn73TCMZ39kRDKwlIx0Ejp6tOL1sruuXfeKVVWdJjJYI/8h1zhNc7WekRbwInIV/5Tfd/RtYc8C/CzxkQkaWbzz/I99EqxwH5JhVKHd8pNmpBx3vU/vxIwXTSTVqsxi80w5vS6wmYWy/SWAbuD5dL9pBtM42e0J8NTny8DF5OOvjZB9aKTMLLfbRNz/X4lLyhwXmUKW+6HMvxgUuDt6PF1DVrLZOQEhhf6BeFP1Focvvs9NEOpnorjuAsg/+T2rl16WEmrgAAjOaCh6e4uhwrZHLvPHiLjU4lGw2Z09zx7leSnwi2GV5giTLsJ2Qzc65XoPqCs/oszZ1GZAh+jyvLOnTMzHkcoEh0uaexFljtzaYqMBgmT6JDQAy7s0dxUMVmvHFBDwsoGh1OtrEYgRzpn6CBUT5Cbhyii3TW+O89JCY/H5jfvr1i2OWzQSsPHe6n2NXzcqyb7lPtebSwL/AAAAAP6edTtIbjlX+Sgf5x3Ldn6245FNPPEps6LSH2uswFjZDuaPNBaDD2k/s8g4sBsDSETzmt4i4pnR2Z0CzqeSiOUe6l2S+BoXMirOcUULlc5Aa1yqM1bMYl+bqf0Wha0yAFiig48KugAAAAAgVW9CrQyzf5FHJhxNg4Lcg5GZ3UOgpSkboX/e3XpxuOdSd1kIr4D3Qyuc/eCqcIbbVdQtEvl6AAAAAAAjBljatbQqb5PE95Tu5MbiiCANB8vspO4+1RW3uAS6I0QzdnsGMYvMWRmXY8w3TgyawWZm0ZwAAAACBFvq9bgqI1R5Hf1gzhldRJ0WGClZUCEhndtAvBCKJMEEGz3EVTsX8XBf7Uh+YvKhEwqjgAAAAAAHuVt11suv0dhk/oW7yAFEJH233gSEDRPGUUid7ML2r6Q8NVoBWIxJ4AAAAAAAhusk7RF3/sNIkm1bYiwNtWIyUY0Sv5UZVNwXFgvmLZiYALkAjnBnihgAAAAAAAC7M02ERBRaoUBRdbXsa/B4H/VPaT4gHGJYkAAAAAAA;" vertex="1" parent="WIyWlLk6GJQsqaUBKTNV-1">
          <mxGeometry x="170" y="230" width="186.67" height="140" as="geometry" />
        </mxCell>
        <mxCell id="4Xzrb0yfbBRYlqgE_jvr-2" value="" style="endArrow=none;dashed=1;html=1;dashPattern=1 3;strokeWidth=2;rounded=0;entryX=1;entryY=0.5;entryDx=0;entryDy=0;exitX=0;exitY=0.5;exitDx=0;exitDy=0;" edge="1" parent="WIyWlLk6GJQsqaUBKTNV-1" source="4Xzrb0yfbBRYlqgE_jvr-0" target="4Xzrb0yfbBRYlqgE_jvr-1">
          <mxGeometry width="50" height="50" relative="1" as="geometry">
            <mxPoint x="650" y="-94" as="sourcePoint" />
            <mxPoint x="720" y="-120" as="targetPoint" />
          </mxGeometry>
        </mxCell>
        <mxCell id="X6i2WC1-WL9DX1xnyhBZ-1" value="" style="edgeStyle=orthogonalEdgeStyle;rounded=0;orthogonalLoop=1;jettySize=auto;html=1;entryX=0.5;entryY=0;entryDx=0;entryDy=0;" edge="1" parent="WIyWlLk6GJQsqaUBKTNV-1" source="1EY1--HiL1jkh1mz086z-0" target="X6i2WC1-WL9DX1xnyhBZ-0">
          <mxGeometry x="-0.3351" relative="1" as="geometry">
            <mxPoint x="318" y="-65" as="sourcePoint" />
            <mxPoint x="570" y="140" as="targetPoint" />
            <Array as="points" />
            <mxPoint as="offset" />
          </mxGeometry>
        </mxCell>
        <mxCell id="X6i2WC1-WL9DX1xnyhBZ-2" style="edgeStyle=orthogonalEdgeStyle;rounded=0;orthogonalLoop=1;jettySize=auto;html=1;entryX=0.5;entryY=0;entryDx=0;entryDy=0;" edge="1" parent="WIyWlLk6GJQsqaUBKTNV-1" target="4Xzrb0yfbBRYlqgE_jvr-0">
          <mxGeometry relative="1" as="geometry">
            <mxPoint x="570" y="70" as="sourcePoint" />
          </mxGeometry>
        </mxCell>
        <mxCell id="X6i2WC1-WL9DX1xnyhBZ-0" value="CRD Encrypted&lt;br&gt;File" style="sketch=0;outlineConnect=0;fontColor=#232F3E;gradientColor=none;strokeColor=#232F3E;fillColor=#ffffff;dashed=0;verticalLabelPosition=bottom;verticalAlign=top;align=center;html=1;fontSize=12;fontStyle=0;aspect=fixed;shape=mxgraph.aws4.resourceIcon;resIcon=mxgraph.aws4.encrypted_data;" vertex="1" parent="WIyWlLk6GJQsqaUBKTNV-1">
          <mxGeometry x="540" y="-30" width="60" height="60" as="geometry" />
        </mxCell>
        <mxCell id="nszIcLv8SiMIbT351mdS-0" value="" style="shape=link;html=1;rounded=0;exitX=0.908;exitY=0.9;exitDx=0;exitDy=0;exitPerimeter=0;entryX=0.017;entryY=0.3;entryDx=0;entryDy=0;entryPerimeter=0;" edge="1" parent="WIyWlLk6GJQsqaUBKTNV-1" source="1EY1--HiL1jkh1mz086z-1" target="4Xzrb0yfbBRYlqgE_jvr-0">
          <mxGeometry width="100" relative="1" as="geometry">
            <mxPoint x="350" y="110" as="sourcePoint" />
            <mxPoint x="450" y="110" as="targetPoint" />
          </mxGeometry>
        </mxCell>
      </root>
    </mxGraphModel>
  </diagram>
  <diagram id="Sm8y7zFaaTHQxjQVpw_f" name="smartcps system overview">
    <mxGraphModel dx="2117" dy="1727" grid="1" gridSize="10" guides="1" tooltips="1" connect="1" arrows="1" fold="1" page="1" pageScale="1" pageWidth="827" pageHeight="1169" math="0" shadow="0">
      <root>
        <mxCell id="0" />
        <mxCell id="1" parent="0" />
        <mxCell id="21XThDF_EwefMqvhnax9-32" value="" style="endArrow=none;html=1;rounded=0;curved=1;" parent="1" edge="1">
          <mxGeometry width="50" height="50" relative="1" as="geometry">
            <mxPoint x="360" y="120" as="sourcePoint" />
            <mxPoint x="360" y="-320" as="targetPoint" />
          </mxGeometry>
        </mxCell>
        <mxCell id="21XThDF_EwefMqvhnax9-1" value="&lt;div&gt;SmartCPS Core&lt;/div&gt;&lt;div&gt;(Web app)&lt;br&gt;&lt;/div&gt;" style="ellipse;whiteSpace=wrap;html=1;fillColor=#66FFFF;" parent="1" vertex="1">
          <mxGeometry x="198" y="-105" width="120" height="80" as="geometry" />
        </mxCell>
        <mxCell id="21XThDF_EwefMqvhnax9-2" value="&lt;div&gt;SmartCPS KMS Server&lt;/div&gt;&lt;div&gt;(Web service)&lt;br&gt;&lt;/div&gt;" style="ellipse;whiteSpace=wrap;html=1;fillColor=#66FFFF;" parent="1" vertex="1">
          <mxGeometry x="198" y="-5" width="120" height="80" as="geometry" />
        </mxCell>
        <mxCell id="21XThDF_EwefMqvhnax9-40" style="edgeStyle=orthogonalEdgeStyle;curved=1;rounded=0;orthogonalLoop=1;jettySize=auto;html=1;" parent="1" source="21XThDF_EwefMqvhnax9-3" target="21XThDF_EwefMqvhnax9-8" edge="1">
          <mxGeometry relative="1" as="geometry" />
        </mxCell>
        <mxCell id="21XThDF_EwefMqvhnax9-41" value="&lt;div&gt;&lt;div align=&quot;left&quot;&gt;&lt;i&gt;&lt;b&gt;Comunicate with DBMS to:&lt;br&gt;&lt;/b&gt;&lt;/i&gt;&lt;/div&gt;&lt;div align=&quot;left&quot;&gt;&lt;i&gt;1.Inject/generate keys(DES,RSA) and&lt;/i&gt;&lt;br&gt;&lt;/div&gt;&lt;div align=&quot;left&quot;&gt;&lt;i&gt;&amp;nbsp;&amp;nbsp; wrap all keys under LMK(HSM)&amp;nbsp;&lt;/i&gt;&lt;/div&gt;&lt;div align=&quot;left&quot;&gt;&lt;i&gt;&amp;nbsp;&amp;nbsp; or KEK(DB) before save to DB&lt;/i&gt;&lt;br&gt;&lt;/div&gt;&lt;/div&gt;&lt;div align=&quot;left&quot;&gt;&lt;i&gt;2.Sync the keys to be visible in&amp;nbsp;&lt;/i&gt;&lt;/div&gt;&lt;div align=&quot;left&quot;&gt;&lt;i&gt;&amp;nbsp;&amp;nbsp; SmartCPS Core&lt;br&gt;&lt;/i&gt;&lt;/div&gt;" style="edgeLabel;html=1;align=center;verticalAlign=middle;resizable=0;points=[];fillColor=#FF9999;strokeColor=#000099;" parent="21XThDF_EwefMqvhnax9-40" vertex="1" connectable="0">
          <mxGeometry x="-0.6386" y="1" relative="1" as="geometry">
            <mxPoint x="-39" y="-11" as="offset" />
          </mxGeometry>
        </mxCell>
        <mxCell id="21XThDF_EwefMqvhnax9-3" value="&lt;div&gt;SmartCPS KMS&lt;/div&gt;&lt;div&gt;(Destop App)&lt;br&gt;&lt;/div&gt;" style="ellipse;whiteSpace=wrap;html=1;fillColor=#FFE6CC;" parent="1" vertex="1">
          <mxGeometry x="536" y="-200" width="120" height="80" as="geometry" />
        </mxCell>
        <mxCell id="21XThDF_EwefMqvhnax9-30" style="rounded=0;orthogonalLoop=1;jettySize=auto;html=1;entryX=0.5;entryY=1;entryDx=0;entryDy=0;exitX=0.567;exitY=0;exitDx=0;exitDy=0;exitPerimeter=0;edgeStyle=orthogonalEdgeStyle;curved=1;" parent="1" source="21XThDF_EwefMqvhnax9-4" target="21XThDF_EwefMqvhnax9-2" edge="1">
          <mxGeometry relative="1" as="geometry">
            <mxPoint x="200" y="320" as="sourcePoint" />
          </mxGeometry>
        </mxCell>
        <mxCell id="21XThDF_EwefMqvhnax9-39" value="&lt;div align=&quot;left&quot;&gt;&lt;i&gt;&lt;b&gt;Comunicate with Web service to&lt;/b&gt;&lt;/i&gt;&lt;i&gt;&lt;b&gt;:&lt;br&gt;&lt;/b&gt;&lt;/i&gt;&lt;/div&gt;&lt;div align=&quot;left&quot;&gt;&lt;i&gt;1.Verify the integrity of the CRD file&lt;/i&gt;&lt;/div&gt;&lt;div align=&quot;left&quot;&gt;&lt;i&gt;2.Retrieve the match &quot;card program&quot;&amp;nbsp;&lt;/i&gt;&lt;/div&gt;&lt;div align=&quot;left&quot;&gt;&lt;i&gt;&amp;nbsp;&amp;nbsp; as specified in the CRD file.&lt;br&gt;3.Perform the data &amp;amp; key encryption&lt;br&gt;&lt;/i&gt;&lt;/div&gt;" style="edgeLabel;html=1;align=center;verticalAlign=middle;resizable=0;points=[];" parent="21XThDF_EwefMqvhnax9-30" vertex="1" connectable="0">
          <mxGeometry x="0.049" y="1" relative="1" as="geometry">
            <mxPoint y="1" as="offset" />
          </mxGeometry>
        </mxCell>
        <mxCell id="21XThDF_EwefMqvhnax9-4" value="&lt;div&gt;SmartCPS CardPro&lt;/div&gt;&lt;div&gt;(Destop App)&lt;br&gt;&lt;/div&gt;" style="ellipse;whiteSpace=wrap;html=1;fillColor=#99FF99;" parent="1" vertex="1">
          <mxGeometry x="170" y="300" width="120" height="80" as="geometry" />
        </mxCell>
        <mxCell id="21XThDF_EwefMqvhnax9-5" value="&lt;div&gt;HSM 1&lt;/div&gt;&lt;div&gt;(LMK = AC key)&lt;br&gt;&lt;/div&gt;" style="image;aspect=fixed;html=1;points=[];align=center;fontSize=12;image=img/lib/azure2/other/Dedicated_HSM.svg;" parent="1" vertex="1">
          <mxGeometry x="709.73" y="-50" width="68" height="62" as="geometry" />
        </mxCell>
        <mxCell id="21XThDF_EwefMqvhnax9-6" value="&lt;div&gt;HSM 2&lt;/div&gt;&lt;div&gt;(LMK = AC Key)&lt;br&gt;&lt;/div&gt;" style="image;aspect=fixed;html=1;points=[];align=center;fontSize=12;image=img/lib/azure2/other/Dedicated_HSM.svg;" parent="1" vertex="1">
          <mxGeometry x="-100" y="-53" width="68" height="62" as="geometry" />
        </mxCell>
        <mxCell id="21XThDF_EwefMqvhnax9-8" value="" style="sketch=0;outlineConnect=0;fontColor=#232F3E;gradientColor=none;fillColor=#C925D1;strokeColor=none;dashed=0;verticalLabelPosition=bottom;verticalAlign=top;align=center;html=1;fontSize=12;fontStyle=0;aspect=fixed;pointerEvents=1;shape=mxgraph.aws4.rds_sql_server_instance;" parent="1" vertex="1">
          <mxGeometry x="29" y="-230" width="78" height="78" as="geometry" />
        </mxCell>
        <mxCell id="21XThDF_EwefMqvhnax9-10" value="Web Server" style="sketch=0;pointerEvents=1;shadow=0;dashed=0;html=1;strokeColor=none;fillColor=#505050;labelPosition=center;verticalLabelPosition=bottom;verticalAlign=top;outlineConnect=0;align=center;shape=mxgraph.office.servers.web_server_green;" parent="1" vertex="1">
          <mxGeometry x="38" y="-77" width="90" height="110" as="geometry" />
        </mxCell>
        <mxCell id="21XThDF_EwefMqvhnax9-16" value="" style="endArrow=none;dashed=1;html=1;dashPattern=1 3;strokeWidth=2;rounded=0;entryX=-0.033;entryY=0.363;entryDx=0;entryDy=0;entryPerimeter=0;" parent="1" target="21XThDF_EwefMqvhnax9-2" edge="1">
          <mxGeometry width="50" height="50" relative="1" as="geometry">
            <mxPoint x="138" y="5" as="sourcePoint" />
            <mxPoint x="408" y="155" as="targetPoint" />
          </mxGeometry>
        </mxCell>
        <mxCell id="21XThDF_EwefMqvhnax9-17" value="" style="endArrow=none;dashed=1;html=1;dashPattern=1 3;strokeWidth=2;rounded=0;entryX=0;entryY=0.5;entryDx=0;entryDy=0;" parent="1" source="21XThDF_EwefMqvhnax9-10" target="21XThDF_EwefMqvhnax9-1" edge="1">
          <mxGeometry width="50" height="50" relative="1" as="geometry">
            <mxPoint x="108" y="-53" as="sourcePoint" />
            <mxPoint x="198" y="-43" as="targetPoint" />
          </mxGeometry>
        </mxCell>
        <mxCell id="21XThDF_EwefMqvhnax9-18" value="" style="endArrow=none;dashed=1;html=1;dashPattern=1 3;strokeWidth=2;rounded=0;exitX=1.059;exitY=0.79;exitDx=0;exitDy=0;exitPerimeter=0;" parent="1" source="21XThDF_EwefMqvhnax9-6" target="21XThDF_EwefMqvhnax9-10" edge="1">
          <mxGeometry width="50" height="50" relative="1" as="geometry">
            <mxPoint x="358" y="205" as="sourcePoint" />
            <mxPoint x="408" y="155" as="targetPoint" />
          </mxGeometry>
        </mxCell>
        <mxCell id="21XThDF_EwefMqvhnax9-19" value="Application Server" style="sketch=0;outlineConnect=0;fontColor=#232F3E;gradientColor=none;fillColor=#232F3D;strokeColor=none;dashed=0;verticalLabelPosition=bottom;verticalAlign=top;align=center;html=1;fontSize=12;fontStyle=0;aspect=fixed;pointerEvents=1;shape=mxgraph.aws4.traditional_server;" parent="1" vertex="1">
          <mxGeometry x="567.73" y="-48" width="56.54" height="98" as="geometry" />
        </mxCell>
        <mxCell id="21XThDF_EwefMqvhnax9-21" value="" style="endArrow=none;dashed=1;html=1;dashPattern=1 3;strokeWidth=2;rounded=0;entryX=-0.059;entryY=0.806;entryDx=0;entryDy=0;entryPerimeter=0;" parent="1" source="21XThDF_EwefMqvhnax9-19" target="21XThDF_EwefMqvhnax9-5" edge="1">
          <mxGeometry width="50" height="50" relative="1" as="geometry">
            <mxPoint x="43.730000000000004" y="-159" as="sourcePoint" />
            <mxPoint x="109.73" y="-170" as="targetPoint" />
          </mxGeometry>
        </mxCell>
        <mxCell id="21XThDF_EwefMqvhnax9-22" value="" style="endArrow=none;dashed=1;html=1;dashPattern=1 3;strokeWidth=2;rounded=0;entryX=0.5;entryY=1;entryDx=0;entryDy=0;" parent="1" target="21XThDF_EwefMqvhnax9-3" edge="1">
          <mxGeometry width="50" height="50" relative="1" as="geometry">
            <mxPoint x="595.73" y="-50" as="sourcePoint" />
            <mxPoint x="715.73" y="-20" as="targetPoint" />
          </mxGeometry>
        </mxCell>
        <mxCell id="21XThDF_EwefMqvhnax9-27" value="" style="shape=image;verticalLabelPosition=bottom;labelBackgroundColor=default;verticalAlign=top;aspect=fixed;imageAspect=0;image=data:image/webp,UklGRoA7AABXRUJQVlA4IHQ7AABwbQGdASogA1gCPoFAmUgioaMhovIJYGYQCelu9DH5Rsf/P0rR/sNgCX++X/P/pZfX1TjONVeu9klnZJ97pPM7aPrL5by+Pje+5/tPWz/iPSe9OPpz/t/oF8330df8XpovWj/mPqwed16z399yPX5V3Nf5/wP9B/1Tbcwz/H+C/Z0/vPBH48/73qO+3f9t68UOLrh9t45f23z3vvvQP+l/1/Sl/5PK0/F/9j1Tv9X6yH+7333sgiiRExfvnY/fOx++YNGMuzzBqfIwyoXW0ZD2q1hCRExfvnY/fOx++dj987H75nJTpIzaQDL9ksn6RZzog2zY/fOx++dj987H752P3zsfvnYohKZ5sVSvkZ8VH1NmcL+5aTF++dj987H752P3zsfvnY/VvzEuWVFmMhJvXVmVeeviQEhy0iJi/fOx++dj987H752P1XWODZmUfhi1TTN2v1rD+A6rI6DtVFrsrv3C9PXUgQozhoM+DQZ8Ggz4Mrxf30KaMQ4Vbzs69OUouFHW5uajSOjxCif/V4X13n/gGcUbGgz4NBnwaDPg0AUn8a7RDU5BhzeFdpOgFRFCA1wRVCpUR6A3bLeNjU6DC9QNQ7H752P3zsfvl2NW7PrWclWylpSxMLt1+NWhpDbPQOsZE+MTYLU7Wj5wn8v3zsfvnY/eilttXizmi/OzMWXlveSQw3hJRaABt0G6HLKYwFwqbXOAOvOgz4NBnwZ/M1MffHUxtTprewD61aTe/NcBpjow3rGm1Q3CLzxQ2HP+ifIfWYlt8CB30Pb0WLi68NE+cdS4Tm2FhKsYp1sspqfJr9W/Z9Vth6ZZCSIpZ9hki9qtYQkRMXuAzTbc4xSinmoI6c/OheogDFqVS0cXtVnif7AtEx1IKtv4TY2t/ZWVCW3MTQ7SqjXl3SAy2mbR7BPYyGhX6doiInjaMJIG9sh//NoDmsYvwI4/EzCFVB9KT/1wBoofNUH2UW0mC9V2YkpfeuocfRt6cqxTRDtsDx1xTgXN1tVuSHtkhHEnFafR2P3zsfvnY9vqong5lbO1oV7DGnH/hJABlhTknVqvpcH5H//k3JzxrkrlDYefuqRBiTlk69fL/PFfe65ZV3v5Aq+BOA5ypYnH5NtCLoJp6ao3ppiz7LamSeYsM0VWpA8bCrp/AvvBiOKIaN74vj6/i7Lii98joG7cJU2P8Oj+KxEMqgJGGgz4NBnthrRQ78lcWxxSV/FpZgjlssUtR3hvPLbp3kpFLhVQttQQzaKaQCKdoA5i6qZDrZEJeDwPYcYloJ7xz4Y9SzensovD3OWGl2GrSoTMNdPb0TGz6vYJhiF9JOGJXVjVAlSQNAvZFkDAE2fuiyExq2CFNjkYMD1+hh4eCMbcEqCFSOAFBKqQ3kPTOvjBaDPg0GciCfD25JVFH6NGbXuH9R9di54QwJGfdL3M6PYEPQa60Q6YpTJws2rAHft9HOi+v/wXPukHKYG2+tR0mfyiTaMVGIhVSkpuleCcH5ttFOgDLmJUOb3MLUzQWir3k2dwgbIvHeLziBVvc2RqoQy7dxmaPiptuuDjpwsWKXGKqg4jIhz8OMuaN19JByQn+KpVvuc/5JcNXt32c/UXuGfBoM+DOWzg+6BnECPVqfiTaO+ofTM7D5ezZZ0/LNI2XqDVgTVWp9ILHnxgWCMu0WmSuZo+izMQpXn041HUPFdKWDXKCDtBCMr5GPANuGul9FBcagnUvo3H2thFKYNqAIvwWrmUt0sess5GP88i3bkOBgDcqDbg2Xas3aTo48VpX+9O5yrfCamdpj12BPxjSAdX3S9wz4NBnwZq7aiTSpIr7craimhpGKHulZnkCv/YUMg7nt3BgOAGWGw1VO1tV1p8Hry4QeGH+3Aj36BZ4bSECW4LK9MxEK2Idu7OOoA5FIFpopvV5y92wPtwGKQfYyCvlSMcLGuQbOGC86pQq0L7Qg/l9pJmzPZEuWGYZ3z6j+5nLkZq7pEdA2hW7bZwVYT5dpkIJ0nQptt2+r6wYj3OxLRqIz4NBnwaDEoB5D71u9AJEQYzU9apkCLIWE/RPDh9AWbwB6AyDTa2F0LVx6v9LRRCYmMoYB+W23H2xUxm2wmNk3jYbfFp+6p8FwPPReVUViAgyO3Sa8VArPN4T4s5ti8iK+Lhv7ocK4hZOV1sdtHtJJsmO9dDPkFcKbbHv8K0aF9QrsqZOgYynEOFhmf/HshIiYv3zshxlhZ9daZXtT8JRNv1On3C0TpQAuBs2yuZWFz1gtQK7ABzChEHPMYLa3RDSym6khCsBq/T0+qR63W8uBWQd6HOcRk8yKJF+cck+Cjwq9S9687cj+99WSkpvZD5yK9nVwGs8FyfeFM9R+7H752P3rk2reZeAzcxXaSi4gk+t22LOgaapj/1xrynGB6qR2r/oPo7wdaco9MhMJHJn3PIYsjztnAlG1BQ2PtXmlyWloiQ+3jnTW9ybqRLuxeaEm9a7t5V/Ue6vFsTs1TDZ5URIkkMYiiyzPg0GfBoMSgHjeX3MjYYmT3zAk5ocz5viWznxVotE8OWe4ZlVqkRCHBUjugRgr+VNGkeFsIUkC3tAKJ0uosQBqCdsb2xNet9Wq5zav2XDN65YV61hCRExftf+mP/GPvvTBPeG07NIsCc3JWuAGLY0JbRru2T6Vhyq3Y1AMb/sT5x6TPe4AdEax+hJin6dtuWoVkkT7S7XBMW7H752P3zpFJCYez2yeKwcBbidoKxxXwS4iCPrcxYVAqlFfRehLCsfMPRf23DmAy79kMkV/8jdte9nt6a6r6PNfHHYidj987H7009lwLxD1ZGOp8k7CI6VPiDhWT9eKcU8rv+hJa4ZRL+BuY5rna8fS8eCGr18dm7qcM85ftcFIrMOhL+seW7T3jecXqwyYZHD4NBnwZUI/lfczcxm2GZvhseHXSnaVIpZ5MdgF4bJSA/qq8y2z4xuyQbjiAMh6RgX6oLuTSz6AkbOgng1+PKaklHM/cOISImL986bQEf0l3Q7+nut5J5zWde23eCMNTqMtsnK9+5520Q1jJDqWHvfJ2jQ+newvnRGkRMX752Jrn6BvmSFPTWoVcwPlUS7b9x4UAI5T2DSvM2fWOa7Rdbw0u5RukFOBcDI3eQfFe5CN5QRBy4whTcsFoM+DQZ7goSTEIh9PKrky7V8+WTXVV5J15KJgXQAC7ue24StEEeXi7nXRppeIor///AkftgtYUQOVXzoM+DQZzmuYv5bQwaDt03Dq5QWCOHmM7fBYgPwRudqGHyjG5H30PtsS2SparI6WW6PMViti/fOx+9FuYoItcDNqAchQF/NRW91tTko49aEC1rOIxO5cE3xXWrjduOyr3Y+2wUgrNL21MpbaKf3qARRdzbuw4YnETF++dj99yUDyRkNpXqsT5EL88gJH8Pchjd4O2kHKD+ZCeZXM/C2pGToj7b3Wi/DjGtQUmfZp7nYIszvFHp3cFjh8Ggz4NBnweJznrgC6uQZo4FZT8Go4dhrMdzw5wjKIY4nfunA84Xrh8lugGYKvda0BRsoeEF50GfBoM+DQZ8GTE3O/IQ9OQ9POLaO6ffMO0nTAhQoy79cl9efUY/qnsVw0GfBoM+DQZ8Ggz4G1ak53MfCLK8uwMucquruIyUga6Ib3cEldiqCdlXfK0VbF++dj987H752P3zsf0+zbfLO7xQjY1pyW4HzvVGq0hBR6EyWXa/jvnY/fOx++dj987H752P3z76tXQNFn/M4SV9lGsCJa9/wcLJYtv4RCRExfvnY/fOx++dj987H752IkkAGOs4iZ7FJHfm6+4+V232QzupuAv3zsfvnY/fOx++dj987H752PYFfkL82Te/Fe0JW/Xeuow2ImL987H752P3zsfvnY/fOx++dj+JNbdNEL/ZVHnlUiJi/fOx++dj98tAAP7/O5AAAEW/b2oGVA32MNj5NjcK5nbNniIafsfb8wSgwb5QxmXF2K0X4SjlMh6Kq3r7y2ETkYAAAAAAjmTe0Qvu8O6YukRGL1ecyor7A3KfmyvxRMFm7e2CS/SP5ziYUVf2dZYZF/9HAAAAAAtO4OvtCK/7iSTjIDPoboF73HFwH6o4i1o6loDD7tmHXYTJO33WVivSmg8O9AAAAAAQ7QjNPehwnOEkwELSC57O94NbqEFUSk+XxZGZcXMviu72pH+jlXqLTTS/LIJWtKbFTiOXlBEp2AAAAAXO99ftSut6CuYuPDf2T1itDcp+kXbPNJORo6VywYjrHMdxpkbwNFSlQGqToV9AKtDwbgsQsRM4k7HriSrA09tO9M0ncUpwLAAAAinpfkw8hhKM5IwYza8wI0I3aEt7SBBGUBoEsM5sRHsubLo44Xs5MRCHU5YAOOwG9pE0/odzPbgALdHZOM5kxig1cXvkbY4kvoCG60wB1Aj6Kfp7o8VsQJ//8ffRr88yuJxmhxeznIGbnb/Opjaxinyz53+EcBSV447q+AL0PLfsAAACKa3PkQGb9Au+1G/7YBwG2KxUvoDtJAiti5VfIEeDPwL4n79l/GT/1HXQaBg/oUeYv9F6MV0OQYUq8Yl0qCZxwsjhCu45tFB2Kr8PwnKdJoD8uiJ1PdXHTlz19ttLKcF3ZF5Zbiihc6s/tMgAA4wijTBrrO4kKw2Prw6Mu0EuSQpyCqJ7+zg0Datzp/TKOlR88LcfKjHG3wwB0XjVQxTR9mqjMaT1KD/4BqJ9ybnNId3aFIrHPbaU1Xw7/jZeHYgTzJmYj8DKMubZQHG4lSDfu6Uv92/4oc602Cw0uGSgzMEAgAAAZVmS2aUNDBhMMHGOJZH4l1IblOtBwLG66/WWXD73xaiFdWU/Nx5w7gfojDhWJu2k4AU404xk/xoUIso6CgK0PaYABel/b1btuKol8mMRAHEoNANovSIEtKAADalkufBqgUrRei/xJLXXPha7QwHcb2kMn25rlUjd8NUcY+0lC6Xjt3HBZU0vLGRi9q5QY+pDs244YMuhzEq7vj6k6yl0CfOecpwm6avs2+XYF7VK8B6jrPY2pmwchPxxZ+qEoef56Qcat3ncpaWlPBNoUa24sJ/rx/sXWHuvi39G9TgjdUFJjnRZbFbQimoG3FdDEEgrSOClWTr7xios8KzVx5tOrdHsbCUv8SvErrW1rUF2r4dEPszVpoHkRjm3d0ADAjMbpt2dbR1tKKuMCTFKlHZoFjGB/ugYcnXaVv2JWCP2mUJYuSvJbnMQ3UTpwW/gAaxTXpQfE+aaZf9JoP2Q7yoTzei1cA9wmc0gde37waf2hq4W9IpvAfN2Y7/zp8FjXgIRn6nJ1m13j75/FRuoPWkf0bN+GEz5P/2WBJShrDVSvDTafkf2CAQLwUnJfUGUtk2XY4zVzSk8ZJZaDZd6bonv6iBpfb6f3GDTdLfSmMfRbsrBIg9T/QGUs9tN/EOUjM9Z1tbdLJtfcABUCYDvuxbQVHToS4fYHDX/oacxenU6UgnD6L2tZS8712w4HluxEf4+Vd+nmzd5OdrWhHzRYOJ0E03pPLquFp8E6iWEXj0C9gQTByyMWaD1IbFnb7CkzV/ChMK+CKtmZHYrv2vjw+3pIZegSdd9RMBrjAXA8mf+2S/RXQwHPazFQ3JDqdKX8ge75eXDZs3qVDyZHzqdqCXaTLNJVMzZCsFmn2okpaoxlFB55eO6boxEKGxWAoWN3GFDmPVJMo0g5X7bI2vTW+gYkRUvPmGP4GxMVd8PjG9l0q0LB664JTFuoT6/tt5DseogN2Sqh3gOIPUNTPo9Krk5ufGrGvHi5vbTfxmHGjk/rK7CirzRQ9V75sMukZrMkjS6M0bmpjikYfR4l2SbR4d2W09cegrF0BmcIkHRq2iHK04a/Zl6gIKF3F+lczAdIBrLy0BixijcXmHv2yWF2HMyzDU4ZR4Hz9Y/9hMmECh9b1PuIYBsQ/2/vKXodT7phXYJUmoZQbXU42CBGU8FvrYZz9xx2LAe7ggesMl05HwH/r1PATFZbwl89ob9kwa+BqWOAUmrWJOQY8+vRE1xidtg3y/wApS1lPaZbr+zwflE88uAiyJBtt2/ZDCrLh157ORPIgUnpVhrGhdYoxSPVL8MoKtWg6P27lhPb1ChtACTmdIkTu75giW5uQsXpkA++n7ZVZ7YNos5/S/uU/qyD/B9QGO+FFEKHEnzbnrvbCVYPash8Y0qkjkmliW9kqyMBctQ/6rDpQKp4uEPgWs33N3IBOQXNbEQw2/jhucE6mE02e2FTbZys8mkIuM0sgcH0S9yc6zRa9VWWXO5SlDs0Kopmndw/gmPG4FXyNkVVbspCVHXophqj0QcJ0JGdT9EiRihW9I0D6rcyaiNzukPO/cYM6jFqkGtWJrzhwbMvcrzTn8TwZpBZHxSsnBZLcl/QxDeaB4zvI2NnquI9j8NENPOApwhmeQ+F4ikLNqmx3wQ7IGiekADH2Jfienmz//h/yErCvvt8Uo2GICU0mwF3J+fktwbcPNXso69fn0P4MLt+FUitiy8KRWudXoZt0PzppTFuo0n8Or1x/EdNf2BPS5TYrwpETbsMBveB/hpGn4s9NOkEGaqA9ZYGFKC+tIqqFlMPrr6u3YVGiQK17/E9fAsHg3iOXICay3Gp87oeGVxG0fZdATnqjM9cBK1gOlAXQWrwwhuoweq6XRQExMO7gKnbLGpdorusxDY9EgkUAJnsK9JZDeYolkmW1g2/en9agLRfsrRay4TF/sezCmyFpQBjRoCOgPCOqfDEiyfQ0HTG1bTOFEpWxCOD7apKbF3144TKJu4VSvA/qnA7sr4HSrRwpks6jDl41kv8gEb0dLQ4nzMDSplbdhZreUTT3qTofV8syQBRB6C0mUgaZ9Oo9bcGO1CBHcb7o3a1MxmIBUgRp5jDhlBsML2Sm2emSsS9O4LjeSTL8Eq4gSZctwAy6pQBEixF20r9FZXtpo7zZ9Sf9jqKnypYqLG1GkzsySM2vJf6cD4Um2ixjW639z+Po/vhY2E3ayf0bHM76hlr9Q4by3/rQSIrrSiLtTgM/BRlI7AxzVBIKp4kJU+fv73prbVkhiMTMnBnlHRz3uNXMSpYSkSJTBJ2mPXOwixJV+G+kg1RR0TAgdvOQDFydY5rpcaJZs1dvZ4a8hrAzCxUO0a711gzlcHFPoEVAImTUu8B6O+NdrH9AGaLwXGpCxg5O1YNCCr8kusBPr4Jgh/WOARjZ+12YcgodATm15vxUAoUDKV8lZUOhCR3nkYODk4SoAUPEAOLguJ37PihlD9FgV3EdvziE2lLhcEvXiP++cUSDd/To1uTpC426m5FAs8NIzcI1KgDMQzW0L35d1cNTmo/IgI6VWWrdNszQZjTcVcP+3KRongq9BxtYOTL8dAF4AFZWrE/2R55X0TXXcF6x9F8vTnJPIX2kfCmvQRgVr0ihDMODnCEelm97S6bRL2QKa0iOYIZumCig5M8c4eStytFXnff6o94Jy5svZkSdVqmHZ+UCxrmdlgXZ94zTBHwpbotslcXwEmcOYtFBcgcpI68swvAIH9Ymx5L3nl7qghcjLOtgBTwEZNa9gfVKxRj60IVzosV7IAvQkDdDOTSxyMgKKJA6tAeLqHFpulyfqoM2a+fhtYuwP2gg7InKspxIuy9t0wbiPblNVz8+fgWvdm8xQ7uECAlmF/FrarE3GEKRVfsEtU6YvsTMv8K209Wb/wf8Fe11U6/eX54Lu7y8Ly4cz8aibpQ/byE6mKVVQEjRms1Ot+uXgExOtt/k9dHhAWIsLJwGAROmi6oAz1tX3LPfxnU7fT4CU5Tjaw6Kw5/LvkZnQV6zmou02XsECFrjmq9NvfYKEwQQEzSgaPyTK2ijeJp1NR0WhGFPmjr/K9Gq4qlAYpf2SDGLT0g1ngVHxoFB59lKRp0JcxdcaHCBVL/2MV+Y/uIl9FsbZMsApPhf/SdbaHyJR2HscsQGv3xl3W7Uy7sHIsx0feebXC4UARhKKE8v+6jJ5Q5M80JX5j28j/xMqoJdD7ksEPk/XxRnW9NoL+/VlOy7IKQG0xJIdaCIhU+di+Xkc9pvX9XU6eDjU0d2PRHeieLApSydHvq4YrIJxEa1k8DTg3pLDCveL3IyMfRXuntOB3J2D7h0c+Uz06kCQvuN2OZ5Fp5LMENfZLN4F6ALkfAhw4ka2Q9nIn5/fsUkGFXDeoD59fdXH6KVSGkgj9qfxkvJVJ+/qZC6WcmzInhRrZSsXM0SCdafwcaM3C7qJDkDKaLZMacf8y0X2KXjIWW7pJRC83J4MbtNzwBXDhZ4rZvZOeCNODHNkFhmfl3GKRe2ucfAdltxp8+Hq/m4J+6tb2jTNd1CqnclETJ9bP604qhKTH/O+NKTdaa/xALv1R+GprWsop/utkixk0UwaCeIwrlR1wx5ps7+25GqcXvOAemrYCupfu0j4PKJErUz5VS4z1gqtWJQ7NfjRj9zSu2QHEZbCnKUA2rrqnHxOLRJ4rfm6W0y90nX+dhBHE+PQKnmhl/K/CaaNbsvvPno7mqzNVynfgeauv7Rn/JNxRj6L6bIR6ZqYl8CFItf3JNdD/F8+S2CpDL2QLGuKTAzz6atyBgAMTxUmZ+aPzqJOa2KJj5RKfnt8R8vqswvznj1nfvakAI/WhiuuY2I+A9agmzD0bHNyAJhqLngWqT+VMfGwoc32YD06bUrrtzoo1gmMdvA22LiHqfjcQH7IicZgGuPsV4r3S6J1y2GraZs71oeEZZD7iXJ91gq3cl5H7DyrbLp9jFySlyL7i4zTxJ1f3nvo5/RLDbHgh2dnTEbCWkpGOGwiSwal0ZmTrr23AiT3ibK5j/MCSjgQVCzhyFQhipCsRyrpLlX6TuGToyg3jcPIseQ2u9+IBp2JgEzo12rRgAwCj+nRIuy97TuyrMnLufxvP3TEC+ILj61Xbf3l/25oxW0moV0HZfYmqW6mMLE9XT9hb8KUvAIfxzvBBQ3ZhbQCCOQ1gPmvVb2wRrpSWokxk67ztU16XmL8669OPzAxAxyV3AutZhiyrbh58ZbIfWwZnu1wd/+IyTbF5gzWEFtgZH+TnJzyg+HIGlAzivqyLu6CEa+/PxiGn4t6ats8lKxmgzx/rTeDaMtMpXgswrUc4rdKqRDHxZXiHIj+vgWnwu5Xddrg34GPB1Djo2t8p3EvutaBVBUoA8g49SJxtgtQz8G3/FDgI/E2oa0gDImhD4OSaO6crFCfOYnESRAOAvPKpMSI6OpMAy3lexiYhcGyL0SgECqXfcGL3rzoxzZ/YfQoCYK5ac/0PDmELZ2STiTb3Wvkov1hCWHW6ZVBj53vZuppXG+gVv7A82GrditsyG6rhgm3SJcFJI0jcwNoQCf84ljxEj2FfXJ7bA5ZNNtMzOU+wrDkXKZWZ7pAKdb/Pry+SfSDv8D28LAtg557H/NpSkTSxW34pFBgvWr57a/wtrLDCqKlQdB63ipRC64Roqi0UCete1agIo3SgJNmVahhgD4Q9wWjKVNwMy5FnnG5FMeJt9MkHOVsT1u17SveMFR22/H359zP0zlvLtA9qNrdvt1QnpD2UK5LdBaLs9J2AlbJpw42jXEpxrhbGYS0fZ7pDkLhATmzrwTr36hHb9Ngp0ftRtk8dExZPtxVkvoVGSxQCn/6JHxgf7CU12gYbk+B1Z5HuR0TL0ODjINkv6Pw1N4QpxZfpzHreSToYK41s5Hjkm4gxbhUsRFPc+M40QNGJW+4zBpR9xDTzVJobvW6gjWSnNa3ZdSZWnVmcxdY3JvlAN2lUdPZp4iEa0r2qpj/2lYfIDv4nF4A339VW6Vxlp5Ypil7H4296DXtuBHpEMO4pLrpUW5n2XSNhvKRTlU6Fbv3e2X5H51A3M3xFSy/qGe6e6tm+ldxSXg9XqCd1BvXCRGU1xcBv7LZScXMsAwxS86Ns0pEKln+ov2qRbYQE2g3CtHDhb73w4Pyn4H/77qVR6DlhOAJvEsDd5aYGkpOX2H2LWr7MJ5RRwDJhvrtUaLpdftKxVKlwv7QiZ0d2w8tJ8HANNr39JJcMcZXyf2klPuANqQPSK0JupecliVXn+pR/TqeMtEfTno3fMxUXDz5hFkiqVD9s7W94rd3Dn8fh0bMlGwsw2VnVbp+FtqQCwnSWCP95cfUMJCCFSiYH94/XgAAIitPssIP/GwCrJEPrxXdsqYZQwWPN8vyY+yLSlYUhGQ4++2TFzT/RfIWQj5ccJY8/bsDRK9X4TENDi2kO5oijwwLp33/DK7qDJswhGswtEzVN8XJGK8iQG+/wwOxnuS7mbS/z+1d8rNYxYOz8cvxcK+DyOqQu83s1VLBFP8IqHv+IrTUr+z/XoAEthRm+qF2+T3GGTzAWH4tcwx6N2qygOeZdE5SKhk8sOZXGVcUDskQ+oGBBJywtrZ3yLVz+FAbK4yPsQIXvgizUzLpCQJEEEQS+73lFiG4UjX/vVhl6KAdXixRPu9Px+39GY8BWAH+dw3NSlReJCwY7oDrGq/sngWElpOSxQlCgl1u8vYfTwmU/dcKMmDcPiBG61dD/xn0VDHXMwhr3WOA6APjeiSpiCMYf/mvFz7QdFccaqqEwQfH5uA2rvJTfBsK1ZQDl2Pvz7BooKoJNuH1neMfyzipEiBYOLa3/eKmZRtSDsvM3pinWr6Ma+X76crw7CUc00U1jS4qMK0EGpF2Pcbu63TCXimTrvY9DkeC8jzBwJoD9ewrUiyk938cx4fJNV39qjmGg/s1zJPMk9sCn6WHLnx3sL6lNGUPsVhwChSqcIKoA3cTmzE6v55xH98842mKqdYt8vB1Edx3Au6oGzzVOG1gUZq0JSBo9hTbAJUHY+ksPNxYVh/hIp9H+9pkVc2YePEQAlwlsNQuP3oRwoRmFDKz1dPlneoj/Ejs5fpV2dqvlE/+03R+C0GeMao07DgLqw2zoumzmAsBq7rjPPgAhrefBVK+Dx+3VRax/rESrFsXBKz7gS8W/AHf2L3nqPwThE5pg3gTysNIkVLJThd61VTADNexBZAzC5EellYPnB25UIJttF3N2q1jp+YyEFX5L7QcWYeH3Pw0onZXbCx43tLgecL8nboyl8Drb0qo/b7aJH6B9iRLOl3P5wfw1aYP+iW/EQVgf0Ud+TKlaf4fZvwyJA8nJhQRvEdNxGNzzYM31H55q9b9vR7+jxsdX85iBrbsEvTY2S5i4HCxTIvZA7P+hztjYloWPhC8wq8sQn6h139acUZ11TEMTsdUs1LAAsYWJSwWzLQ0AKgPcdNuJUkcP28vNKciIgjtk7RgcUlfSZ57bLBwpTQrwrgvmI6PLbp4QcCSX/n64xTgwZkyEhZ++Q+wEwJ/7lDdCLLqwzuPn9qMBSvoall/4+9k9cO0Wy/P+yPHy85tLm9UHIm3Iwj/3V9NpLuiw+ly8u43bf3UX3W2PsVJwhTluRIBW8tKiWiwdWo3ZvIZMxm9wU+zKGPiyjHdDB3TihcMxR2uqHZGXADM+X0kU7a1w59K7fBjf4IOMrXoBOLlL4lRtnEi9oj+/h/qyagQAsMaKR0OoUqQysDSDqX5pBF5L7uI1EkQc9/uA2LLVWN7WiT2aWGHC5gBUOPsFmRz09WjvC1kTZqbJGeAbnWw6/HiuXhx9EH54rGnI42i4kSc+S9qjRVmQIgylO29LXx8ydlLUyWJIlouAxNT+denYOrVznk4iX7disvWgBW3hFofVVsGABlQwCL47Ww6RgcU+ssi0/Cq48m8L11nJWzmBWM6nn74mUQ17cFOF+Mkmo6574O0JuLdn4+kK1xTcob2+qmqF6BHB71aaLz38RAx59BkwYR9CJlGvnMuNJ/P5kc9cr1eTxPxXKDzGjpYXTXvtFVqnkw446wwdxKHiqA6ronzFkE6eVsyNL4MPZmR+ZtrR3EwCQprgu2u5wu3hAw+UR7PQAMwftrCa5gKoMShVzlcoW5yPMiuN4PMuvSe+I2/Ar4HWVZspUzFtlo2NP2NBcIo85ZVcVF803ysp7UWk/vaiTAYqpcKqI2hA37V2HRYd0pyUtUxMC4lMcaDS9ChYWOwgfIof6ryIr3OoV17pcR9fzN5sK/a86bPOUcEhD52/hrAzfMMZf/7DlgU0hUfWpB/VpfT324YGDJAzIAKpyZ3a7+GRnxLSnwGQluJYFdWnto7tCEid4ht/rfzdUe0XzOSwK7hSH71PLSf3trmVHFwKpt677Q2puwlNfcjX73OAnGpBiTRQehj4aJTX5NoSDKRuH+wTKH9k9+sGM5SfcX8ZL4RXDITtKzcPMvV8MpREyCN6Qu460vapGHSHAST8bx+0vahVzyiizX84ffURe8mdBClFHcI4CiEGAmtl3cS2Njkl1fiT5+8xZ7qTqB4sjYHHeleTVTeCx0Ixb/7tLEE8Dz2xuZpnsCteAR0l3yBQyATYHmMmga1ivkAc/ASZITMlET80A9Zxsf3VQ1O4yEpf59eTiTbdONxFPcHG2vEefol7QXnabM/AKuOgK7ByJu9E23rsNRkHDzSjPK7L2GLtc0ZqrR7dtdJq7f8C+a3Az1Rlmpvjap+842/3LKdKteLWi54oTV8uRPK4EZzY4r31N9MT5L0sDk04s+IENsGG94HloA2hiBOtVYrG4mY6gi13guHkOZ/peXDPQwGVYOTPAZSYmBY5JbH3nMJekqzGd2ePZgZJPi/IRB2P1JsdFznnZuFC2rdsljZG4EKUIM2vhX6hjLwuYwpFFPNWrbwrmUxHKWkf9V349LvIcAyyRYxgV9A4X62BxnOCKllfe87Pzk6c4U0EoEQLnMCrUoncr+nDsatihZELc+O+12PmaYPFttLb5IYnP5li8pmjB5L5PoF+h+oCJFBPsRYVqqcvOSykacYNlfCnaTamC09GcrUwCvvgmZl4qrUd39dONmt/oRMNnAM0xAUDTi3CIfheNqtAcdiqYnlq0FEq96QCP+L1yEz1Ud8/2+eclPaiLtoNHcy4gzCABvkh6TJHCFwKMgAs85bi0YlhoCuxLTTZbAIAweRrF20vahwNj3zmjzZYa18lTYR0cVETDIUHhN+3Al46LXc80jeuORQsJes2uVSz9JVW2Ev+uTs5lr7AiUp5WcFtGfEKMjneKYax/jEFZ6z5hZKbnOo78QPwgzVg9fC+ek3k/rdvliB4lExJYzEAIKXG97NSDWjRKV/GXRQYl76qaiimY4ICMXdr2Jz2gyLglkUzrN5oelX67yq4TkO4c188UVvvisX9J3mloaUqOAGNjwqtqKvWn3PrCQGfh/Af3joBBQVdGRofFECPxMRQgbuBdKC2b34k71GAZtrgseTCS7Qmxx7MJcRpUg4mhGxQbptxMcUkBZqQbHH2u2SUshyOPNoy09/pWwzEB9KBsux0GTmKgzyZHD55s9bt5ESaYGAxgMpocYbP8yl5MOq2yFRwDsHAmS2Kl12Uks7xDW1Uu5mi5X3tq/cF+BLchqNG1lxz65u8qL9z/le1hQ09V5gH/N4h6q8Y8ZW9862zMV2L4cuZ9fEWT7LDjMoyIQsPsB77ArSoicMg8nb+/K1cp1qLjP/q5Hx79ndgPyN9ilVtmFvadTC7hrH5BLH3Tnrw96ALh8kGxIkx8pDk0RWx68bObENT/ba5pV7fpy473biPubMnygGDWqbg11C49X4ZTvbe6PdRSem4Bzc7xOGMZjGWRNNNAjxowxLyuc3V7lGSISdalXaDnal05KrI6HlcnU9fVRzBxvwNpBMLEOxn8eMtHPC9Bk73zssVzDKq33KlV5MnO7MizhLmEt5LOVLcU1VRyTCL148tnkn1wBvyBKuaKUZNBKYpq6l8UvGOBJzevDTbBedLArJTEoBv29HlSaAyEokr4G4KzRksXkmi5sZeNDQbS0GZyGzSgj8xpsEzFauNyRRxfEJcEZXU88HrrBAiBO8HI9jXhLW1FB5HCfVysY5VfnsunOKqc93fCj8l3SVTJkd8pAPSZ38djDEvA4A+mAjCgPb5yjB/41qcg6Pgud5caqivm+1B9iqyBd5dZk2JQM40ErnE6cZi08n7OSrTHStxj89qudmoLB5rb6FihGa878/HQEnROQwDUurfEC4AnwN/NZdxzx2sIbV/Wh4WxVbAUF+zlimA5dHZzx8o/+zLfTZDjqH62WfbfeMlY25HRVE5xK096nWqUvbY0mpLbpKyyKqfU1kIoFfD7HAupOmWGZgEhdlReYY6mpv0/MlpuhbSbHrdqcQk3JEs6jRViXWyeB6SdzZTBKshj3k+m1vLUYhNm6YjWwQfK4jHMvFabaBwk4kn6p3yk7XslUKy3sgzfJh9gdufX65shGq3zeaoV3jaDo/HoEeNL21lauHGHBrtbF9CdQLN18MvbVAinj25YyE71jKEPv4wLM+uAnDsnn9Hk3ppxHezs8x0nf5zvBq7CE5q2AofsU3wrL7Q9JmCmDEfIIRXbC28+KXJ5pv29JmOgSlx1BhbxVg0wfhpKAYb705VBdaHnhpzqQwXj/emn0odH+IunTfHi4+yGYdqD8Gl7qhxN7ohmVVh/tz/5ZAP+whiWJuzLzUxgxyhycbcP8tl5JGjaMiW8KfnvR+4BIExbwZjAZ0fjrlR2jDSal+B7wohilLUPJVPKstQzpn6JKZdZ6U4vE9asvLAtRV/ZCehQbPAC4geWZxlcEbkKRe71YAwG9gdLX2ou5HitXYE6LAUplOtCollH9YoYTTA7ztxLxNCqqvwU06lij0QK36lQ889Y7OGm0cJPTtCPCuHvUT8yemg+Y+HOA5CtsQfeOhGE5MVE4Ojm1LNfpWLUv/QbLyQQNkMKLyqxyitw0s9YgCIxzlfdtZkVMk66Ztqh5hDq3GNb4azJ6qH3smElaf+VmS0UG4ud4tbTCkuGAQltaPoqBH2IkOk2HQ/YKvog8nW48UMfIORQrFJKe7h5+PpheWmnBlkZR4u2y21mlbiEV0B3MZAlgQkNyzC8CLMsuubRklPXuvq4Q15IvkSg0EupNT4Vkv/g+lB9BH0PCcltwDhvv6/oAqQwz1Dm4cTSTeFdHdWyc/oeqKI/5Ay7aOzzQrqDdOrpVxC4xxnaHFC4dGnnbkHFjfX1R4TCjoWfJwa6G2KiSTsw+xxP7xPq+tqQck3lqASzSDRf8E0if8/KjoliVzqlin7JuEUivbMr6ELaxpLLlqNeXb5w2+isgme44KA7XQfNBDMYvradf8QiX6C+dfk1fyO+SDYxW0S2vw9ShyImEq3Mgsc4GgGP3HUfm1841NFNa/rPlLPCMG3h5Nfah6qsta/AR+qPsPTipORUxm2AK3y7fkgtdo0pCeHpKMeQFlABQySVAn/Hf47otD/saPGbgAZSe898fibcr4IxX2m+zJ7QNNo3naJpsdsoZIU1Txp+HsfD+4BM4qXb8lrZyaTDayTXAeDygoWNnwQuynaOqRTbnu8SXI3XngYMCW5yQuSKsXs5hK/y6kDUHQQqyMct6cdT299bvQ6YL8RQdDb6Y6ndnU5M7+DlTHTtkhX7n7lGgqaEn1CfQ0QwPpNRWSjszoClwRQfzrV9mkVFXID7kexbiKEmlS0cpBeKD/NdXcDKdCmdDh6144ru/JgNJLtuZddwb3dYHuPj1TeijP8RnTnf5uI80+9UpRloHMu8pinCAkiLNK/xDlKtboZGyIpFGLt5QD91uuZA/0p87mLZpp+6QVj4w1iGf2+l8HeXFa4mRAWC8xth/EJeSYNfu7IAJOmzwv3mQMb7VFToaghQlrpL9GoqOFiFDr7ZDrLPKNM+meoX+OmYjjzehZo8GR2g4r0oqHvrEffIE2yPUIhwihKadWGu/yBb/Aaivt3Kx7r2BeNDCADI6gnQvndsHpEBLCO1jcEP3askgRkLzeZ48ryBn3SX1GwKk2FWfQs3hirOPxGX0xnQO3A01or3qZQCk3YK7HlGpzVO+CF7mS4ZlgWuKpBsZA+up4v3Nuv0PKRmOHLIcKo9sv/X9WlAnzffCoHfNxgGMNIYnA5GS9zHgKNWrKy/IC4ZuMvsNl1RlHsX2SVKSCUyUCvJ20XwZP7LkXopMKIWBF0wWC+zxOjlNPu3tMivgiMhSNldc0hPv8OZeyoK/ntkd1J74z6FXkpqat3ipzur20BX7kK2Jq0YlB5kzIKddSKU730/OMiqVrpHtb+3Q7QfNQfTOwf0A4SgDx7/PQA1KiRcylckat7XspDQ2tctSGNvMKDRRUha1QfWWzkzcgFrOPyNgf9btvnVjd+qe1RE0HGpSQAcJxztk3RDTYwZlVqwbKDdxaBMeqiyUYMPF8CpjV+my1MTTyW/v9dleFYkj51tfkXSyNP9VZ33htwQFBTIC+5SZkmToWKaGqWnk6fo9GIkdDISZ1n3BBd3Cme60uNVJQcwUgNe3EHvgRx9z1ENwac51AzRXHRrPxllf7I6X82cqAXGbSP8vf7cuWEx8N0go6TvNLSSuKf572JyOc4lQHXX3pGf1lWe/mGu3yIa1nd1dl9maZBXP1tgi92eRRtwL0nGLfT3YTNwRI0aA7fR10NpeB580j1FJqfVAe33owf/W5NJw1bRGcRFDa7AsbT9SQFKU/wR/ENi2oRsVyMY+j+fqznq897JN1vle2bvP4vZOHdRnCYCakLXgdSSWZDQR8x3o5NzkOzjObXHPoP2c0KlLD+xYUbCJW9ScuhT4AZkq7WqmumdhfkMPQ3EAc4HbpuWBmEkvMHdVHE8phW6658TiB+8uaH/9sFEZkQNGcBsfaVEUs8JEZfHzxXTRBQlMDlIAYFSDltcypQoWGu45hGvLIGcDohaDXzYcOu9U5V7N1/u7Mi46YEYqKNUPV78ByBd5rmZ3qCX9mGmTfypytXPxJGaPiwcIdC4/I3KxgKWge44Q48yLxC7iC9HEeE2y7CybKO+dL9QuFR1lQuZSVW/wjMmQI1Zc8oatlxCY91dXU5vkG3i+N+9blqcCdPPUUsCgE5Mlqep0iNT4CTYU4KJ9Z1a7QRpDCxq6EuZFLyAKxQAjemm3HliMibCDgtLKM3iSr32mKJuWL6aL1nOtFBdcGR6yBgToJJdsXKBWflMpNqxU8AvxIjR6j9doH+Br2cNyOSGoNpi2foelJyY3pWb75xST/5QS//StJmXo9RO/qGh1KYcKeC5Axn2ahb2Z0ehgFu8tIVuOkO94vOuZOsA5nYXFyjkrEPYnICd4qA7YVBdBvNUG1z52MB0RRc3sK3Qi/wsyJOpxALF9rui8rorkrdWjnORe01wAARYb5p3zWSSWafwt0ZvZfs00Sd5VPEzwtJT1XnSziQb5tqHj+PTSBpwBvRVqntaVdxvv8vVWKf6m/Fd/3EZxGMsdL3OnYf2806PcJR7ZkZApMpBNlPfxfbvGqBW2zk1knr1Z/VrWDKe0cBFly9wafkXReixHBQZCQ2lgItYHZr4q5AZr1Lh6SR+AEOIMDVgsvnxQ7DlRk7H39sHh+b9ArCh6vYtBlr10SEjZa9qVel7LihoN1que2Qx1ulayW/zyayyTiBvDm93f5aP8P2B//lu0Z2ckxfGZIvitMdXHR7fWn1a8W0ew1YTzs/WIfVZidjt0lCDawlqEwe/Sf3h6XCUdYq57DyPcW4lXPb3IF3Wn6h5PkakJSbDrC67T85WzyDzvMk+y9QYYTyDGw/bdHFoN5oqEFo+d9M2T32lqxxXtZYBi10fdN2XmC2NE1nNXqoAdozEpw5uuLAwbhze1ghZcbH3mVPzbb1SetPwd68QAhWD1ilbBWQOzr/Rp9jAmiNsISQIOFE0WJ9FOIt+al/I5F+3rP0gE+YRhK9uJurwGa4M9kYkz5fZU2H7KkiGnI846cHEUaW3wkQ7xD5uNWTy9kNuTKkXE0q/bef9gORkvSUKRrUPrRQmcDsWzbRVss5CaTjVvppAxrqfw/yBL7uvRSaEU1cV2z63D/5FgzGsNsA3UQfWJl8Q3U5R8OeG9IgbsQmgIrfeG682EjXSxZRg6lzTIHCsKrIT6KxauOE2vCadBZbvKRUWlnjGw+EVXEoOPsNxztVNk80pwO8unDauPAQ+cEASv2m5fbozbe5vwI4oFQaWuGqVYbYkrDL8zzcA1GDEn5wM9sM+k2nnT46ObVW0SYx5Vcu6QYkeSKvOk1Og1rYTrdVRUTNBQj3adMRR2ZRIfH5xolg5GKfQJ0SOsRZRGkvl4ehrLOR8iAuQU1UPDu91FE8nYZu93wpOPeSUpNgL/1HXJwJmcsDQ8QAvCwS3N3RPmbCD05YowLY46Zx6GgQVk+Fzd6uMrS1Bhwd1461ONvYxlzmbZHLM9bJPJXiABr8uYvYo3DzN9BNulf6cbXzVLx4Y/Cpf1Twb2OfY3AFUeQKrD31hvVbZriDehhRzE6TpV6E40/FhPZc0k88X8X0MinWOFkAUF+wHEukASSaoU4zUZQKdjvUR40XYiDVbxxBJFEoFolp7kEpMRu01tsF32YuRFdQ72o+PsqtKz8Br5RtDTDhu4M+1Azyfw0NB2NlN2DaU9jDOYMRifn1EC3s0vcygVfiLkATogH6unZX2LUwzpLSWORaH5kOPJDpb0nxUxyPTolXD5ZLwAADW/DEQjMgaPEWPEmmQMOmaqI9KRI61yLD7B4O6r4qqc11Z18a1irN3aNStyZjTh5x9Bdo3W5lnh8ZfrahKRku9pFWVdT4rbBOrv/reaw/+bfiFhWFFw8z5FuOen8lERbog630PYB3ptNygrw99vtjDIYD62qa5Wx8Eo6Wowfm5pSTCziA6z2g7jmgrUxuPN34Ky+iiC9W6r5UBYjoP6AqukJoZvAAVG0hT9lWDRN8GU0bwjM9SM2EnUSZmob7gPz/dcWimtum3Lcn3YhE5Gon6T3tnxRRmBtt1snkPsCl1wOtvTDfhYcjcrt03gm/WciAGc2lOjXhsH3OC049IGvoWjyVaVnEcZNl7GLsi9+Yi+QOKmNB2fbZ31F0mPTgUnTz8gUjXu80uP3/YPQAAqIPhICLLopF0mcCvgG64dAZ3gWe2qAUmibVsZ2JJ6yGBJATVwb0bevCdZiMBBRn/rv96cu1E4GAVqSNiKxCNki6lwonW9pjO2qEu4sxc0aNLjZvsoB7I4bIvSi0I4qa1bcN2Z+8A3tvr2Pm4XUPRIK+cK/Qd/vQleFWxsj1MF+BM86riq+S2V7tr6mfmooeot4rjHsNRW3vJPUaZPk+bJPNMsV6pj0ULsj3oWE35yKxIuuPJZYSD26467lYK8UjVYquY/dxlCs2M2hterKiVCLO6F4wMUC4AAVH9TM5bk6pR2NIYzPnLWInUm5kJ/uQlGJVw08QrE4UznHDiZXr/Dk36L0Rq4WyRIUqDrn73TCMZ39kRDKwlIx0Ejp6tOL1sruuXfeKVVWdJjJYI/8h1zhNc7WekRbwInIV/5Tfd/RtYc8C/CzxkQkaWbzz/I99EqxwH5JhVKHd8pNmpBx3vU/vxIwXTSTVqsxi80w5vS6wmYWy/SWAbuD5dL9pBtM42e0J8NTny8DF5OOvjZB9aKTMLLfbRNz/X4lLyhwXmUKW+6HMvxgUuDt6PF1DVrLZOQEhhf6BeFP1Focvvs9NEOpnorjuAsg/+T2rl16WEmrgAAjOaCh6e4uhwrZHLvPHiLjU4lGw2Z09zx7leSnwi2GV5giTLsJ2Qzc65XoPqCs/oszZ1GZAh+jyvLOnTMzHkcoEh0uaexFljtzaYqMBgmT6JDQAy7s0dxUMVmvHFBDwsoGh1OtrEYgRzpn6CBUT5Cbhyii3TW+O89JCY/H5jfvr1i2OWzQSsPHe6n2NXzcqyb7lPtebSwL/AAAAAP6edTtIbjlX+Sgf5x3Ldn6245FNPPEps6LSH2uswFjZDuaPNBaDD2k/s8g4sBsDSETzmt4i4pnR2Z0CzqeSiOUe6l2S+BoXMirOcUULlc5Aa1yqM1bMYl+bqf0Wha0yAFiig48KugAAAAAgVW9CrQyzf5FHJhxNg4Lcg5GZ3UOgpSkboX/e3XpxuOdSd1kIr4D3Qyuc/eCqcIbbVdQtEvl6AAAAAAAjBljatbQqb5PE95Tu5MbiiCANB8vspO4+1RW3uAS6I0QzdnsGMYvMWRmXY8w3TgyawWZm0ZwAAAACBFvq9bgqI1R5Hf1gzhldRJ0WGClZUCEhndtAvBCKJMEEGz3EVTsX8XBf7Uh+YvKhEwqjgAAAAAAHuVt11suv0dhk/oW7yAFEJH233gSEDRPGUUid7ML2r6Q8NVoBWIxJ4AAAAAAAhusk7RF3/sNIkm1bYiwNtWIyUY0Sv5UZVNwXFgvmLZiYALkAjnBnihgAAAAAAAC7M02ERBRaoUBRdbXsa/B4H/VPaT4gHGJYkAAAAAAA;" parent="1" vertex="1">
          <mxGeometry x="400" y="270" width="186.67" height="140" as="geometry" />
        </mxCell>
        <mxCell id="21XThDF_EwefMqvhnax9-29" value="" style="endArrow=none;dashed=1;html=1;dashPattern=1 3;strokeWidth=2;rounded=0;entryX=0;entryY=0.5;entryDx=0;entryDy=0;exitX=1;exitY=0.5;exitDx=0;exitDy=0;" parent="1" source="21XThDF_EwefMqvhnax9-4" target="21XThDF_EwefMqvhnax9-27" edge="1">
          <mxGeometry width="50" height="50" relative="1" as="geometry">
            <mxPoint x="170" y="86" as="sourcePoint" />
            <mxPoint x="240" y="60" as="targetPoint" />
          </mxGeometry>
        </mxCell>
        <mxCell id="21XThDF_EwefMqvhnax9-31" value="" style="endArrow=none;dashed=1;html=1;dashPattern=1 3;strokeWidth=2;rounded=0;" parent="1" source="21XThDF_EwefMqvhnax9-8" edge="1">
          <mxGeometry width="50" height="50" relative="1" as="geometry">
            <mxPoint x="-18" y="31" as="sourcePoint" />
            <mxPoint x="68" y="-80" as="targetPoint" />
          </mxGeometry>
        </mxCell>
        <mxCell id="21XThDF_EwefMqvhnax9-35" value="" style="endArrow=none;html=1;rounded=0;curved=1;" parent="1" edge="1">
          <mxGeometry width="50" height="50" relative="1" as="geometry">
            <mxPoint x="-190" y="120" as="sourcePoint" />
            <mxPoint x="810" y="120" as="targetPoint" />
          </mxGeometry>
        </mxCell>
        <mxCell id="21XThDF_EwefMqvhnax9-36" value="&lt;font style=&quot;font-size: 24px;&quot;&gt;Core Server&lt;/font&gt;" style="text;strokeColor=#FFE6CC;align=center;fillColor=#57FF24;html=1;verticalAlign=middle;whiteSpace=wrap;rounded=0;shadow=1;" parent="1" vertex="1">
          <mxGeometry x="-4" y="-310" width="174" height="40" as="geometry" />
        </mxCell>
        <mxCell id="21XThDF_EwefMqvhnax9-37" value="&lt;font style=&quot;font-size: 24px;&quot;&gt;KMS Server&lt;/font&gt;" style="text;strokeColor=#FFE6CC;align=center;fillColor=#57FF24;html=1;verticalAlign=middle;whiteSpace=wrap;rounded=0;shadow=1;" parent="1" vertex="1">
          <mxGeometry x="542.73" y="-310" width="177.27" height="40" as="geometry" />
        </mxCell>
        <mxCell id="21XThDF_EwefMqvhnax9-38" value="&lt;font style=&quot;font-size: 24px;&quot;&gt;Service bureau&lt;/font&gt;" style="text;strokeColor=#FFE6CC;align=center;fillColor=#57FF24;html=1;verticalAlign=middle;whiteSpace=wrap;rounded=0;shadow=1;" parent="1" vertex="1">
          <mxGeometry x="-80" y="170" width="174" height="40" as="geometry" />
        </mxCell>
      </root>
    </mxGraphModel>
  </diagram>
  <diagram id="k4Xrb9GtWKO6-IXjRHnJ" name="CardProApp">
    <mxGraphModel dx="1290" dy="1727" grid="1" gridSize="10" guides="1" tooltips="1" connect="1" arrows="1" fold="1" page="1" pageScale="1" pageWidth="827" pageHeight="1169" math="0" shadow="0">
      <root>
        <mxCell id="0" />
        <mxCell id="1" parent="0" />
        <mxCell id="moSHsTtPuHIbDwc8t7Ak-1" value="" style="edgeStyle=none;rounded=0;orthogonalLoop=1;jettySize=auto;html=1;" edge="1" parent="1" source="fVDOFBkQa3pWeiXS-2Ra-1" target="fVDOFBkQa3pWeiXS-2Ra-3">
          <mxGeometry relative="1" as="geometry" />
        </mxCell>
        <mxCell id="fVDOFBkQa3pWeiXS-2Ra-1" value="Open cardpro" style="ellipse;whiteSpace=wrap;html=1;" vertex="1" parent="1">
          <mxGeometry x="290" y="-50" width="100" height="70" as="geometry" />
        </mxCell>
        <mxCell id="moSHsTtPuHIbDwc8t7Ak-3" value="" style="edgeStyle=none;rounded=0;orthogonalLoop=1;jettySize=auto;html=1;" edge="1" parent="1" source="fVDOFBkQa3pWeiXS-2Ra-2" target="fVDOFBkQa3pWeiXS-2Ra-5">
          <mxGeometry relative="1" as="geometry" />
        </mxCell>
        <mxCell id="fVDOFBkQa3pWeiXS-2Ra-2" value="Generate RSA key &amp;amp; assign to local variable&lt;br&gt;&lt;div style=&quot;background-color:#ffffff;padding:0px 0px 0px 2px;&quot;&gt;&lt;div style=&quot;color: rgb(0, 0, 0); background-color: rgb(255, 255, 255); font-family: &amp;quot;Courier New&amp;quot;; font-size: 10pt;&quot;&gt;&lt;p style=&quot;margin:0;&quot;&gt;RSAKeyPair &lt;span style=&quot;color:#6a3e3e;background-color:#f0d8a8;&quot;&gt;rsaKeyPair&lt;/span&gt;&lt;span style=&quot;color:#000000;&quot;&gt; = &lt;/span&gt;&lt;span style=&quot;color:#0000c0;&quot;&gt;rSAKeyGenerator&lt;/span&gt;&lt;span style=&quot;color:#000000;&quot;&gt;.generateRSAKeys(1024, 3);&lt;br&gt;&lt;/span&gt;&lt;span style=&quot;color:#0000c0;&quot;&gt;rsaPrivKey&lt;/span&gt;&lt;span style=&quot;color:#000000;&quot;&gt; = &lt;/span&gt;&lt;span style=&quot;color:#6a3e3e;background-color:#d4d4d4;&quot;&gt;rsaKeyPair&lt;/span&gt;&lt;span style=&quot;color:#000000;&quot;&gt;.getPrivateKey();&lt;/span&gt;&lt;/p&gt;&lt;p style=&quot;margin:0;&quot;&gt;&lt;span style=&quot;color:#0000c0;&quot;&gt;rsaPublicKey&lt;/span&gt;&lt;span style=&quot;color:#000000;&quot;&gt; = &lt;/span&gt;&lt;span style=&quot;color:#6a3e3e;background-color:#d4d4d4;&quot;&gt;rsaKeyPair&lt;/span&gt;&lt;span style=&quot;color:#000000;&quot;&gt;.getPublicKey();&lt;/span&gt;&lt;/p&gt;&lt;/div&gt;&lt;/div&gt;" style="rounded=1;whiteSpace=wrap;html=1;" vertex="1" parent="1">
          <mxGeometry x="70" y="170" width="540" height="90" as="geometry" />
        </mxCell>
        <mxCell id="moSHsTtPuHIbDwc8t7Ak-2" value="" style="edgeStyle=none;rounded=0;orthogonalLoop=1;jettySize=auto;html=1;" edge="1" parent="1" source="fVDOFBkQa3pWeiXS-2Ra-3" target="fVDOFBkQa3pWeiXS-2Ra-2">
          <mxGeometry relative="1" as="geometry" />
        </mxCell>
        <mxCell id="fVDOFBkQa3pWeiXS-2Ra-3" value="Read configuration data from&lt;br&gt;&lt;div style=&quot;background-color:#ffffff;padding:0px 0px 0px 2px;&quot;&gt;&lt;div style=&quot;color: rgb(0, 0, 0); background-color: rgb(255, 255, 255); font-family: &amp;quot;Courier New&amp;quot;; font-size: 10pt;&quot;&gt;&lt;p style=&quot;background-color:#e8f2fe;margin:0;&quot;&gt;&quot;&lt;i&gt;C:\smartCPSMachine\smartCps.ini&lt;/i&gt;&quot; to get the &quot;&lt;b&gt;SmartCPS WebService&lt;/b&gt;&quot; Host &amp;amp; Port&lt;br&gt;&lt;/p&gt;&lt;/div&gt;&lt;/div&gt;" style="rounded=1;whiteSpace=wrap;html=1;" vertex="1" parent="1">
          <mxGeometry x="180" y="70" width="320" height="80" as="geometry" />
        </mxCell>
        <mxCell id="moSHsTtPuHIbDwc8t7Ak-4" value="" style="edgeStyle=none;rounded=0;orthogonalLoop=1;jettySize=auto;html=1;" edge="1" parent="1" source="fVDOFBkQa3pWeiXS-2Ra-5" target="fVDOFBkQa3pWeiXS-2Ra-6">
          <mxGeometry relative="1" as="geometry" />
        </mxCell>
        <mxCell id="fVDOFBkQa3pWeiXS-2Ra-5" value="&lt;div style=&quot;background-color:#ffffff;padding:0px 0px 0px 2px;&quot;&gt;&lt;div style=&quot;color: rgb(0, 0, 0); background-color: rgb(255, 255, 255); font-family: &amp;quot;Courier New&amp;quot;; font-size: 10pt;&quot;&gt;&lt;p style=&quot;background-color:#e8f2fe;margin:0;&quot;&gt;&lt;span style=&quot;color:#000000;background-color:#ceccf7;&quot;&gt;Get secure object from &lt;br&gt;&lt;/span&gt;&quot;&lt;b&gt;SmartCPS WebService&lt;/b&gt;&quot;&lt;/p&gt;&lt;p style=&quot;background-color:#e8f2fe;margin:0;&quot;&gt;&lt;u&gt;&lt;span style=&quot;color:#000000;background-color:#ceccf7;&quot;&gt;getSecureInfoFromServer()&lt;/span&gt;&lt;span style=&quot;color:#000000;&quot;&gt;;&lt;br&gt;&lt;/span&gt;&lt;/u&gt;&lt;/p&gt;&lt;div style=&quot;background-color:#ffffff;padding:0px 0px 0px 2px;&quot;&gt;&lt;div style=&quot;color: rgb(0, 0, 0); background-color: rgb(255, 255, 255); font-family: &amp;quot;Courier New&amp;quot;; font-size: 10pt;&quot;&gt;&lt;p style=&quot;background-color:#e8f2fe;margin:0;&quot;&gt;&lt;span style=&quot;color:#0000c0;&quot;&gt;secureObject&lt;/span&gt;&lt;span style=&quot;color:#000000;&quot;&gt; = &lt;/span&gt;&lt;span style=&quot;color:#0000c0;&quot;&gt;keyServiceManager&lt;/span&gt;&lt;span style=&quot;color:#000000;&quot;&gt;.getSecureObjectFromServer(&lt;/span&gt;&lt;span style=&quot;color:#0000c0;&quot;&gt;host&lt;/span&gt;&lt;span style=&quot;color:#000000;&quot;&gt;, &lt;/span&gt;&lt;span style=&quot;color:#0000c0;&quot;&gt;port&lt;/span&gt;&lt;span style=&quot;color:#000000;&quot;&gt;, &lt;/span&gt;&lt;span style=&quot;color:#2a00ff;&quot;&gt;&quot;ADMINNETPSINTERN&quot;&lt;/span&gt;&lt;span style=&quot;color:#000000;&quot;&gt;);&lt;/span&gt;&lt;/p&gt;&lt;/div&gt;&lt;/div&gt;&lt;/div&gt;&lt;/div&gt;" style="rounded=1;whiteSpace=wrap;html=1;" vertex="1" parent="1">
          <mxGeometry x="65" y="280" width="550" height="100" as="geometry" />
        </mxCell>
        <mxCell id="moSHsTtPuHIbDwc8t7Ak-5" value="" style="edgeStyle=none;rounded=0;orthogonalLoop=1;jettySize=auto;html=1;" edge="1" parent="1" source="fVDOFBkQa3pWeiXS-2Ra-6" target="fVDOFBkQa3pWeiXS-2Ra-7">
          <mxGeometry relative="1" as="geometry" />
        </mxCell>
        <mxCell id="fVDOFBkQa3pWeiXS-2Ra-6" value="&lt;div style=&quot;background-color:#ffffff;padding:0px 0px 0px 2px;&quot;&gt;&lt;div style=&quot;color: rgb(0, 0, 0); background-color: rgb(255, 255, 255); font-family: &amp;quot;Courier New&amp;quot;; font-size: 10pt;&quot;&gt;&lt;p style=&quot;background-color:#e8f2fe;margin:0;&quot;&gt;&lt;span style=&quot;color:#000000;background-color:#ceccf7;&quot;&gt;Generate session key &lt;br&gt;&lt;/span&gt;&quot;&lt;b&gt;SmartCPS WebService&lt;/b&gt;&quot;&lt;/p&gt;&lt;div style=&quot;background-color:#ffffff;padding:0px 0px 0px 2px;&quot;&gt;&lt;div style=&quot;color: rgb(0, 0, 0); background-color: rgb(255, 255, 255); font-family: &amp;quot;Courier New&amp;quot;; font-size: 10pt;&quot;&gt;&lt;p style=&quot;background-color:#e8f2fe;margin:0;&quot;&gt;generateSessionKey();&lt;br&gt;secretKey&lt;span style=&quot;color:#000000;&quot;&gt; = &lt;/span&gt;&lt;span style=&quot;color:#0000c0;&quot;&gt;sessionKeyManager&lt;/span&gt;&lt;span style=&quot;color:#000000;&quot;&gt;.generateSessionKey();&lt;/span&gt;&lt;/p&gt;&lt;/div&gt;&lt;/div&gt;&lt;p style=&quot;background-color:#e8f2fe;margin:0;&quot;&gt;&lt;/p&gt;&lt;/div&gt;&lt;/div&gt;" style="rounded=1;whiteSpace=wrap;html=1;" vertex="1" parent="1">
          <mxGeometry x="65" y="410" width="550" height="80" as="geometry" />
        </mxCell>
        <mxCell id="fVDOFBkQa3pWeiXS-2Ra-7" value="&lt;div style=&quot;background-color:#ffffff;padding:0px 0px 0px 2px;&quot;&gt;Send session key&lt;span style=&quot;color:#000000;background-color:#ceccf7;&quot;&gt; &lt;/span&gt;&lt;br&gt;&lt;div style=&quot;color: rgb(0, 0, 0); background-color: rgb(255, 255, 255); font-family: &amp;quot;Courier New&amp;quot;; font-size: 10pt;&quot;&gt;&lt;p style=&quot;background-color:#e8f2fe;margin:0;&quot;&gt;&quot;&lt;b&gt;SmartCPS WebService&lt;/b&gt;&quot;&lt;/p&gt;&lt;div style=&quot;background-color:#ffffff;padding:0px 0px 0px 2px;&quot;&gt;&lt;div style=&quot;color: rgb(0, 0, 0); background-color: rgb(255, 255, 255); font-family: &amp;quot;Courier New&amp;quot;; font-size: 10pt;&quot;&gt;&lt;p style=&quot;background-color:#e8f2fe;margin:0;&quot;&gt;sendKeyToServer();&lt;/p&gt;&lt;/div&gt;&lt;/div&gt;&lt;p style=&quot;background-color:#e8f2fe;margin:0;&quot;&gt;&lt;/p&gt;&lt;/div&gt;&lt;/div&gt;" style="rounded=1;whiteSpace=wrap;html=1;" vertex="1" parent="1">
          <mxGeometry x="180" y="540" width="320" height="60" as="geometry" />
        </mxCell>
      </root>
    </mxGraphModel>
  </diagram>
  <diagram id="4xOLkXUqjxxSUK7zsHIS" name="LinkSourceCode">
    <mxGraphModel dx="1290" dy="1727" grid="1" gridSize="10" guides="1" tooltips="1" connect="1" arrows="1" fold="1" page="1" pageScale="1" pageWidth="827" pageHeight="1169" math="0" shadow="0">
      <root>
        <mxCell id="0" />
        <mxCell id="1" parent="0" />
        <mxCell id="Be6e_wfiC9K2RgrHFfrL-1" value="&lt;div align=&quot;left&quot; style=&quot;background-color:#ffffff;padding:0px 0px 0px 2px;&quot;&gt;&lt;div style=&quot;color: rgb(0, 0, 0); background-color: rgb(255, 255, 255); font-family: &amp;quot;Courier New&amp;quot;; font-size: 10pt;&quot;&gt;&lt;p style=&quot;margin:0;&quot;&gt;&lt;span style=&quot;color:#7f0055;font-weight:bold;&quot;&gt;private&lt;/span&gt;&lt;span style=&quot;color:#000000;&quot;&gt; &lt;/span&gt;&lt;span style=&quot;color:#7f0055;font-weight:bold;&quot;&gt;void&lt;/span&gt;&lt;span style=&quot;color:#000000;&quot;&gt; generateSessionKey() {&lt;/span&gt;&lt;/p&gt;&lt;p style=&quot;margin:0;&quot;&gt;&lt;span style=&quot;color:#000000;&quot;&gt;&lt;span style=&quot;white-space: pre;&quot;&gt;&amp;nbsp;&amp;nbsp;&amp;nbsp;&amp;nbsp;&lt;/span&gt;&lt;span style=&quot;white-space: pre;&quot;&gt;&amp;nbsp;&amp;nbsp;&amp;nbsp;&amp;nbsp;&lt;/span&gt;&lt;/span&gt;&lt;span style=&quot;color:#0000c0;font-style:italic;font-weight:bold;&quot;&gt;LOG&lt;/span&gt;&lt;span style=&quot;color:#000000;&quot;&gt;.info(&lt;/span&gt;&lt;span style=&quot;color:#2a00ff;&quot;&gt;&quot;generateSessionKey start &quot;&lt;/span&gt;&lt;span style=&quot;color:#000000;&quot;&gt;);&lt;/span&gt;&lt;/p&gt;&lt;p style=&quot;margin:0;&quot;&gt;&lt;span style=&quot;color:#000000;&quot;&gt;&lt;span style=&quot;white-space: pre;&quot;&gt;&amp;nbsp;&amp;nbsp;&amp;nbsp;&amp;nbsp;&lt;/span&gt;&lt;span style=&quot;white-space: pre;&quot;&gt;&amp;nbsp;&amp;nbsp;&amp;nbsp;&amp;nbsp;&lt;/span&gt;&lt;/span&gt;&lt;span style=&quot;color:#7f0055;font-weight:bold;&quot;&gt;long&lt;/span&gt;&lt;span style=&quot;color:#000000;&quot;&gt; &lt;/span&gt;&lt;span style=&quot;color:#6a3e3e;&quot;&gt;start&lt;/span&gt;&lt;span style=&quot;color:#000000;&quot;&gt; = System.&lt;/span&gt;&lt;span style=&quot;color:#000000;font-style:italic;&quot;&gt;currentTimeMillis&lt;/span&gt;&lt;span style=&quot;color:#000000;&quot;&gt;();&lt;/span&gt;&lt;/p&gt;&lt;p style=&quot;margin:0;&quot;&gt;&lt;span style=&quot;color:#000000;&quot;&gt;&lt;span style=&quot;white-space: pre;&quot;&gt;&amp;nbsp;&amp;nbsp;&amp;nbsp;&amp;nbsp;&lt;/span&gt;&lt;span style=&quot;white-space: pre;&quot;&gt;&amp;nbsp;&amp;nbsp;&amp;nbsp;&amp;nbsp;&lt;/span&gt;&lt;/span&gt;&lt;span style=&quot;color:#7f0055;font-weight:bold;&quot;&gt;byte&lt;/span&gt;&lt;span style=&quot;color:#000000;&quot;&gt;[] &lt;/span&gt;&lt;span style=&quot;color:#6a3e3e;&quot;&gt;secretKey&lt;/span&gt;&lt;span style=&quot;color:#000000;&quot;&gt; = &lt;/span&gt;&lt;span style=&quot;color:#7f0055;font-weight:bold;&quot;&gt;null&lt;/span&gt;&lt;span style=&quot;color:#000000;&quot;&gt;;&lt;/span&gt;&lt;/p&gt;&lt;p style=&quot;margin:0;&quot;&gt;&lt;span style=&quot;color:#000000;&quot;&gt;&lt;span style=&quot;white-space: pre;&quot;&gt;&amp;nbsp;&amp;nbsp;&amp;nbsp;&amp;nbsp;&lt;/span&gt;&lt;span style=&quot;white-space: pre;&quot;&gt;&amp;nbsp;&amp;nbsp;&amp;nbsp;&amp;nbsp;&lt;/span&gt;String &lt;/span&gt;&lt;span style=&quot;color:#6a3e3e;&quot;&gt;kcvSecretKey&lt;/span&gt;&lt;span style=&quot;color:#000000;&quot;&gt; = &lt;/span&gt;&lt;span style=&quot;color:#7f0055;font-weight:bold;&quot;&gt;null&lt;/span&gt;&lt;span style=&quot;color:#000000;&quot;&gt;;&lt;/span&gt;&lt;/p&gt;&lt;p style=&quot;margin:0;&quot;&gt;&lt;span style=&quot;color:#000000;&quot;&gt;&lt;span style=&quot;white-space: pre;&quot;&gt;&amp;nbsp;&amp;nbsp;&amp;nbsp;&amp;nbsp;&lt;/span&gt;&lt;span style=&quot;white-space: pre;&quot;&gt;&amp;nbsp;&amp;nbsp;&amp;nbsp;&amp;nbsp;&lt;/span&gt;&lt;/span&gt;&lt;span style=&quot;color:#7f0055;font-weight:bold;&quot;&gt;try&lt;/span&gt;&lt;span style=&quot;color:#000000;&quot;&gt; {&lt;/span&gt;&lt;/p&gt;&lt;p style=&quot;margin:0;&quot;&gt;&lt;span style=&quot;color:#000000;&quot;&gt;&lt;span style=&quot;white-space: pre;&quot;&gt;&amp;nbsp;&amp;nbsp;&amp;nbsp;&amp;nbsp;&lt;/span&gt;&lt;span style=&quot;white-space: pre;&quot;&gt;&amp;nbsp;&amp;nbsp;&amp;nbsp;&amp;nbsp;&lt;/span&gt;&lt;span style=&quot;white-space: pre;&quot;&gt;&amp;nbsp;&amp;nbsp;&amp;nbsp;&amp;nbsp;&lt;/span&gt;&lt;/span&gt;&lt;span style=&quot;color:#6a3e3e;&quot;&gt;secretKey&lt;/span&gt;&lt;span style=&quot;color:#000000;&quot;&gt; = &lt;/span&gt;&lt;span style=&quot;color:#0000c0;&quot;&gt;sessionKeyManager&lt;/span&gt;&lt;span style=&quot;color:#000000;&quot;&gt;.generateSessionKey();&lt;/span&gt;&lt;/p&gt;&lt;p style=&quot;margin:0;&quot;&gt;&lt;span style=&quot;color:#000000;&quot;&gt;&lt;span style=&quot;white-space: pre;&quot;&gt;&amp;nbsp;&amp;nbsp;&amp;nbsp;&amp;nbsp;&lt;/span&gt;&lt;span style=&quot;white-space: pre;&quot;&gt;&amp;nbsp;&amp;nbsp;&amp;nbsp;&amp;nbsp;&lt;/span&gt;&lt;span style=&quot;white-space: pre;&quot;&gt;&amp;nbsp;&amp;nbsp;&amp;nbsp;&amp;nbsp;&lt;/span&gt;&lt;/span&gt;&lt;span style=&quot;color:#6a3e3e;&quot;&gt;kcvSecretKey&lt;/span&gt;&lt;span style=&quot;color:#000000;&quot;&gt; = &lt;/span&gt;&lt;span style=&quot;color:#0000c0;&quot;&gt;sessionKeyManager&lt;/span&gt;&lt;span style=&quot;color:#000000;&quot;&gt;.calculateKcv(&lt;/span&gt;&lt;span style=&quot;color:#6a3e3e;&quot;&gt;secretKey&lt;/span&gt;&lt;span style=&quot;color:#000000;&quot;&gt;);&lt;/span&gt;&lt;/p&gt;&lt;p style=&quot;margin:0;&quot;&gt;&lt;span style=&quot;color:#000000;&quot;&gt;&lt;span style=&quot;white-space: pre;&quot;&gt;&amp;nbsp;&amp;nbsp;&amp;nbsp;&amp;nbsp;&lt;/span&gt;&lt;span style=&quot;white-space: pre;&quot;&gt;&amp;nbsp;&amp;nbsp;&amp;nbsp;&amp;nbsp;&lt;/span&gt;} &lt;/span&gt;&lt;span style=&quot;color:#7f0055;font-weight:bold;&quot;&gt;catch&lt;/span&gt;&lt;span style=&quot;color:#000000;&quot;&gt; (NoSuchAlgorithmException &lt;/span&gt;&lt;span style=&quot;color:#6a3e3e;&quot;&gt;e2&lt;/span&gt;&lt;span style=&quot;color:#000000;&quot;&gt;) {&lt;/span&gt;&lt;/p&gt;&lt;p style=&quot;margin:0;&quot;&gt;&lt;span style=&quot;color:#000000;&quot;&gt;&lt;span style=&quot;white-space: pre;&quot;&gt;&amp;nbsp;&amp;nbsp;&amp;nbsp;&amp;nbsp;&lt;/span&gt;&lt;span style=&quot;white-space: pre;&quot;&gt;&amp;nbsp;&amp;nbsp;&amp;nbsp;&amp;nbsp;&lt;/span&gt;&lt;span style=&quot;white-space: pre;&quot;&gt;&amp;nbsp;&amp;nbsp;&amp;nbsp;&amp;nbsp;&lt;/span&gt;showError(&lt;/span&gt;&lt;span style=&quot;color:#2a00ff;&quot;&gt;&quot;Error while generate session key, please try again&quot;&lt;/span&gt;&lt;span style=&quot;color:#000000;&quot;&gt;);&lt;/span&gt;&lt;/p&gt;&lt;p style=&quot;margin:0;&quot;&gt;&lt;span style=&quot;color:#000000;&quot;&gt;&lt;span style=&quot;white-space: pre;&quot;&gt;&amp;nbsp;&amp;nbsp;&amp;nbsp;&amp;nbsp;&lt;/span&gt;&lt;span style=&quot;white-space: pre;&quot;&gt;&amp;nbsp;&amp;nbsp;&amp;nbsp;&amp;nbsp;&lt;/span&gt;&lt;span style=&quot;white-space: pre;&quot;&gt;&amp;nbsp;&amp;nbsp;&amp;nbsp;&amp;nbsp;&lt;/span&gt;&lt;/span&gt;&lt;span style=&quot;color:#0000c0;font-style:italic;font-weight:bold;&quot;&gt;LOG&lt;/span&gt;&lt;span style=&quot;color:#000000;&quot;&gt;.error(&lt;/span&gt;&lt;span style=&quot;color:#2a00ff;&quot;&gt;&quot;Exception  while generateSessionKey &quot;&lt;/span&gt;&lt;span style=&quot;color:#000000;&quot;&gt;, &lt;/span&gt;&lt;span style=&quot;color:#6a3e3e;&quot;&gt;e2&lt;/span&gt;&lt;span style=&quot;color:#000000;&quot;&gt;);&lt;/span&gt;&lt;/p&gt;&lt;p style=&quot;margin:0;&quot;&gt;&lt;span style=&quot;color:#000000;&quot;&gt;&lt;span style=&quot;white-space: pre;&quot;&gt;&amp;nbsp;&amp;nbsp;&amp;nbsp;&amp;nbsp;&lt;/span&gt;&lt;span style=&quot;white-space: pre;&quot;&gt;&amp;nbsp;&amp;nbsp;&amp;nbsp;&amp;nbsp;&lt;/span&gt;&lt;span style=&quot;white-space: pre;&quot;&gt;&amp;nbsp;&amp;nbsp;&amp;nbsp;&amp;nbsp;&lt;/span&gt;&lt;/span&gt;&lt;span style=&quot;color:#7f0055;font-weight:bold;&quot;&gt;return&lt;/span&gt;&lt;span style=&quot;color:#000000;&quot;&gt;;&lt;/span&gt;&lt;/p&gt;&lt;p style=&quot;margin:0;&quot;&gt;&lt;span style=&quot;color:#000000;&quot;&gt;&lt;span style=&quot;white-space: pre;&quot;&gt;&amp;nbsp;&amp;nbsp;&amp;nbsp;&amp;nbsp;&lt;/span&gt;&lt;span style=&quot;white-space: pre;&quot;&gt;&amp;nbsp;&amp;nbsp;&amp;nbsp;&amp;nbsp;&lt;/span&gt;}&lt;/span&gt;&lt;/p&gt;&lt;p style=&quot;margin:0;&quot;&gt;&lt;span style=&quot;color:#000000;&quot;&gt;&lt;span style=&quot;white-space: pre;&quot;&gt;&amp;nbsp;&amp;nbsp;&amp;nbsp;&amp;nbsp;&lt;/span&gt;&lt;span style=&quot;white-space: pre;&quot;&gt;&amp;nbsp;&amp;nbsp;&amp;nbsp;&amp;nbsp;&lt;/span&gt;&lt;/span&gt;&lt;span style=&quot;color:#0000c0;&quot;&gt;keySession&lt;/span&gt;&lt;span style=&quot;color:#000000;&quot;&gt; = &lt;/span&gt;&lt;span style=&quot;color:#0000c0;&quot;&gt;toolsWin&lt;/span&gt;&lt;span style=&quot;color:#000000;&quot;&gt;.byteArray2hexString(&lt;/span&gt;&lt;span style=&quot;color:#6a3e3e;&quot;&gt;secretKey&lt;/span&gt;&lt;span style=&quot;color:#000000;&quot;&gt;).toUpperCase();&lt;/span&gt;&lt;/p&gt;&lt;p style=&quot;margin:0;&quot;&gt;&lt;span style=&quot;color:#000000;&quot;&gt;&lt;span style=&quot;white-space: pre;&quot;&gt;&amp;nbsp;&amp;nbsp;&amp;nbsp;&amp;nbsp;&lt;/span&gt;&lt;span style=&quot;white-space: pre;&quot;&gt;&amp;nbsp;&amp;nbsp;&amp;nbsp;&amp;nbsp;&lt;/span&gt;&lt;/span&gt;&lt;span style=&quot;color:#7f0055;font-weight:bold;&quot;&gt;if&lt;/span&gt;&lt;span style=&quot;color:#000000;&quot;&gt; (&lt;/span&gt;&lt;span style=&quot;color:#0000c0;&quot;&gt;secureObject&lt;/span&gt;&lt;span style=&quot;color:#000000;&quot;&gt; != &lt;/span&gt;&lt;span style=&quot;color:#7f0055;font-weight:bold;&quot;&gt;null&lt;/span&gt;&lt;span style=&quot;color:#000000;&quot;&gt;) {&lt;/span&gt;&lt;/p&gt;&lt;p style=&quot;margin:0;&quot;&gt;&lt;span style=&quot;color:#000000;&quot;&gt;&lt;span style=&quot;white-space: pre;&quot;&gt;&amp;nbsp;&amp;nbsp;&amp;nbsp;&amp;nbsp;&lt;/span&gt;&lt;span style=&quot;white-space: pre;&quot;&gt;&amp;nbsp;&amp;nbsp;&amp;nbsp;&amp;nbsp;&lt;/span&gt;&lt;span style=&quot;white-space: pre;&quot;&gt;&amp;nbsp;&amp;nbsp;&amp;nbsp;&amp;nbsp;&lt;/span&gt;&lt;/span&gt;&lt;span style=&quot;color:#0000c0;&quot;&gt;secureObject&lt;/span&gt;&lt;span style=&quot;color:#000000;&quot;&gt;.setKcv(&lt;/span&gt;&lt;span style=&quot;color:#6a3e3e;&quot;&gt;kcvSecretKey&lt;/span&gt;&lt;span style=&quot;color:#000000;&quot;&gt;);&lt;/span&gt;&lt;/p&gt;&lt;p style=&quot;margin:0;&quot;&gt;&lt;span style=&quot;color:#000000;&quot;&gt;&lt;span style=&quot;white-space: pre;&quot;&gt;&amp;nbsp;&amp;nbsp;&amp;nbsp;&amp;nbsp;&lt;/span&gt;&lt;span style=&quot;white-space: pre;&quot;&gt;&amp;nbsp;&amp;nbsp;&amp;nbsp;&amp;nbsp;&lt;/span&gt;}&lt;/span&gt;&lt;/p&gt;&lt;p style=&quot;margin:0;&quot;&gt;&lt;span style=&quot;color:#000000;&quot;&gt;&lt;span style=&quot;white-space: pre;&quot;&gt;&amp;nbsp;&amp;nbsp;&amp;nbsp;&amp;nbsp;&lt;/span&gt;&lt;span style=&quot;white-space: pre;&quot;&gt;&amp;nbsp;&amp;nbsp;&amp;nbsp;&amp;nbsp;&lt;/span&gt;&lt;/span&gt;&lt;span style=&quot;color:#0000c0;font-style:italic;font-weight:bold;&quot;&gt;LOG&lt;/span&gt;&lt;span style=&quot;color:#000000;&quot;&gt;.info(&lt;/span&gt;&lt;span style=&quot;color:#2a00ff;&quot;&gt;&quot;generateSessionKey end in &quot;&lt;/span&gt;&lt;span style=&quot;color:#000000;&quot;&gt; + (System.&lt;/span&gt;&lt;span style=&quot;color:#000000;font-style:italic;&quot;&gt;currentTimeMillis&lt;/span&gt;&lt;span style=&quot;color:#000000;&quot;&gt;() - &lt;/span&gt;&lt;span style=&quot;color:#6a3e3e;&quot;&gt;start&lt;/span&gt;&lt;span style=&quot;color:#000000;&quot;&gt;));&lt;/span&gt;&lt;/p&gt;&lt;p style=&quot;margin:0;&quot;&gt;&lt;span style=&quot;color:#000000;&quot;&gt;&lt;span style=&quot;white-space: pre;&quot;&gt;&amp;nbsp;&amp;nbsp;&amp;nbsp;&amp;nbsp;&lt;/span&gt;}&lt;/span&gt;&lt;/p&gt;&lt;/div&gt;&lt;/div&gt;" style="rounded=0;whiteSpace=wrap;html=1;align=left;" vertex="1" parent="1">
          <mxGeometry x="150" y="90" width="660" height="340" as="geometry" />
        </mxCell>
        <mxCell id="Be6e_wfiC9K2RgrHFfrL-2" value="&lt;div align=&quot;left&quot; style=&quot;background-color:#ffffff;padding:0px 0px 0px 2px;&quot;&gt;&lt;div style=&quot;color: rgb(0, 0, 0); background-color: rgb(255, 255, 255); font-family: &amp;quot;Courier New&amp;quot;; font-size: 10pt;&quot;&gt;&lt;p style=&quot;margin:0;&quot;&gt;&lt;span style=&quot;color:#7f0055;font-weight:bold;&quot;&gt;private&lt;/span&gt;&lt;span style=&quot;color:#000000;&quot;&gt; &lt;/span&gt;&lt;span style=&quot;color:#7f0055;font-weight:bold;&quot;&gt;void&lt;/span&gt;&lt;span style=&quot;color:#000000;&quot;&gt; readInitFile() &lt;/span&gt;&lt;span style=&quot;color:#7f0055;font-weight:bold;&quot;&gt;throws&lt;/span&gt;&lt;span style=&quot;color:#000000;&quot;&gt; InvalidFileFormatException, IOException {&lt;/span&gt;&lt;/p&gt;&lt;p style=&quot;margin:0;&quot;&gt;&lt;span style=&quot;color:#000000;&quot;&gt;&lt;span style=&quot;white-space: pre;&quot;&gt;&amp;nbsp;&amp;nbsp;&amp;nbsp;&amp;nbsp;&lt;/span&gt;&lt;span style=&quot;white-space: pre;&quot;&gt;&amp;nbsp;&amp;nbsp;&amp;nbsp;&amp;nbsp;&lt;/span&gt;&lt;/span&gt;&lt;span style=&quot;color:#0000c0;font-style:italic;font-weight:bold;&quot;&gt;LOG&lt;/span&gt;&lt;span style=&quot;color:#000000;&quot;&gt;.info(&lt;/span&gt;&lt;span style=&quot;color:#2a00ff;&quot;&gt;&quot;readInitFile start &quot;&lt;/span&gt;&lt;span style=&quot;color:#000000;&quot;&gt;);&lt;/span&gt;&lt;/p&gt;&lt;p style=&quot;margin:0;&quot;&gt;&lt;span style=&quot;color:#000000;&quot;&gt;&lt;span style=&quot;white-space: pre;&quot;&gt;&amp;nbsp;&amp;nbsp;&amp;nbsp;&amp;nbsp;&lt;/span&gt;&lt;span style=&quot;white-space: pre;&quot;&gt;&amp;nbsp;&amp;nbsp;&amp;nbsp;&amp;nbsp;&lt;/span&gt;&lt;/span&gt;&lt;span style=&quot;color:#7f0055;font-weight:bold;&quot;&gt;long&lt;/span&gt;&lt;span style=&quot;color:#000000;&quot;&gt; &lt;/span&gt;&lt;span style=&quot;color:#6a3e3e;&quot;&gt;start&lt;/span&gt;&lt;span style=&quot;color:#000000;&quot;&gt; = System.&lt;/span&gt;&lt;span style=&quot;color:#000000;font-style:italic;&quot;&gt;currentTimeMillis&lt;/span&gt;&lt;span style=&quot;color:#000000;&quot;&gt;();&lt;/span&gt;&lt;/p&gt;&lt;p style=&quot;margin:0;&quot;&gt;&lt;span style=&quot;color:#000000;&quot;&gt;&lt;span style=&quot;white-space: pre;&quot;&gt;&amp;nbsp;&amp;nbsp;&amp;nbsp;&amp;nbsp;&lt;/span&gt;&lt;span style=&quot;white-space: pre;&quot;&gt;&amp;nbsp;&amp;nbsp;&amp;nbsp;&amp;nbsp;&lt;/span&gt;Ini &lt;/span&gt;&lt;span style=&quot;color:#6a3e3e;&quot;&gt;ini&lt;/span&gt;&lt;span style=&quot;color:#000000;&quot;&gt; = &lt;/span&gt;&lt;span style=&quot;color:#7f0055;font-weight:bold;&quot;&gt;new&lt;/span&gt;&lt;span style=&quot;color:#000000;&quot;&gt; Ini(&lt;/span&gt;&lt;span style=&quot;color:#7f0055;font-weight:bold;&quot;&gt;new&lt;/span&gt;&lt;span style=&quot;color:#000000;&quot;&gt; File(&lt;/span&gt;&lt;span style=&quot;color:#2a00ff;&quot;&gt;&quot;C:\\smartCPSMachine\\smartCps.ini&quot;&lt;/span&gt;&lt;span style=&quot;color:#000000;&quot;&gt;));&lt;/span&gt;&lt;/p&gt;&lt;p style=&quot;margin:0;&quot;&gt;&lt;span style=&quot;color:#000000;&quot;&gt;&lt;span style=&quot;white-space: pre;&quot;&gt;&amp;nbsp;&amp;nbsp;&amp;nbsp;&amp;nbsp;&lt;/span&gt;&lt;span style=&quot;white-space: pre;&quot;&gt;&amp;nbsp;&amp;nbsp;&amp;nbsp;&amp;nbsp;&lt;/span&gt;&lt;/span&gt;&lt;span style=&quot;color:#0000c0;&quot;&gt;host&lt;/span&gt;&lt;span style=&quot;color:#000000;&quot;&gt; = &lt;/span&gt;&lt;span style=&quot;color:#6a3e3e;&quot;&gt;ini&lt;/span&gt;&lt;span style=&quot;color:#000000;&quot;&gt;.get(&lt;/span&gt;&lt;span style=&quot;color:#2a00ff;&quot;&gt;&quot;server&quot;&lt;/span&gt;&lt;span style=&quot;color:#000000;&quot;&gt;, &lt;/span&gt;&lt;span style=&quot;color:#2a00ff;&quot;&gt;&quot;host&quot;&lt;/span&gt;&lt;span style=&quot;color:#000000;&quot;&gt;, String.&lt;/span&gt;&lt;span style=&quot;color:#7f0055;font-weight:bold;&quot;&gt;class&lt;/span&gt;&lt;span style=&quot;color:#000000;&quot;&gt;);&lt;/span&gt;&lt;/p&gt;&lt;p style=&quot;margin:0;&quot;&gt;&lt;span style=&quot;color:#000000;&quot;&gt;&lt;span style=&quot;white-space: pre;&quot;&gt;&amp;nbsp;&amp;nbsp;&amp;nbsp;&amp;nbsp;&lt;/span&gt;&lt;span style=&quot;white-space: pre;&quot;&gt;&amp;nbsp;&amp;nbsp;&amp;nbsp;&amp;nbsp;&lt;/span&gt;&lt;/span&gt;&lt;span style=&quot;color:#0000c0;&quot;&gt;port&lt;/span&gt;&lt;span style=&quot;color:#000000;&quot;&gt; = &lt;/span&gt;&lt;span style=&quot;color:#6a3e3e;&quot;&gt;ini&lt;/span&gt;&lt;span style=&quot;color:#000000;&quot;&gt;.get(&lt;/span&gt;&lt;span style=&quot;color:#2a00ff;&quot;&gt;&quot;server&quot;&lt;/span&gt;&lt;span style=&quot;color:#000000;&quot;&gt;, &lt;/span&gt;&lt;span style=&quot;color:#2a00ff;&quot;&gt;&quot;port&quot;&lt;/span&gt;&lt;span style=&quot;color:#000000;&quot;&gt;, &lt;/span&gt;&lt;span style=&quot;color:#7f0055;font-weight:bold;&quot;&gt;int&lt;/span&gt;&lt;span style=&quot;color:#000000;&quot;&gt;.&lt;/span&gt;&lt;span style=&quot;color:#7f0055;font-weight:bold;&quot;&gt;class&lt;/span&gt;&lt;span style=&quot;color:#000000;&quot;&gt;);&lt;/span&gt;&lt;/p&gt;&lt;p style=&quot;margin:0;&quot;&gt;&lt;span style=&quot;color:#000000;&quot;&gt;&lt;span style=&quot;white-space: pre;&quot;&gt;&amp;nbsp;&amp;nbsp;&amp;nbsp;&amp;nbsp;&lt;/span&gt;&lt;span style=&quot;white-space: pre;&quot;&gt;&amp;nbsp;&amp;nbsp;&amp;nbsp;&amp;nbsp;&lt;/span&gt;&lt;/span&gt;&lt;span style=&quot;color:#0000c0;&quot;&gt;debug&lt;/span&gt;&lt;span style=&quot;color:#000000;&quot;&gt; = &lt;/span&gt;&lt;span style=&quot;color:#6a3e3e;&quot;&gt;ini&lt;/span&gt;&lt;span style=&quot;color:#000000;&quot;&gt;.get(&lt;/span&gt;&lt;span style=&quot;color:#2a00ff;&quot;&gt;&quot;debug&quot;&lt;/span&gt;&lt;span style=&quot;color:#000000;&quot;&gt;, &lt;/span&gt;&lt;span style=&quot;color:#2a00ff;&quot;&gt;&quot;apdu&quot;&lt;/span&gt;&lt;span style=&quot;color:#000000;&quot;&gt;, &lt;/span&gt;&lt;span style=&quot;color:#7f0055;font-weight:bold;&quot;&gt;boolean&lt;/span&gt;&lt;span style=&quot;color:#000000;&quot;&gt;.&lt;/span&gt;&lt;span style=&quot;color:#7f0055;font-weight:bold;&quot;&gt;class&lt;/span&gt;&lt;span style=&quot;color:#000000;&quot;&gt;);&lt;/span&gt;&lt;/p&gt;&lt;p style=&quot;margin:0;&quot;&gt;&lt;span style=&quot;color:#000000;&quot;&gt;&lt;span style=&quot;white-space: pre;&quot;&gt;&amp;nbsp;&amp;nbsp;&amp;nbsp;&amp;nbsp;&lt;/span&gt;&lt;span style=&quot;white-space: pre;&quot;&gt;&amp;nbsp;&amp;nbsp;&amp;nbsp;&amp;nbsp;&lt;/span&gt;&lt;/span&gt;&lt;span style=&quot;color:#0000c0;font-style:italic;font-weight:bold;&quot;&gt;LOG&lt;/span&gt;&lt;span style=&quot;color:#000000;&quot;&gt;.info(&lt;/span&gt;&lt;span style=&quot;color:#2a00ff;&quot;&gt;&quot;readInitFile end in &quot;&lt;/span&gt;&lt;span style=&quot;color:#000000;&quot;&gt; + (System.&lt;/span&gt;&lt;span style=&quot;color:#000000;font-style:italic;&quot;&gt;currentTimeMillis&lt;/span&gt;&lt;span style=&quot;color:#000000;&quot;&gt;() - &lt;/span&gt;&lt;span style=&quot;color:#6a3e3e;&quot;&gt;start&lt;/span&gt;&lt;span style=&quot;color:#000000;&quot;&gt;));&lt;/span&gt;&lt;/p&gt;&lt;p style=&quot;margin:0;&quot;&gt;&lt;span style=&quot;color:#3f7f5f;&quot;&gt;//&lt;span style=&quot;white-space: pre;&quot;&gt;&amp;nbsp;&amp;nbsp;&amp;nbsp;&amp;nbsp;&lt;/span&gt;&lt;span style=&quot;white-space: pre;&quot;&gt;&amp;nbsp;&amp;nbsp;&amp;nbsp;&amp;nbsp;&lt;/span&gt;System.out.println(host + &quot;:&quot; + port);&lt;/span&gt;&lt;/p&gt;&lt;p style=&quot;margin:0;&quot;&gt;&lt;span style=&quot;color:#000000;&quot;&gt;&lt;span style=&quot;white-space: pre;&quot;&gt;&amp;nbsp;&amp;nbsp;&amp;nbsp;&amp;nbsp;&lt;/span&gt;}&lt;/span&gt;&lt;/p&gt;&lt;/div&gt;&lt;/div&gt;" style="rounded=0;whiteSpace=wrap;html=1;align=left;" vertex="1" parent="1">
          <mxGeometry x="150" y="-110" width="660" height="180" as="geometry" />
        </mxCell>
      </root>
    </mxGraphModel>
  </diagram>
  <diagram id="7zHdJFtPQRgk1eJ6uRzq" name="getSecureInfoFromServer()">
    <mxGraphModel dx="1290" dy="1727" grid="1" gridSize="10" guides="1" tooltips="1" connect="1" arrows="1" fold="1" page="1" pageScale="1" pageWidth="827" pageHeight="1169" math="0" shadow="0">
      <root>
        <mxCell id="0" />
        <mxCell id="1" parent="0" />
        <mxCell id="rlcUizO64rogbMwxKV7o-1" value="&lt;div align=&quot;left&quot; style=&quot;background-color:#ffffff;padding:0px 0px 0px 2px;&quot;&gt;&lt;div style=&quot;color: rgb(0, 0, 0); background-color: rgb(255, 255, 255); font-family: &amp;quot;Courier New&amp;quot;; font-size: 10pt;&quot;&gt;&lt;p style=&quot;margin:0;&quot;&gt;&lt;span style=&quot;color:#7f0055;font-weight:bold;&quot;&gt;public&lt;/span&gt;&lt;span style=&quot;color:#000000;&quot;&gt; SecureObject &lt;/span&gt;&lt;span style=&quot;color:#000000;background-color:#d4d4d4;&quot;&gt;getSecureObjectFromServer&lt;/span&gt;&lt;span style=&quot;color:#000000;&quot;&gt;(String &lt;/span&gt;&lt;span style=&quot;color:#6a3e3e;&quot;&gt;host&lt;/span&gt;&lt;span style=&quot;color:#000000;&quot;&gt;, &lt;/span&gt;&lt;span style=&quot;color:#7f0055;font-weight:bold;&quot;&gt;int&lt;/span&gt;&lt;span style=&quot;color:#000000;&quot;&gt; &lt;/span&gt;&lt;span style=&quot;color:#6a3e3e;&quot;&gt;port&lt;/span&gt;&lt;span style=&quot;color:#000000;&quot;&gt;, String &lt;/span&gt;&lt;span style=&quot;color:#6a3e3e;&quot;&gt;name&lt;/span&gt;&lt;span style=&quot;color:#000000;&quot;&gt;)&lt;/span&gt;&lt;/p&gt;&lt;p style=&quot;margin:0;&quot;&gt;&lt;span style=&quot;color:#000000;&quot;&gt;&lt;span style=&quot;white-space: pre;&quot;&gt;&amp;nbsp;&amp;nbsp;&amp;nbsp;&amp;nbsp;&lt;/span&gt;&lt;span style=&quot;white-space: pre;&quot;&gt;&amp;nbsp;&amp;nbsp;&amp;nbsp;&amp;nbsp;&lt;/span&gt;&lt;span style=&quot;white-space: pre;&quot;&gt;&amp;nbsp;&amp;nbsp;&amp;nbsp;&amp;nbsp;&lt;/span&gt;&lt;/span&gt;&lt;span style=&quot;color:#7f0055;font-weight:bold;&quot;&gt;throws&lt;/span&gt;&lt;span style=&quot;color:#000000;&quot;&gt; ClientProtocolException, IllegalArgumentException,&lt;/span&gt;&lt;/p&gt;&lt;p style=&quot;margin:0;&quot;&gt;&lt;span style=&quot;color:#000000;&quot;&gt;&lt;span style=&quot;white-space: pre;&quot;&gt;&amp;nbsp;&amp;nbsp;&amp;nbsp;&amp;nbsp;&lt;/span&gt;&lt;span style=&quot;white-space: pre;&quot;&gt;&amp;nbsp;&amp;nbsp;&amp;nbsp;&amp;nbsp;&lt;/span&gt;&lt;span style=&quot;white-space: pre;&quot;&gt;&amp;nbsp;&amp;nbsp;&amp;nbsp;&amp;nbsp;&lt;/span&gt;UnsupportedEncodingException, IOException, Exception {&lt;/span&gt;&lt;/p&gt;&lt;p style=&quot;margin:0;&quot;&gt;&lt;span style=&quot;color:#000000;&quot;&gt;&lt;span style=&quot;white-space: pre;&quot;&gt;&amp;nbsp;&amp;nbsp;&amp;nbsp;&amp;nbsp;&lt;/span&gt;&lt;span style=&quot;white-space: pre;&quot;&gt;&amp;nbsp;&amp;nbsp;&amp;nbsp;&amp;nbsp;&lt;/span&gt;DefaultHttpClient &lt;/span&gt;&lt;span style=&quot;color:#6a3e3e;&quot;&gt;httpClient&lt;/span&gt;&lt;span style=&quot;color:#000000;&quot;&gt; = &lt;/span&gt;&lt;span style=&quot;color:#7f0055;font-weight:bold;&quot;&gt;new&lt;/span&gt;&lt;span style=&quot;color:#000000;&quot;&gt; DefaultHttpClient();&lt;/span&gt;&lt;/p&gt;&lt;p style=&quot;margin:0;&quot;&gt;&lt;span style=&quot;color:#000000;&quot;&gt;&lt;span style=&quot;white-space: pre;&quot;&gt;&amp;nbsp;&amp;nbsp;&amp;nbsp;&amp;nbsp;&lt;/span&gt;&lt;span style=&quot;white-space: pre;&quot;&gt;&amp;nbsp;&amp;nbsp;&amp;nbsp;&amp;nbsp;&lt;/span&gt;String &lt;/span&gt;&lt;span style=&quot;color:#6a3e3e;&quot;&gt;url&lt;/span&gt;&lt;span style=&quot;color:#000000;&quot;&gt; = &lt;/span&gt;&lt;span style=&quot;color:#2a00ff;&quot;&gt;&quot;http://&quot;&lt;/span&gt;&lt;span style=&quot;color:#000000;&quot;&gt; + &lt;/span&gt;&lt;span style=&quot;color:#6a3e3e;&quot;&gt;host&lt;/span&gt;&lt;span style=&quot;color:#000000;&quot;&gt; + &lt;/span&gt;&lt;span style=&quot;color:#2a00ff;&quot;&gt;&quot;:&quot;&lt;/span&gt;&lt;span style=&quot;color:#000000;&quot;&gt; + &lt;/span&gt;&lt;span style=&quot;color:#6a3e3e;&quot;&gt;port&lt;/span&gt;&lt;span style=&quot;color:#000000;&quot;&gt; + &lt;/span&gt;&lt;span style=&quot;color:#2a00ff;&quot;&gt;&quot;/SmartCpsWebService/getSecureObject/&quot;&lt;/span&gt;&lt;span style=&quot;color:#000000;&quot;&gt; + &lt;/span&gt;&lt;span style=&quot;color:#6a3e3e;&quot;&gt;name&lt;/span&gt;&lt;span style=&quot;color:#000000;&quot;&gt;;&lt;/span&gt;&lt;/p&gt;&lt;p style=&quot;margin:0;&quot;&gt;&lt;span style=&quot;color:#000000;&quot;&gt;&lt;span style=&quot;white-space: pre;&quot;&gt;&amp;nbsp;&amp;nbsp;&amp;nbsp;&amp;nbsp;&lt;/span&gt;&lt;span style=&quot;white-space: pre;&quot;&gt;&amp;nbsp;&amp;nbsp;&amp;nbsp;&amp;nbsp;&lt;/span&gt;&lt;/span&gt;&lt;span style=&quot;color:#6a3e3e;&quot;&gt;url&lt;/span&gt;&lt;span style=&quot;color:#000000;&quot;&gt; = &lt;/span&gt;&lt;span style=&quot;color:#6a3e3e;&quot;&gt;url&lt;/span&gt;&lt;span style=&quot;color:#000000;&quot;&gt;.replaceAll(&lt;/span&gt;&lt;span style=&quot;color:#2a00ff;&quot;&gt;&quot; &quot;&lt;/span&gt;&lt;span style=&quot;color:#000000;&quot;&gt;, &lt;/span&gt;&lt;span style=&quot;color:#2a00ff;&quot;&gt;&quot;%20&quot;&lt;/span&gt;&lt;span style=&quot;color:#000000;&quot;&gt;);&lt;/span&gt;&lt;/p&gt;&lt;p style=&quot;margin:0;&quot;&gt;&lt;span style=&quot;color:#000000;&quot;&gt;&lt;span style=&quot;white-space: pre;&quot;&gt;&amp;nbsp;&amp;nbsp;&amp;nbsp;&amp;nbsp;&lt;/span&gt;&lt;span style=&quot;white-space: pre;&quot;&gt;&amp;nbsp;&amp;nbsp;&amp;nbsp;&amp;nbsp;&lt;/span&gt;HttpGet &lt;/span&gt;&lt;span style=&quot;color:#6a3e3e;&quot;&gt;getRequest&lt;/span&gt;&lt;span style=&quot;color:#000000;&quot;&gt; = &lt;/span&gt;&lt;span style=&quot;color:#7f0055;font-weight:bold;&quot;&gt;new&lt;/span&gt;&lt;span style=&quot;color:#000000;&quot;&gt; HttpGet(&lt;/span&gt;&lt;span style=&quot;color:#6a3e3e;&quot;&gt;url&lt;/span&gt;&lt;span style=&quot;color:#000000;&quot;&gt;);&lt;/span&gt;&lt;/p&gt;&lt;p style=&quot;margin:0;&quot;&gt;&lt;span style=&quot;color:#000000;&quot;&gt;&lt;span style=&quot;white-space: pre;&quot;&gt;&amp;nbsp;&amp;nbsp;&amp;nbsp;&amp;nbsp;&lt;/span&gt;&lt;span style=&quot;white-space: pre;&quot;&gt;&amp;nbsp;&amp;nbsp;&amp;nbsp;&amp;nbsp;&lt;/span&gt;&lt;/span&gt;&lt;span style=&quot;color:#6a3e3e;&quot;&gt;getRequest&lt;/span&gt;&lt;span style=&quot;color:#000000;&quot;&gt;.addHeader(&lt;/span&gt;&lt;span style=&quot;color:#2a00ff;&quot;&gt;&quot;accept&quot;&lt;/span&gt;&lt;span style=&quot;color:#000000;&quot;&gt;, &lt;/span&gt;&lt;span style=&quot;color:#2a00ff;&quot;&gt;&quot;application/json&quot;&lt;/span&gt;&lt;span style=&quot;color:#000000;&quot;&gt;);&lt;/span&gt;&lt;/p&gt;&lt;p style=&quot;margin:0;&quot;&gt;&lt;span style=&quot;color:#000000;&quot;&gt;&lt;span style=&quot;white-space: pre;&quot;&gt;&amp;nbsp;&amp;nbsp;&amp;nbsp;&amp;nbsp;&lt;/span&gt;&lt;span style=&quot;white-space: pre;&quot;&gt;&amp;nbsp;&amp;nbsp;&amp;nbsp;&amp;nbsp;&lt;/span&gt;HttpResponse &lt;/span&gt;&lt;span style=&quot;color:#6a3e3e;&quot;&gt;response&lt;/span&gt;&lt;span style=&quot;color:#000000;&quot;&gt; = &lt;/span&gt;&lt;span style=&quot;color:#6a3e3e;&quot;&gt;httpClient&lt;/span&gt;&lt;span style=&quot;color:#000000;&quot;&gt;.execute(&lt;/span&gt;&lt;span style=&quot;color:#6a3e3e;&quot;&gt;getRequest&lt;/span&gt;&lt;span style=&quot;color:#000000;&quot;&gt;);&lt;/span&gt;&lt;/p&gt;&lt;p style=&quot;margin:0;&quot;&gt;&lt;span style=&quot;color:#000000;&quot;&gt;&lt;span style=&quot;white-space: pre;&quot;&gt;&amp;nbsp;&amp;nbsp;&amp;nbsp;&amp;nbsp;&lt;/span&gt;&lt;span style=&quot;white-space: pre;&quot;&gt;&amp;nbsp;&amp;nbsp;&amp;nbsp;&amp;nbsp;&lt;/span&gt;&lt;/span&gt;&lt;span style=&quot;color:#7f0055;font-weight:bold;&quot;&gt;if&lt;/span&gt;&lt;span style=&quot;color:#000000;&quot;&gt; (&lt;/span&gt;&lt;span style=&quot;color:#6a3e3e;&quot;&gt;response&lt;/span&gt;&lt;span style=&quot;color:#000000;&quot;&gt;.getStatusLine().getStatusCode() != 200) {&lt;/span&gt;&lt;/p&gt;&lt;p style=&quot;margin:0;&quot;&gt;&lt;span style=&quot;color:#000000;&quot;&gt;&lt;span style=&quot;white-space: pre;&quot;&gt;&amp;nbsp;&amp;nbsp;&amp;nbsp;&amp;nbsp;&lt;/span&gt;&lt;span style=&quot;white-space: pre;&quot;&gt;&amp;nbsp;&amp;nbsp;&amp;nbsp;&amp;nbsp;&lt;/span&gt;&lt;span style=&quot;white-space: pre;&quot;&gt;&amp;nbsp;&amp;nbsp;&amp;nbsp;&amp;nbsp;&lt;/span&gt;&lt;/span&gt;&lt;span style=&quot;color:#7f0055;font-weight:bold;&quot;&gt;throw&lt;/span&gt;&lt;span style=&quot;color:#000000;&quot;&gt; &lt;/span&gt;&lt;span style=&quot;color:#7f0055;font-weight:bold;&quot;&gt;new&lt;/span&gt;&lt;span style=&quot;color:#000000;&quot;&gt; RuntimeException(&lt;/span&gt;&lt;span style=&quot;color:#2a00ff;&quot;&gt;&quot;Failed : &quot;&lt;/span&gt;&lt;span style=&quot;color:#000000;&quot;&gt; + &lt;/span&gt;&lt;span style=&quot;color:#6a3e3e;&quot;&gt;response&lt;/span&gt;&lt;span style=&quot;color:#000000;&quot;&gt;.getStatusLine().getStatusCode() + &lt;/span&gt;&lt;span style=&quot;color:#2a00ff;&quot;&gt;&quot;-&quot;&lt;/span&gt;&lt;span style=&quot;color:#000000;&quot;&gt; + &lt;/span&gt;&lt;span style=&quot;color:#6a3e3e;&quot;&gt;response&lt;/span&gt;&lt;span style=&quot;color:#000000;&quot;&gt;.getStatusLine().getReasonPhrase());&lt;/span&gt;&lt;/p&gt;&lt;p style=&quot;margin:0;&quot;&gt;&lt;span style=&quot;color:#000000;&quot;&gt;&lt;span style=&quot;white-space: pre;&quot;&gt;&amp;nbsp;&amp;nbsp;&amp;nbsp;&amp;nbsp;&lt;/span&gt;&lt;span style=&quot;white-space: pre;&quot;&gt;&amp;nbsp;&amp;nbsp;&amp;nbsp;&amp;nbsp;&lt;/span&gt;}&lt;/span&gt;&lt;/p&gt;&lt;p style=&quot;margin:0;&quot;&gt;&lt;br&gt;&lt;/p&gt;&lt;p style=&quot;margin:0;&quot;&gt;&lt;span style=&quot;color:#000000;&quot;&gt;&lt;span style=&quot;white-space: pre;&quot;&gt;&amp;nbsp;&amp;nbsp;&amp;nbsp;&amp;nbsp;&lt;/span&gt;&lt;span style=&quot;white-space: pre;&quot;&gt;&amp;nbsp;&amp;nbsp;&amp;nbsp;&amp;nbsp;&lt;/span&gt;String &lt;/span&gt;&lt;span style=&quot;color:#6a3e3e;&quot;&gt;str&lt;/span&gt;&lt;span style=&quot;color:#000000;&quot;&gt; = EntityUtils.&lt;/span&gt;&lt;span style=&quot;color:#000000;font-style:italic;&quot;&gt;toString&lt;/span&gt;&lt;span style=&quot;color:#000000;&quot;&gt;(&lt;/span&gt;&lt;span style=&quot;color:#6a3e3e;&quot;&gt;response&lt;/span&gt;&lt;span style=&quot;color:#000000;&quot;&gt;.getEntity());&lt;/span&gt;&lt;/p&gt;&lt;p style=&quot;margin:0;&quot;&gt;&lt;span style=&quot;color:#000000;&quot;&gt;&lt;span style=&quot;white-space: pre;&quot;&gt;&amp;nbsp;&amp;nbsp;&amp;nbsp;&amp;nbsp;&lt;/span&gt;&lt;span style=&quot;white-space: pre;&quot;&gt;&amp;nbsp;&amp;nbsp;&amp;nbsp;&amp;nbsp;&lt;/span&gt;&lt;/span&gt;&lt;span style=&quot;color:#6a3e3e;&quot;&gt;httpClient&lt;/span&gt;&lt;span style=&quot;color:#000000;&quot;&gt;.getConnectionManager().shutdown();&lt;/span&gt;&lt;/p&gt;&lt;p style=&quot;margin:0;&quot;&gt;&lt;span style=&quot;color:#000000;&quot;&gt;&lt;span style=&quot;white-space: pre;&quot;&gt;&amp;nbsp;&amp;nbsp;&amp;nbsp;&amp;nbsp;&lt;/span&gt;&lt;span style=&quot;white-space: pre;&quot;&gt;&amp;nbsp;&amp;nbsp;&amp;nbsp;&amp;nbsp;&lt;/span&gt;ServicesUtils.&lt;/span&gt;&lt;span style=&quot;color:#000000;font-style:italic;&quot;&gt;verifyException&lt;/span&gt;&lt;span style=&quot;color:#000000;&quot;&gt;(&lt;/span&gt;&lt;span style=&quot;color:#6a3e3e;&quot;&gt;str&lt;/span&gt;&lt;span style=&quot;color:#000000;&quot;&gt;);&lt;/span&gt;&lt;/p&gt;&lt;p style=&quot;margin:0;&quot;&gt;&lt;span style=&quot;color:#000000;&quot;&gt;&lt;span style=&quot;white-space: pre;&quot;&gt;&amp;nbsp;&amp;nbsp;&amp;nbsp;&amp;nbsp;&lt;/span&gt;&lt;span style=&quot;white-space: pre;&quot;&gt;&amp;nbsp;&amp;nbsp;&amp;nbsp;&amp;nbsp;&lt;/span&gt;&lt;/span&gt;&lt;/p&gt;&lt;p style=&quot;margin:0;&quot;&gt;&lt;span style=&quot;color:#3f7f5f;&quot;&gt;//&lt;span style=&quot;white-space: pre;&quot;&gt;&amp;nbsp;&amp;nbsp;&amp;nbsp;&amp;nbsp;&lt;/span&gt;&lt;span style=&quot;white-space: pre;&quot;&gt;&amp;nbsp;&amp;nbsp;&amp;nbsp;&amp;nbsp;&lt;/span&gt;InputStream is = new ByteArrayInputStream(str.getBytes());&lt;/span&gt;&lt;/p&gt;&lt;p style=&quot;margin:0;&quot;&gt;&lt;span style=&quot;color:#3f7f5f;&quot;&gt;//&lt;span style=&quot;white-space: pre;&quot;&gt;&amp;nbsp;&amp;nbsp;&amp;nbsp;&amp;nbsp;&lt;/span&gt;&lt;span style=&quot;white-space: pre;&quot;&gt;&amp;nbsp;&amp;nbsp;&amp;nbsp;&amp;nbsp;&lt;/span&gt;BufferedReader &lt;/span&gt;&lt;span style=&quot;color:#3f7f5f;text-decoration:underline;text-decoration-color:#ff8040;text-decoration-style:wavy;&quot;&gt;br&lt;/span&gt;&lt;span style=&quot;color:#3f7f5f;&quot;&gt; = new BufferedReader(new InputStreamReader(is));&lt;/span&gt;&lt;/p&gt;&lt;p style=&quot;margin:0;&quot;&gt;&lt;span style=&quot;color:#000000;&quot;&gt;&lt;span style=&quot;white-space: pre;&quot;&gt;&amp;nbsp;&amp;nbsp;&amp;nbsp;&amp;nbsp;&lt;/span&gt;&lt;span style=&quot;white-space: pre;&quot;&gt;&amp;nbsp;&amp;nbsp;&amp;nbsp;&amp;nbsp;&lt;/span&gt;&lt;/span&gt;&lt;/p&gt;&lt;p style=&quot;margin:0;&quot;&gt;&lt;span style=&quot;color:#000000;&quot;&gt;&lt;span style=&quot;white-space: pre;&quot;&gt;&amp;nbsp;&amp;nbsp;&amp;nbsp;&amp;nbsp;&lt;/span&gt;&lt;span style=&quot;white-space: pre;&quot;&gt;&amp;nbsp;&amp;nbsp;&amp;nbsp;&amp;nbsp;&lt;/span&gt;InputStream &lt;/span&gt;&lt;span style=&quot;color:#6a3e3e;&quot;&gt;is2&lt;/span&gt;&lt;span style=&quot;color:#000000;&quot;&gt; = &lt;/span&gt;&lt;span style=&quot;color:#7f0055;font-weight:bold;&quot;&gt;new&lt;/span&gt;&lt;span style=&quot;color:#000000;&quot;&gt; ByteArrayInputStream(&lt;/span&gt;&lt;span style=&quot;color:#6a3e3e;&quot;&gt;str&lt;/span&gt;&lt;span style=&quot;color:#000000;&quot;&gt;.getBytes());&lt;/span&gt;&lt;/p&gt;&lt;p style=&quot;margin:0;&quot;&gt;&lt;span style=&quot;color:#000000;&quot;&gt;&lt;span style=&quot;white-space: pre;&quot;&gt;&amp;nbsp;&amp;nbsp;&amp;nbsp;&amp;nbsp;&lt;/span&gt;&lt;span style=&quot;white-space: pre;&quot;&gt;&amp;nbsp;&amp;nbsp;&amp;nbsp;&amp;nbsp;&lt;/span&gt;BufferedReader &lt;/span&gt;&lt;span style=&quot;color:#6a3e3e;&quot;&gt;br2&lt;/span&gt;&lt;span style=&quot;color:#000000;&quot;&gt; = &lt;/span&gt;&lt;span style=&quot;color:#7f0055;font-weight:bold;&quot;&gt;new&lt;/span&gt;&lt;span style=&quot;color:#000000;&quot;&gt; BufferedReader(&lt;/span&gt;&lt;span style=&quot;color:#7f0055;font-weight:bold;&quot;&gt;new&lt;/span&gt;&lt;span style=&quot;color:#000000;&quot;&gt; InputStreamReader(&lt;/span&gt;&lt;span style=&quot;color:#6a3e3e;&quot;&gt;is2&lt;/span&gt;&lt;span style=&quot;color:#000000;&quot;&gt;));&lt;/span&gt;&lt;/p&gt;&lt;p style=&quot;margin:0;&quot;&gt;&lt;span style=&quot;color:#000000;&quot;&gt;&lt;span style=&quot;white-space: pre;&quot;&gt;&amp;nbsp;&amp;nbsp;&amp;nbsp;&amp;nbsp;&lt;/span&gt;&lt;span style=&quot;white-space: pre;&quot;&gt;&amp;nbsp;&amp;nbsp;&amp;nbsp;&amp;nbsp;&lt;/span&gt;&lt;/span&gt;&lt;/p&gt;&lt;p style=&quot;margin:0;&quot;&gt;&lt;span style=&quot;color:#3f7f5f;&quot;&gt;//&lt;span style=&quot;white-space: pre;&quot;&gt;&amp;nbsp;&amp;nbsp;&amp;nbsp;&amp;nbsp;&lt;/span&gt;&lt;span style=&quot;white-space: pre;&quot;&gt;&amp;nbsp;&amp;nbsp;&amp;nbsp;&amp;nbsp;&lt;/span&gt;ErrorResponse errorResponse = null;&lt;/span&gt;&lt;/p&gt;&lt;p style=&quot;margin:0;&quot;&gt;&lt;span style=&quot;color:#000000;&quot;&gt;&lt;span style=&quot;white-space: pre;&quot;&gt;&amp;nbsp;&amp;nbsp;&amp;nbsp;&amp;nbsp;&lt;/span&gt;&lt;span style=&quot;white-space: pre;&quot;&gt;&amp;nbsp;&amp;nbsp;&amp;nbsp;&amp;nbsp;&lt;/span&gt;SecureObject &lt;/span&gt;&lt;span style=&quot;color:#6a3e3e;&quot;&gt;secureObject&lt;/span&gt;&lt;span style=&quot;color:#000000;&quot;&gt; = &lt;/span&gt;&lt;span style=&quot;color:#7f0055;font-weight:bold;&quot;&gt;null&lt;/span&gt;&lt;span style=&quot;color:#000000;&quot;&gt;;&lt;/span&gt;&lt;/p&gt;&lt;p style=&quot;margin:0;&quot;&gt;&lt;span style=&quot;color:#3f7f5f;&quot;&gt;//&lt;span style=&quot;white-space: pre;&quot;&gt;&amp;nbsp;&amp;nbsp;&amp;nbsp;&amp;nbsp;&lt;/span&gt;&lt;span style=&quot;white-space: pre;&quot;&gt;&amp;nbsp;&amp;nbsp;&amp;nbsp;&amp;nbsp;&lt;/span&gt;try {&lt;/span&gt;&lt;/p&gt;&lt;p style=&quot;margin:0;&quot;&gt;&lt;span style=&quot;color:#3f7f5f;&quot;&gt;//&lt;span style=&quot;white-space: pre;&quot;&gt;&amp;nbsp;&amp;nbsp;&amp;nbsp;&amp;nbsp;&lt;/span&gt;&lt;span style=&quot;white-space: pre;&quot;&gt;&amp;nbsp;&amp;nbsp;&amp;nbsp;&amp;nbsp;&lt;/span&gt;&lt;span style=&quot;white-space: pre;&quot;&gt;&amp;nbsp;&amp;nbsp;&amp;nbsp;&amp;nbsp;&lt;/span&gt;errorResponse = gson.fromJson(&lt;/span&gt;&lt;span style=&quot;color:#3f7f5f;text-decoration:underline;text-decoration-color:#ff8040;text-decoration-style:wavy;&quot;&gt;br&lt;/span&gt;&lt;span style=&quot;color:#3f7f5f;&quot;&gt;, ErrorResponse.class);&lt;/span&gt;&lt;/p&gt;&lt;p style=&quot;margin:0;&quot;&gt;&lt;span style=&quot;color:#3f7f5f;&quot;&gt;//&lt;span style=&quot;white-space: pre;&quot;&gt;&amp;nbsp;&amp;nbsp;&amp;nbsp;&amp;nbsp;&lt;/span&gt;&lt;span style=&quot;white-space: pre;&quot;&gt;&amp;nbsp;&amp;nbsp;&amp;nbsp;&amp;nbsp;&lt;/span&gt;} catch (com.google.gson.JsonSyntaxException e) {&lt;/span&gt;&lt;/p&gt;&lt;p style=&quot;margin:0;&quot;&gt;&lt;span style=&quot;color:#3f7f5f;&quot;&gt;//&lt;span style=&quot;white-space: pre;&quot;&gt;&amp;nbsp;&amp;nbsp;&amp;nbsp;&amp;nbsp;&lt;/span&gt;&lt;span style=&quot;white-space: pre;&quot;&gt;&amp;nbsp;&amp;nbsp;&amp;nbsp;&amp;nbsp;&lt;/span&gt;&lt;span style=&quot;white-space: pre;&quot;&gt;&amp;nbsp;&amp;nbsp;&amp;nbsp;&amp;nbsp;&lt;/span&gt;e.printStackTrace();&lt;/span&gt;&lt;/p&gt;&lt;p style=&quot;margin:0;&quot;&gt;&lt;span style=&quot;color:#3f7f5f;&quot;&gt;//&lt;span style=&quot;white-space: pre;&quot;&gt;&amp;nbsp;&amp;nbsp;&amp;nbsp;&amp;nbsp;&lt;/span&gt;&lt;span style=&quot;white-space: pre;&quot;&gt;&amp;nbsp;&amp;nbsp;&amp;nbsp;&amp;nbsp;&lt;/span&gt;}&lt;/span&gt;&lt;/p&gt;&lt;p style=&quot;margin:0;&quot;&gt;&lt;span style=&quot;color:#3f7f5f;&quot;&gt;//&lt;span style=&quot;white-space: pre;&quot;&gt;&amp;nbsp;&amp;nbsp;&amp;nbsp;&amp;nbsp;&lt;/span&gt;&lt;span style=&quot;white-space: pre;&quot;&gt;&amp;nbsp;&amp;nbsp;&amp;nbsp;&amp;nbsp;&lt;/span&gt;if (errorResponse != null &amp;amp;&amp;amp; errorResponse.getErrorCode() != 0) {&lt;/span&gt;&lt;/p&gt;&lt;p style=&quot;margin:0;&quot;&gt;&lt;span style=&quot;color:#3f7f5f;&quot;&gt;//&lt;span style=&quot;white-space: pre;&quot;&gt;&amp;nbsp;&amp;nbsp;&amp;nbsp;&amp;nbsp;&lt;/span&gt;&lt;span style=&quot;white-space: pre;&quot;&gt;&amp;nbsp;&amp;nbsp;&amp;nbsp;&amp;nbsp;&lt;/span&gt;&lt;span style=&quot;white-space: pre;&quot;&gt;&amp;nbsp;&amp;nbsp;&amp;nbsp;&amp;nbsp;&lt;/span&gt;throw new Exception (errorResponse.getMessage());&lt;/span&gt;&lt;/p&gt;&lt;p style=&quot;margin:0;&quot;&gt;&lt;span style=&quot;color:#3f7f5f;&quot;&gt;//&lt;span style=&quot;white-space: pre;&quot;&gt;&amp;nbsp;&amp;nbsp;&amp;nbsp;&amp;nbsp;&lt;/span&gt;&lt;span style=&quot;white-space: pre;&quot;&gt;&amp;nbsp;&amp;nbsp;&amp;nbsp;&amp;nbsp;&lt;/span&gt;} else {&lt;/span&gt;&lt;/p&gt;&lt;p style=&quot;margin:0;&quot;&gt;&lt;span style=&quot;color:#000000;&quot;&gt;&lt;span style=&quot;white-space: pre;&quot;&gt;&amp;nbsp;&amp;nbsp;&amp;nbsp;&amp;nbsp;&lt;/span&gt;&lt;span style=&quot;white-space: pre;&quot;&gt;&amp;nbsp;&amp;nbsp;&amp;nbsp;&amp;nbsp;&lt;/span&gt;&lt;span style=&quot;white-space: pre;&quot;&gt;&amp;nbsp;&amp;nbsp;&amp;nbsp;&amp;nbsp;&lt;/span&gt;&lt;/span&gt;&lt;span style=&quot;color:#6a3e3e;&quot;&gt;secureObject&lt;/span&gt;&lt;span style=&quot;color:#000000;&quot;&gt; = &lt;/span&gt;&lt;span style=&quot;color:#0000c0;&quot;&gt;gson&lt;/span&gt;&lt;span style=&quot;color:#000000;&quot;&gt;.fromJson(&lt;/span&gt;&lt;span style=&quot;color:#6a3e3e;&quot;&gt;br2&lt;/span&gt;&lt;span style=&quot;color:#000000;&quot;&gt;, SecureObject.&lt;/span&gt;&lt;span style=&quot;color:#7f0055;font-weight:bold;&quot;&gt;class&lt;/span&gt;&lt;span style=&quot;color:#000000;&quot;&gt;);&lt;/span&gt;&lt;/p&gt;&lt;p style=&quot;margin:0;&quot;&gt;&lt;span style=&quot;color:#000000;&quot;&gt;&lt;span style=&quot;white-space: pre;&quot;&gt;&amp;nbsp;&amp;nbsp;&amp;nbsp;&amp;nbsp;&lt;/span&gt;&lt;span style=&quot;white-space: pre;&quot;&gt;&amp;nbsp;&amp;nbsp;&amp;nbsp;&amp;nbsp;&lt;/span&gt;&lt;span style=&quot;white-space: pre;&quot;&gt;&amp;nbsp;&amp;nbsp;&amp;nbsp;&amp;nbsp;&lt;/span&gt;&lt;/span&gt;&lt;span style=&quot;color:#6a3e3e;&quot;&gt;secureObject&lt;/span&gt;&lt;span style=&quot;color:#000000;&quot;&gt;.setName(&lt;/span&gt;&lt;span style=&quot;color:#6a3e3e;&quot;&gt;name&lt;/span&gt;&lt;span style=&quot;color:#000000;&quot;&gt;);&lt;/span&gt;&lt;/p&gt;&lt;p style=&quot;margin:0;&quot;&gt;&lt;span style=&quot;color:#3f7f5f;&quot;&gt;//&lt;span style=&quot;white-space: pre;&quot;&gt;&amp;nbsp;&amp;nbsp;&amp;nbsp;&amp;nbsp;&lt;/span&gt;&lt;span style=&quot;white-space: pre;&quot;&gt;&amp;nbsp;&amp;nbsp;&amp;nbsp;&amp;nbsp;&lt;/span&gt;}&lt;/span&gt;&lt;/p&gt;&lt;p style=&quot;margin:0;&quot;&gt;&lt;span style=&quot;color:#000000;&quot;&gt;&lt;span style=&quot;white-space: pre;&quot;&gt;&amp;nbsp;&amp;nbsp;&amp;nbsp;&amp;nbsp;&lt;/span&gt;&lt;span style=&quot;white-space: pre;&quot;&gt;&amp;nbsp;&amp;nbsp;&amp;nbsp;&amp;nbsp;&lt;/span&gt;&lt;/span&gt;&lt;/p&gt;&lt;p style=&quot;margin:0;&quot;&gt;&lt;span style=&quot;color:#000000;&quot;&gt;&lt;span style=&quot;white-space: pre;&quot;&gt;&amp;nbsp;&amp;nbsp;&amp;nbsp;&amp;nbsp;&lt;/span&gt;&lt;span style=&quot;white-space: pre;&quot;&gt;&amp;nbsp;&amp;nbsp;&amp;nbsp;&amp;nbsp;&lt;/span&gt;&lt;/span&gt;&lt;span style=&quot;color:#7f0055;font-weight:bold;&quot;&gt;return&lt;/span&gt;&lt;span style=&quot;color:#000000;&quot;&gt; &lt;/span&gt;&lt;span style=&quot;color:#6a3e3e;&quot;&gt;secureObject&lt;/span&gt;&lt;span style=&quot;color:#000000;&quot;&gt;;&lt;/span&gt;&lt;/p&gt;&lt;p style=&quot;margin:0;&quot;&gt;&lt;span style=&quot;color:#000000;&quot;&gt;&lt;span style=&quot;white-space: pre;&quot;&gt;&amp;nbsp;&amp;nbsp;&amp;nbsp;&amp;nbsp;&lt;/span&gt;}&lt;/span&gt;&lt;/p&gt;&lt;/div&gt;&lt;/div&gt;" style="rounded=0;whiteSpace=wrap;html=1;align=left;" vertex="1" parent="1">
          <mxGeometry x="1320" y="-370" width="890" height="680" as="geometry" />
        </mxCell>
        <mxCell id="YLahnyNFYKvMn4bq4ega-1" value="&lt;div align=&quot;left&quot; style=&quot;background-color:#ffffff;padding:0px 0px 0px 2px;&quot;&gt;&lt;div style=&quot;color: rgb(0, 0, 0); background-color: rgb(255, 255, 255); font-family: &amp;quot;Courier New&amp;quot;; font-size: 10pt;&quot;&gt;&lt;p style=&quot;margin:0;&quot;&gt;&lt;span style=&quot;color:#7f0055;font-weight:bold;&quot;&gt;private&lt;/span&gt;&lt;span style=&quot;color:#000000;&quot;&gt; &lt;/span&gt;&lt;span style=&quot;color:#7f0055;font-weight:bold;&quot;&gt;void&lt;/span&gt;&lt;span style=&quot;color:#000000;&quot;&gt; &lt;/span&gt;&lt;span style=&quot;color:#000000;background-color:#d4d4d4;&quot;&gt;getSecureInfoFromServer&lt;/span&gt;&lt;span style=&quot;color:#000000;&quot;&gt;() {&lt;/span&gt;&lt;/p&gt;&lt;p style=&quot;margin:0;&quot;&gt;&lt;span style=&quot;color:#000000;&quot;&gt;&lt;span style=&quot;white-space: pre;&quot;&gt;&amp;nbsp;&amp;nbsp;&amp;nbsp;&amp;nbsp;&lt;/span&gt;&lt;span style=&quot;white-space: pre;&quot;&gt;&amp;nbsp;&amp;nbsp;&amp;nbsp;&amp;nbsp;&lt;/span&gt;&lt;span style=&quot;white-space: pre;&quot;&gt;&amp;nbsp;&amp;nbsp;&amp;nbsp;&amp;nbsp;&lt;/span&gt;&lt;/span&gt;&lt;span style=&quot;color:#0000c0;font-style:italic;font-weight:bold;&quot;&gt;LOG&lt;/span&gt;&lt;span style=&quot;color:#000000;&quot;&gt;.info(&lt;/span&gt;&lt;span style=&quot;color:#2a00ff;&quot;&gt;&quot;getSecureInfoFromServer start &quot;&lt;/span&gt;&lt;span style=&quot;color:#000000;&quot;&gt;);&lt;/span&gt;&lt;/p&gt;&lt;p style=&quot;margin:0;&quot;&gt;&lt;span style=&quot;color:#000000;&quot;&gt;&lt;span style=&quot;white-space: pre;&quot;&gt;&amp;nbsp;&amp;nbsp;&amp;nbsp;&amp;nbsp;&lt;/span&gt;&lt;span style=&quot;white-space: pre;&quot;&gt;&amp;nbsp;&amp;nbsp;&amp;nbsp;&amp;nbsp;&lt;/span&gt;&lt;span style=&quot;white-space: pre;&quot;&gt;&amp;nbsp;&amp;nbsp;&amp;nbsp;&amp;nbsp;&lt;/span&gt;&lt;/span&gt;&lt;span style=&quot;color:#7f0055;font-weight:bold;&quot;&gt;long&lt;/span&gt;&lt;span style=&quot;color:#000000;&quot;&gt; &lt;/span&gt;&lt;span style=&quot;color:#6a3e3e;&quot;&gt;start&lt;/span&gt;&lt;span style=&quot;color:#000000;&quot;&gt; = System.&lt;/span&gt;&lt;span style=&quot;color:#000000;font-style:italic;&quot;&gt;currentTimeMillis&lt;/span&gt;&lt;span style=&quot;color:#000000;&quot;&gt;();&lt;/span&gt;&lt;/p&gt;&lt;p style=&quot;margin:0;&quot;&gt;&lt;span style=&quot;color:#000000;&quot;&gt;&lt;span style=&quot;white-space: pre;&quot;&gt;&amp;nbsp;&amp;nbsp;&amp;nbsp;&amp;nbsp;&lt;/span&gt;&lt;span style=&quot;white-space: pre;&quot;&gt;&amp;nbsp;&amp;nbsp;&amp;nbsp;&amp;nbsp;&lt;/span&gt;&lt;span style=&quot;white-space: pre;&quot;&gt;&amp;nbsp;&amp;nbsp;&amp;nbsp;&amp;nbsp;&lt;/span&gt;&lt;/span&gt;&lt;span style=&quot;color:#7f0055;font-weight:bold;&quot;&gt;try&lt;/span&gt;&lt;span style=&quot;color:#000000;&quot;&gt; {&lt;/span&gt;&lt;/p&gt;&lt;p style=&quot;margin:0;&quot;&gt;&lt;span style=&quot;color:#000000;&quot;&gt;&lt;span style=&quot;white-space: pre;&quot;&gt;&amp;nbsp;&amp;nbsp;&amp;nbsp;&amp;nbsp;&lt;/span&gt;&lt;span style=&quot;white-space: pre;&quot;&gt;&amp;nbsp;&amp;nbsp;&amp;nbsp;&amp;nbsp;&lt;/span&gt;&lt;span style=&quot;white-space: pre;&quot;&gt;&amp;nbsp;&amp;nbsp;&amp;nbsp;&amp;nbsp;&lt;/span&gt;&lt;span style=&quot;white-space: pre;&quot;&gt;&amp;nbsp;&amp;nbsp;&amp;nbsp;&amp;nbsp;&lt;/span&gt;&lt;/span&gt;&lt;span style=&quot;color:#0000c0;&quot;&gt;secureObject&lt;/span&gt;&lt;span style=&quot;color:#000000;&quot;&gt; = &lt;/span&gt;&lt;span style=&quot;color:#0000c0;&quot;&gt;keyServiceManager&lt;/span&gt;&lt;span style=&quot;color:#000000;&quot;&gt;.getSecureObjectFromServer(&lt;/span&gt;&lt;span style=&quot;color:#0000c0;&quot;&gt;host&lt;/span&gt;&lt;span style=&quot;color:#000000;&quot;&gt;, &lt;/span&gt;&lt;span style=&quot;color:#0000c0;&quot;&gt;port&lt;/span&gt;&lt;span style=&quot;color:#000000;&quot;&gt;, &lt;/span&gt;&lt;span style=&quot;color:#2a00ff;&quot;&gt;&quot;ADMINNETPSINTERN&quot;&lt;/span&gt;&lt;span style=&quot;color:#000000;&quot;&gt;);&lt;/span&gt;&lt;/p&gt;&lt;p style=&quot;margin:0;&quot;&gt;&lt;span style=&quot;color:#000000;&quot;&gt;&lt;span style=&quot;white-space: pre;&quot;&gt;&amp;nbsp;&amp;nbsp;&amp;nbsp;&amp;nbsp;&lt;/span&gt;&lt;span style=&quot;white-space: pre;&quot;&gt;&amp;nbsp;&amp;nbsp;&amp;nbsp;&amp;nbsp;&lt;/span&gt;&lt;span style=&quot;white-space: pre;&quot;&gt;&amp;nbsp;&amp;nbsp;&amp;nbsp;&amp;nbsp;&lt;/span&gt;} &lt;/span&gt;&lt;span style=&quot;color:#7f0055;font-weight:bold;&quot;&gt;catch&lt;/span&gt;&lt;span style=&quot;color:#000000;&quot;&gt; (ClientProtocolException &lt;/span&gt;&lt;span style=&quot;color:#6a3e3e;&quot;&gt;e&lt;/span&gt;&lt;span style=&quot;color:#000000;&quot;&gt;) {&lt;/span&gt;&lt;/p&gt;&lt;p style=&quot;margin:0;&quot;&gt;&lt;span style=&quot;color:#000000;&quot;&gt;&lt;span style=&quot;white-space: pre;&quot;&gt;&amp;nbsp;&amp;nbsp;&amp;nbsp;&amp;nbsp;&lt;/span&gt;&lt;span style=&quot;white-space: pre;&quot;&gt;&amp;nbsp;&amp;nbsp;&amp;nbsp;&amp;nbsp;&lt;/span&gt;&lt;span style=&quot;white-space: pre;&quot;&gt;&amp;nbsp;&amp;nbsp;&amp;nbsp;&amp;nbsp;&lt;/span&gt;&lt;span style=&quot;white-space: pre;&quot;&gt;&amp;nbsp;&amp;nbsp;&amp;nbsp;&amp;nbsp;&lt;/span&gt;&lt;/span&gt;&lt;span style=&quot;color:#0000c0;font-style:italic;font-weight:bold;&quot;&gt;LOG&lt;/span&gt;&lt;span style=&quot;color:#000000;&quot;&gt;.error(&lt;/span&gt;&lt;span style=&quot;color:#2a00ff;&quot;&gt;&quot;Exception ClientProtocolException while getSecureInfoFromServer &quot;&lt;/span&gt;&lt;span style=&quot;color:#000000;&quot;&gt;, &lt;/span&gt;&lt;span style=&quot;color:#6a3e3e;&quot;&gt;e&lt;/span&gt;&lt;span style=&quot;color:#000000;&quot;&gt;);&lt;/span&gt;&lt;/p&gt;&lt;p style=&quot;margin:0;&quot;&gt;&lt;span style=&quot;color:#000000;&quot;&gt;&lt;span style=&quot;white-space: pre;&quot;&gt;&amp;nbsp;&amp;nbsp;&amp;nbsp;&amp;nbsp;&lt;/span&gt;&lt;span style=&quot;white-space: pre;&quot;&gt;&amp;nbsp;&amp;nbsp;&amp;nbsp;&amp;nbsp;&lt;/span&gt;&lt;span style=&quot;white-space: pre;&quot;&gt;&amp;nbsp;&amp;nbsp;&amp;nbsp;&amp;nbsp;&lt;/span&gt;&lt;span style=&quot;white-space: pre;&quot;&gt;&amp;nbsp;&amp;nbsp;&amp;nbsp;&amp;nbsp;&lt;/span&gt;showError(&lt;/span&gt;&lt;span style=&quot;color:#6a3e3e;&quot;&gt;e&lt;/span&gt;&lt;span style=&quot;color:#000000;&quot;&gt;.getMessage());&lt;/span&gt;&lt;/p&gt;&lt;p style=&quot;margin:0;&quot;&gt;&lt;span style=&quot;color:#000000;&quot;&gt;&lt;span style=&quot;white-space: pre;&quot;&gt;&amp;nbsp;&amp;nbsp;&amp;nbsp;&amp;nbsp;&lt;/span&gt;&lt;span style=&quot;white-space: pre;&quot;&gt;&amp;nbsp;&amp;nbsp;&amp;nbsp;&amp;nbsp;&lt;/span&gt;&lt;span style=&quot;white-space: pre;&quot;&gt;&amp;nbsp;&amp;nbsp;&amp;nbsp;&amp;nbsp;&lt;/span&gt;&lt;span style=&quot;white-space: pre;&quot;&gt;&amp;nbsp;&amp;nbsp;&amp;nbsp;&amp;nbsp;&lt;/span&gt;System.&lt;/span&gt;&lt;span style=&quot;color:#000000;font-style:italic;&quot;&gt;exit&lt;/span&gt;&lt;span style=&quot;color:#000000;&quot;&gt;(0);&lt;/span&gt;&lt;/p&gt;&lt;p style=&quot;margin:0;&quot;&gt;&lt;span style=&quot;color:#000000;&quot;&gt;&lt;span style=&quot;white-space: pre;&quot;&gt;&amp;nbsp;&amp;nbsp;&amp;nbsp;&amp;nbsp;&lt;/span&gt;&lt;span style=&quot;white-space: pre;&quot;&gt;&amp;nbsp;&amp;nbsp;&amp;nbsp;&amp;nbsp;&lt;/span&gt;&lt;span style=&quot;white-space: pre;&quot;&gt;&amp;nbsp;&amp;nbsp;&amp;nbsp;&amp;nbsp;&lt;/span&gt;} &lt;/span&gt;&lt;span style=&quot;color:#7f0055;font-weight:bold;&quot;&gt;catch&lt;/span&gt;&lt;span style=&quot;color:#000000;&quot;&gt; (IllegalArgumentException &lt;/span&gt;&lt;span style=&quot;color:#6a3e3e;&quot;&gt;e&lt;/span&gt;&lt;span style=&quot;color:#000000;&quot;&gt;) {&lt;/span&gt;&lt;/p&gt;&lt;p style=&quot;margin:0;&quot;&gt;&lt;span style=&quot;color:#000000;&quot;&gt;&lt;span style=&quot;white-space: pre;&quot;&gt;&amp;nbsp;&amp;nbsp;&amp;nbsp;&amp;nbsp;&lt;/span&gt;&lt;span style=&quot;white-space: pre;&quot;&gt;&amp;nbsp;&amp;nbsp;&amp;nbsp;&amp;nbsp;&lt;/span&gt;&lt;span style=&quot;white-space: pre;&quot;&gt;&amp;nbsp;&amp;nbsp;&amp;nbsp;&amp;nbsp;&lt;/span&gt;&lt;span style=&quot;white-space: pre;&quot;&gt;&amp;nbsp;&amp;nbsp;&amp;nbsp;&amp;nbsp;&lt;/span&gt;&lt;/span&gt;&lt;span style=&quot;color:#0000c0;font-style:italic;font-weight:bold;&quot;&gt;LOG&lt;/span&gt;&lt;span style=&quot;color:#000000;&quot;&gt;.error(&lt;/span&gt;&lt;span style=&quot;color:#2a00ff;&quot;&gt;&quot;Exception IllegalArgumentException while getSecureInfoFromServer &quot;&lt;/span&gt;&lt;span style=&quot;color:#000000;&quot;&gt;, &lt;/span&gt;&lt;span style=&quot;color:#6a3e3e;&quot;&gt;e&lt;/span&gt;&lt;span style=&quot;color:#000000;&quot;&gt;);&lt;/span&gt;&lt;/p&gt;&lt;p style=&quot;margin:0;&quot;&gt;&lt;span style=&quot;color:#000000;&quot;&gt;&lt;span style=&quot;white-space: pre;&quot;&gt;&amp;nbsp;&amp;nbsp;&amp;nbsp;&amp;nbsp;&lt;/span&gt;&lt;span style=&quot;white-space: pre;&quot;&gt;&amp;nbsp;&amp;nbsp;&amp;nbsp;&amp;nbsp;&lt;/span&gt;&lt;span style=&quot;white-space: pre;&quot;&gt;&amp;nbsp;&amp;nbsp;&amp;nbsp;&amp;nbsp;&lt;/span&gt;&lt;span style=&quot;white-space: pre;&quot;&gt;&amp;nbsp;&amp;nbsp;&amp;nbsp;&amp;nbsp;&lt;/span&gt;showError(&lt;/span&gt;&lt;span style=&quot;color:#2a00ff;&quot;&gt;&quot;Error while construct the token of session&quot;&lt;/span&gt;&lt;span style=&quot;color:#000000;&quot;&gt; );&lt;/span&gt;&lt;/p&gt;&lt;p style=&quot;margin:0;&quot;&gt;&lt;span style=&quot;color:#000000;&quot;&gt;&lt;span style=&quot;white-space: pre;&quot;&gt;&amp;nbsp;&amp;nbsp;&amp;nbsp;&amp;nbsp;&lt;/span&gt;&lt;span style=&quot;white-space: pre;&quot;&gt;&amp;nbsp;&amp;nbsp;&amp;nbsp;&amp;nbsp;&lt;/span&gt;&lt;span style=&quot;white-space: pre;&quot;&gt;&amp;nbsp;&amp;nbsp;&amp;nbsp;&amp;nbsp;&lt;/span&gt;&lt;span style=&quot;white-space: pre;&quot;&gt;&amp;nbsp;&amp;nbsp;&amp;nbsp;&amp;nbsp;&lt;/span&gt;System.&lt;/span&gt;&lt;span style=&quot;color:#000000;font-style:italic;&quot;&gt;exit&lt;/span&gt;&lt;span style=&quot;color:#000000;&quot;&gt;(0);&lt;/span&gt;&lt;/p&gt;&lt;p style=&quot;margin:0;&quot;&gt;&lt;span style=&quot;color:#000000;&quot;&gt;&lt;span style=&quot;white-space: pre;&quot;&gt;&amp;nbsp;&amp;nbsp;&amp;nbsp;&amp;nbsp;&lt;/span&gt;&lt;span style=&quot;white-space: pre;&quot;&gt;&amp;nbsp;&amp;nbsp;&amp;nbsp;&amp;nbsp;&lt;/span&gt;&lt;span style=&quot;white-space: pre;&quot;&gt;&amp;nbsp;&amp;nbsp;&amp;nbsp;&amp;nbsp;&lt;/span&gt;} &lt;/span&gt;&lt;span style=&quot;color:#7f0055;font-weight:bold;&quot;&gt;catch&lt;/span&gt;&lt;span style=&quot;color:#000000;&quot;&gt; (UnsupportedEncodingException &lt;/span&gt;&lt;span style=&quot;color:#6a3e3e;&quot;&gt;e&lt;/span&gt;&lt;span style=&quot;color:#000000;&quot;&gt;) {&lt;/span&gt;&lt;/p&gt;&lt;p style=&quot;margin:0;&quot;&gt;&lt;span style=&quot;color:#000000;&quot;&gt;&lt;span style=&quot;white-space: pre;&quot;&gt;&amp;nbsp;&amp;nbsp;&amp;nbsp;&amp;nbsp;&lt;/span&gt;&lt;span style=&quot;white-space: pre;&quot;&gt;&amp;nbsp;&amp;nbsp;&amp;nbsp;&amp;nbsp;&lt;/span&gt;&lt;span style=&quot;white-space: pre;&quot;&gt;&amp;nbsp;&amp;nbsp;&amp;nbsp;&amp;nbsp;&lt;/span&gt;&lt;span style=&quot;white-space: pre;&quot;&gt;&amp;nbsp;&amp;nbsp;&amp;nbsp;&amp;nbsp;&lt;/span&gt;&lt;/span&gt;&lt;span style=&quot;color:#0000c0;font-style:italic;font-weight:bold;&quot;&gt;LOG&lt;/span&gt;&lt;span style=&quot;color:#000000;&quot;&gt;.error(&lt;/span&gt;&lt;span style=&quot;color:#2a00ff;&quot;&gt;&quot;Exception UnsupportedEncodingException while getSecureInfoFromServer &quot;&lt;/span&gt;&lt;span style=&quot;color:#000000;&quot;&gt;, &lt;/span&gt;&lt;span style=&quot;color:#6a3e3e;&quot;&gt;e&lt;/span&gt;&lt;span style=&quot;color:#000000;&quot;&gt;);&lt;/span&gt;&lt;/p&gt;&lt;p style=&quot;margin:0;&quot;&gt;&lt;span style=&quot;color:#000000;&quot;&gt;&lt;span style=&quot;white-space: pre;&quot;&gt;&amp;nbsp;&amp;nbsp;&amp;nbsp;&amp;nbsp;&lt;/span&gt;&lt;span style=&quot;white-space: pre;&quot;&gt;&amp;nbsp;&amp;nbsp;&amp;nbsp;&amp;nbsp;&lt;/span&gt;&lt;span style=&quot;white-space: pre;&quot;&gt;&amp;nbsp;&amp;nbsp;&amp;nbsp;&amp;nbsp;&lt;/span&gt;&lt;span style=&quot;white-space: pre;&quot;&gt;&amp;nbsp;&amp;nbsp;&amp;nbsp;&amp;nbsp;&lt;/span&gt;showError(&lt;/span&gt;&lt;span style=&quot;color:#2a00ff;&quot;&gt;&quot;Error while construct the token of session&quot;&lt;/span&gt;&lt;span style=&quot;color:#000000;&quot;&gt; );&lt;/span&gt;&lt;/p&gt;&lt;p style=&quot;margin:0;&quot;&gt;&lt;span style=&quot;color:#000000;&quot;&gt;&lt;span style=&quot;white-space: pre;&quot;&gt;&amp;nbsp;&amp;nbsp;&amp;nbsp;&amp;nbsp;&lt;/span&gt;&lt;span style=&quot;white-space: pre;&quot;&gt;&amp;nbsp;&amp;nbsp;&amp;nbsp;&amp;nbsp;&lt;/span&gt;&lt;span style=&quot;white-space: pre;&quot;&gt;&amp;nbsp;&amp;nbsp;&amp;nbsp;&amp;nbsp;&lt;/span&gt;&lt;span style=&quot;white-space: pre;&quot;&gt;&amp;nbsp;&amp;nbsp;&amp;nbsp;&amp;nbsp;&lt;/span&gt;System.&lt;/span&gt;&lt;span style=&quot;color:#000000;font-style:italic;&quot;&gt;exit&lt;/span&gt;&lt;span style=&quot;color:#000000;&quot;&gt;(0);&lt;/span&gt;&lt;/p&gt;&lt;p style=&quot;margin:0;&quot;&gt;&lt;span style=&quot;color:#000000;&quot;&gt;&lt;span style=&quot;white-space: pre;&quot;&gt;&amp;nbsp;&amp;nbsp;&amp;nbsp;&amp;nbsp;&lt;/span&gt;&lt;span style=&quot;white-space: pre;&quot;&gt;&amp;nbsp;&amp;nbsp;&amp;nbsp;&amp;nbsp;&lt;/span&gt;&lt;span style=&quot;white-space: pre;&quot;&gt;&amp;nbsp;&amp;nbsp;&amp;nbsp;&amp;nbsp;&lt;/span&gt;} &lt;/span&gt;&lt;span style=&quot;color:#7f0055;font-weight:bold;&quot;&gt;catch&lt;/span&gt;&lt;span style=&quot;color:#000000;&quot;&gt; (IOException &lt;/span&gt;&lt;span style=&quot;color:#6a3e3e;&quot;&gt;e&lt;/span&gt;&lt;span style=&quot;color:#000000;&quot;&gt;) {&lt;/span&gt;&lt;/p&gt;&lt;p style=&quot;margin:0;&quot;&gt;&lt;span style=&quot;color:#000000;&quot;&gt;&lt;span style=&quot;white-space: pre;&quot;&gt;&amp;nbsp;&amp;nbsp;&amp;nbsp;&amp;nbsp;&lt;/span&gt;&lt;span style=&quot;white-space: pre;&quot;&gt;&amp;nbsp;&amp;nbsp;&amp;nbsp;&amp;nbsp;&lt;/span&gt;&lt;span style=&quot;white-space: pre;&quot;&gt;&amp;nbsp;&amp;nbsp;&amp;nbsp;&amp;nbsp;&lt;/span&gt;&lt;span style=&quot;white-space: pre;&quot;&gt;&amp;nbsp;&amp;nbsp;&amp;nbsp;&amp;nbsp;&lt;/span&gt;&lt;/span&gt;&lt;span style=&quot;color:#0000c0;font-style:italic;font-weight:bold;&quot;&gt;LOG&lt;/span&gt;&lt;span style=&quot;color:#000000;&quot;&gt;.error(&lt;/span&gt;&lt;span style=&quot;color:#2a00ff;&quot;&gt;&quot;Exception IOException while getSecureInfoFromServer &quot;&lt;/span&gt;&lt;span style=&quot;color:#000000;&quot;&gt;, &lt;/span&gt;&lt;span style=&quot;color:#6a3e3e;&quot;&gt;e&lt;/span&gt;&lt;span style=&quot;color:#000000;&quot;&gt;);&lt;/span&gt;&lt;/p&gt;&lt;p style=&quot;margin:0;&quot;&gt;&lt;span style=&quot;color:#000000;&quot;&gt;&lt;span style=&quot;white-space: pre;&quot;&gt;&amp;nbsp;&amp;nbsp;&amp;nbsp;&amp;nbsp;&lt;/span&gt;&lt;span style=&quot;white-space: pre;&quot;&gt;&amp;nbsp;&amp;nbsp;&amp;nbsp;&amp;nbsp;&lt;/span&gt;&lt;span style=&quot;white-space: pre;&quot;&gt;&amp;nbsp;&amp;nbsp;&amp;nbsp;&amp;nbsp;&lt;/span&gt;&lt;span style=&quot;white-space: pre;&quot;&gt;&amp;nbsp;&amp;nbsp;&amp;nbsp;&amp;nbsp;&lt;/span&gt;showError(&lt;/span&gt;&lt;span style=&quot;color:#6a3e3e;&quot;&gt;e&lt;/span&gt;&lt;span style=&quot;color:#000000;&quot;&gt;.getMessage());&lt;/span&gt;&lt;/p&gt;&lt;p style=&quot;margin:0;&quot;&gt;&lt;span style=&quot;color:#000000;&quot;&gt;&lt;span style=&quot;white-space: pre;&quot;&gt;&amp;nbsp;&amp;nbsp;&amp;nbsp;&amp;nbsp;&lt;/span&gt;&lt;span style=&quot;white-space: pre;&quot;&gt;&amp;nbsp;&amp;nbsp;&amp;nbsp;&amp;nbsp;&lt;/span&gt;&lt;span style=&quot;white-space: pre;&quot;&gt;&amp;nbsp;&amp;nbsp;&amp;nbsp;&amp;nbsp;&lt;/span&gt;&lt;span style=&quot;white-space: pre;&quot;&gt;&amp;nbsp;&amp;nbsp;&amp;nbsp;&amp;nbsp;&lt;/span&gt;System.&lt;/span&gt;&lt;span style=&quot;color:#000000;font-style:italic;&quot;&gt;exit&lt;/span&gt;&lt;span style=&quot;color:#000000;&quot;&gt;(0);&lt;/span&gt;&lt;/p&gt;&lt;p style=&quot;margin:0;&quot;&gt;&lt;span style=&quot;color:#000000;&quot;&gt;&lt;span style=&quot;white-space: pre;&quot;&gt;&amp;nbsp;&amp;nbsp;&amp;nbsp;&amp;nbsp;&lt;/span&gt;&lt;span style=&quot;white-space: pre;&quot;&gt;&amp;nbsp;&amp;nbsp;&amp;nbsp;&amp;nbsp;&lt;/span&gt;&lt;span style=&quot;white-space: pre;&quot;&gt;&amp;nbsp;&amp;nbsp;&amp;nbsp;&amp;nbsp;&lt;/span&gt;} &lt;/span&gt;&lt;span style=&quot;color:#7f0055;font-weight:bold;&quot;&gt;catch&lt;/span&gt;&lt;span style=&quot;color:#000000;&quot;&gt; (Exception &lt;/span&gt;&lt;span style=&quot;color:#6a3e3e;&quot;&gt;e&lt;/span&gt;&lt;span style=&quot;color:#000000;&quot;&gt;) {&lt;/span&gt;&lt;/p&gt;&lt;p style=&quot;margin:0;&quot;&gt;&lt;span style=&quot;color:#000000;&quot;&gt;&lt;span style=&quot;white-space: pre;&quot;&gt;&amp;nbsp;&amp;nbsp;&amp;nbsp;&amp;nbsp;&lt;/span&gt;&lt;span style=&quot;white-space: pre;&quot;&gt;&amp;nbsp;&amp;nbsp;&amp;nbsp;&amp;nbsp;&lt;/span&gt;&lt;span style=&quot;white-space: pre;&quot;&gt;&amp;nbsp;&amp;nbsp;&amp;nbsp;&amp;nbsp;&lt;/span&gt;&lt;span style=&quot;white-space: pre;&quot;&gt;&amp;nbsp;&amp;nbsp;&amp;nbsp;&amp;nbsp;&lt;/span&gt;&lt;/span&gt;&lt;span style=&quot;color:#0000c0;font-style:italic;font-weight:bold;&quot;&gt;LOG&lt;/span&gt;&lt;span style=&quot;color:#000000;&quot;&gt;.error(&lt;/span&gt;&lt;span style=&quot;color:#2a00ff;&quot;&gt;&quot;Exception Exception while getSecureInfoFromServer &quot;&lt;/span&gt;&lt;span style=&quot;color:#000000;&quot;&gt;, &lt;/span&gt;&lt;span style=&quot;color:#6a3e3e;&quot;&gt;e&lt;/span&gt;&lt;span style=&quot;color:#000000;&quot;&gt;);&lt;/span&gt;&lt;/p&gt;&lt;p style=&quot;margin:0;&quot;&gt;&lt;span style=&quot;color:#000000;&quot;&gt;&lt;span style=&quot;white-space: pre;&quot;&gt;&amp;nbsp;&amp;nbsp;&amp;nbsp;&amp;nbsp;&lt;/span&gt;&lt;span style=&quot;white-space: pre;&quot;&gt;&amp;nbsp;&amp;nbsp;&amp;nbsp;&amp;nbsp;&lt;/span&gt;&lt;span style=&quot;white-space: pre;&quot;&gt;&amp;nbsp;&amp;nbsp;&amp;nbsp;&amp;nbsp;&lt;/span&gt;&lt;span style=&quot;white-space: pre;&quot;&gt;&amp;nbsp;&amp;nbsp;&amp;nbsp;&amp;nbsp;&lt;/span&gt;showError(&lt;/span&gt;&lt;span style=&quot;color:#6a3e3e;&quot;&gt;e&lt;/span&gt;&lt;span style=&quot;color:#000000;&quot;&gt;.getMessage());&lt;/span&gt;&lt;/p&gt;&lt;p style=&quot;margin:0;&quot;&gt;&lt;span style=&quot;color:#000000;&quot;&gt;&lt;span style=&quot;white-space: pre;&quot;&gt;&amp;nbsp;&amp;nbsp;&amp;nbsp;&amp;nbsp;&lt;/span&gt;&lt;span style=&quot;white-space: pre;&quot;&gt;&amp;nbsp;&amp;nbsp;&amp;nbsp;&amp;nbsp;&lt;/span&gt;&lt;span style=&quot;white-space: pre;&quot;&gt;&amp;nbsp;&amp;nbsp;&amp;nbsp;&amp;nbsp;&lt;/span&gt;&lt;span style=&quot;white-space: pre;&quot;&gt;&amp;nbsp;&amp;nbsp;&amp;nbsp;&amp;nbsp;&lt;/span&gt;System.&lt;/span&gt;&lt;span style=&quot;color:#000000;font-style:italic;&quot;&gt;exit&lt;/span&gt;&lt;span style=&quot;color:#000000;&quot;&gt;(0);&lt;/span&gt;&lt;/p&gt;&lt;p style=&quot;margin:0;&quot;&gt;&lt;span style=&quot;color:#000000;&quot;&gt;&lt;span style=&quot;white-space: pre;&quot;&gt;&amp;nbsp;&amp;nbsp;&amp;nbsp;&amp;nbsp;&lt;/span&gt;&lt;span style=&quot;white-space: pre;&quot;&gt;&amp;nbsp;&amp;nbsp;&amp;nbsp;&amp;nbsp;&lt;/span&gt;&lt;span style=&quot;white-space: pre;&quot;&gt;&amp;nbsp;&amp;nbsp;&amp;nbsp;&amp;nbsp;&lt;/span&gt;}&lt;/span&gt;&lt;/p&gt;&lt;p style=&quot;margin:0;&quot;&gt;&lt;span style=&quot;color:#000000;&quot;&gt;&lt;span style=&quot;white-space: pre;&quot;&gt;&amp;nbsp;&amp;nbsp;&amp;nbsp;&amp;nbsp;&lt;/span&gt;&lt;span style=&quot;white-space: pre;&quot;&gt;&amp;nbsp;&amp;nbsp;&amp;nbsp;&amp;nbsp;&lt;/span&gt;&lt;span style=&quot;white-space: pre;&quot;&gt;&amp;nbsp;&amp;nbsp;&amp;nbsp;&amp;nbsp;&lt;/span&gt;&lt;/span&gt;&lt;span style=&quot;color:#0000c0;font-style:italic;font-weight:bold;&quot;&gt;LOG&lt;/span&gt;&lt;span style=&quot;color:#000000;&quot;&gt;.info(&lt;/span&gt;&lt;span style=&quot;color:#2a00ff;&quot;&gt;&quot;getSecureInfoFromServer end in &quot;&lt;/span&gt;&lt;span style=&quot;color:#000000;&quot;&gt; + (System.&lt;/span&gt;&lt;span style=&quot;color:#000000;font-style:italic;&quot;&gt;currentTimeMillis&lt;/span&gt;&lt;span style=&quot;color:#000000;&quot;&gt;() - &lt;/span&gt;&lt;span style=&quot;color:#6a3e3e;&quot;&gt;start&lt;/span&gt;&lt;span style=&quot;color:#000000;&quot;&gt;));&lt;/span&gt;&lt;/p&gt;&lt;p style=&quot;margin:0;&quot;&gt;&lt;span style=&quot;color:#000000;&quot;&gt;&lt;span style=&quot;white-space: pre;&quot;&gt;&amp;nbsp;&amp;nbsp;&amp;nbsp;&amp;nbsp;&lt;/span&gt;&lt;span style=&quot;white-space: pre;&quot;&gt;&amp;nbsp;&amp;nbsp;&amp;nbsp;&amp;nbsp;&lt;/span&gt;}&lt;/span&gt;&lt;/p&gt;&lt;/div&gt;&lt;/div&gt;" style="rounded=0;whiteSpace=wrap;html=1;align=left;" vertex="1" parent="1">
          <mxGeometry x="370" y="-370" width="930" height="480" as="geometry" />
        </mxCell>
        <mxCell id="O5zNuaVCbxs11Thn1c3W-1" value="&lt;div align=&quot;left&quot; style=&quot;background-color:#ffffff;padding:0px 0px 0px 2px;&quot;&gt;&lt;div style=&quot;color: rgb(0, 0, 0); background-color: rgb(255, 255, 255); font-family: &amp;quot;Courier New&amp;quot;; font-size: 10pt;&quot;&gt;&lt;p style=&quot;margin:0;&quot;&gt;@&lt;span style=&quot;color:#646464;background-color:#d4d4d4;&quot;&gt;Entity&lt;/span&gt;&lt;/p&gt;&lt;p style=&quot;margin:0;&quot;&gt;&lt;span style=&quot;color:#646464;&quot;&gt;@JsonIgnoreProperties&lt;/span&gt;&lt;span style=&quot;color:#000000;&quot;&gt;({ &lt;/span&gt;&lt;span style=&quot;color:#2a00ff;&quot;&gt;&quot;hibernateLazyInitializer&quot;&lt;/span&gt;&lt;span style=&quot;color:#000000;&quot;&gt;, &lt;/span&gt;&lt;span style=&quot;color:#2a00ff;&quot;&gt;&quot;handler&quot;&lt;/span&gt;&lt;span style=&quot;color:#000000;&quot;&gt; })&lt;/span&gt;&lt;/p&gt;&lt;p style=&quot;margin:0;&quot;&gt;&lt;span style=&quot;color:#3f7f5f;&quot;&gt;// very imp&lt;/span&gt;&lt;/p&gt;&lt;p style=&quot;margin:0;&quot;&gt;&lt;span style=&quot;color:#7f0055;font-weight:bold;&quot;&gt;public&lt;/span&gt;&lt;span style=&quot;color:#000000;&quot;&gt; &lt;/span&gt;&lt;span style=&quot;color:#7f0055;font-weight:bold;&quot;&gt;class&lt;/span&gt;&lt;span style=&quot;color:#000000;&quot;&gt; SecureObject &lt;/span&gt;&lt;span style=&quot;color:#7f0055;font-weight:bold;&quot;&gt;implements&lt;/span&gt;&lt;span style=&quot;color:#000000;&quot;&gt; Serializable {&lt;/span&gt;&lt;/p&gt;&lt;p style=&quot;margin:0;&quot;&gt;&lt;br&gt;&lt;/p&gt;&lt;p style=&quot;margin:0;&quot;&gt;&lt;span style=&quot;color:#000000;&quot;&gt;&lt;span style=&quot;white-space: pre;&quot;&gt;&amp;nbsp;&amp;nbsp;&amp;nbsp;&amp;nbsp;&lt;/span&gt;&lt;/span&gt;&lt;span style=&quot;color:#7f0055;font-weight:bold;&quot;&gt;private&lt;/span&gt;&lt;span style=&quot;color:#000000;&quot;&gt; &lt;/span&gt;&lt;span style=&quot;color:#7f0055;font-weight:bold;&quot;&gt;static&lt;/span&gt;&lt;span style=&quot;color:#000000;&quot;&gt; &lt;/span&gt;&lt;span style=&quot;color:#7f0055;font-weight:bold;&quot;&gt;final&lt;/span&gt;&lt;span style=&quot;color:#000000;&quot;&gt; &lt;/span&gt;&lt;span style=&quot;color:#7f0055;font-weight:bold;&quot;&gt;long&lt;/span&gt;&lt;span style=&quot;color:#000000;&quot;&gt; &lt;/span&gt;&lt;span style=&quot;color:#0000c0;font-style:italic;font-weight:bold;&quot;&gt;serialVersionUID&lt;/span&gt;&lt;span style=&quot;color:#000000;&quot;&gt; = 7703507877757883260L;&lt;/span&gt;&lt;/p&gt;&lt;p style=&quot;margin:0;&quot;&gt;&lt;span style=&quot;color:#000000;&quot;&gt;&lt;span style=&quot;white-space: pre;&quot;&gt;&amp;nbsp;&amp;nbsp;&amp;nbsp;&amp;nbsp;&lt;/span&gt;&lt;/span&gt;&lt;span style=&quot;color:#646464;&quot;&gt;@Id&lt;/span&gt;&lt;/p&gt;&lt;p style=&quot;margin:0;&quot;&gt;&lt;span style=&quot;color:#000000;&quot;&gt;&lt;span style=&quot;white-space: pre;&quot;&gt;&amp;nbsp;&amp;nbsp;&amp;nbsp;&amp;nbsp;&lt;/span&gt;&lt;/span&gt;&lt;span style=&quot;color:#646464;&quot;&gt;@GeneratedValue&lt;/span&gt;&lt;span style=&quot;color:#000000;&quot;&gt;(strategy = GenerationType.&lt;/span&gt;&lt;span style=&quot;color:#0000c0;font-style:italic;font-weight:bold;&quot;&gt;AUTO&lt;/span&gt;&lt;span style=&quot;color:#000000;&quot;&gt;)&lt;/span&gt;&lt;/p&gt;&lt;p style=&quot;margin:0;&quot;&gt;&lt;span style=&quot;color:#000000;&quot;&gt;&lt;span style=&quot;white-space: pre;&quot;&gt;&amp;nbsp;&amp;nbsp;&amp;nbsp;&amp;nbsp;&lt;/span&gt;&lt;/span&gt;&lt;span style=&quot;color:#7f0055;font-weight:bold;&quot;&gt;private&lt;/span&gt;&lt;span style=&quot;color:#000000;&quot;&gt; Long &lt;/span&gt;&lt;span style=&quot;color:#0000c0;&quot;&gt;id&lt;/span&gt;&lt;span style=&quot;color:#000000;&quot;&gt;;&lt;/span&gt;&lt;/p&gt;&lt;p style=&quot;margin:0;&quot;&gt;&lt;br&gt;&lt;/p&gt;&lt;p style=&quot;margin:0;&quot;&gt;&lt;span style=&quot;color:#000000;&quot;&gt;&lt;span style=&quot;white-space: pre;&quot;&gt;&amp;nbsp;&amp;nbsp;&amp;nbsp;&amp;nbsp;&lt;/span&gt;&lt;/span&gt;&lt;span style=&quot;color:#7f0055;font-weight:bold;&quot;&gt;private&lt;/span&gt;&lt;span style=&quot;color:#000000;&quot;&gt; String &lt;/span&gt;&lt;span style=&quot;color:#0000c0;&quot;&gt;name&lt;/span&gt;&lt;span style=&quot;color:#000000;&quot;&gt;;&lt;/span&gt;&lt;/p&gt;&lt;p style=&quot;margin:0;&quot;&gt;&lt;span style=&quot;color:#000000;&quot;&gt;&lt;span style=&quot;white-space: pre;&quot;&gt;&amp;nbsp;&amp;nbsp;&amp;nbsp;&amp;nbsp;&lt;/span&gt;&lt;/span&gt;&lt;span style=&quot;color:#7f0055;font-weight:bold;&quot;&gt;private&lt;/span&gt;&lt;span style=&quot;color:#000000;&quot;&gt; String &lt;/span&gt;&lt;span style=&quot;color:#0000c0;&quot;&gt;publicKey&lt;/span&gt;&lt;span style=&quot;color:#000000;&quot;&gt;;&lt;/span&gt;&lt;/p&gt;&lt;p style=&quot;margin:0;&quot;&gt;&lt;span style=&quot;color:#000000;&quot;&gt;&lt;span style=&quot;white-space: pre;&quot;&gt;&amp;nbsp;&amp;nbsp;&amp;nbsp;&amp;nbsp;&lt;/span&gt;&lt;/span&gt;&lt;span style=&quot;color:#7f0055;font-weight:bold;&quot;&gt;private&lt;/span&gt;&lt;span style=&quot;color:#000000;&quot;&gt; String &lt;/span&gt;&lt;span style=&quot;color:#0000c0;&quot;&gt;token&lt;/span&gt;&lt;span style=&quot;color:#000000;&quot;&gt;;&lt;/span&gt;&lt;/p&gt;&lt;p style=&quot;margin:0;&quot;&gt;&lt;span style=&quot;color:#000000;&quot;&gt;&lt;span style=&quot;white-space: pre;&quot;&gt;&amp;nbsp;&amp;nbsp;&amp;nbsp;&amp;nbsp;&lt;/span&gt;&lt;/span&gt;&lt;span style=&quot;color:#7f0055;font-weight:bold;&quot;&gt;private&lt;/span&gt;&lt;span style=&quot;color:#000000;&quot;&gt; String &lt;/span&gt;&lt;span style=&quot;color:#0000c0;&quot;&gt;exponents&lt;/span&gt;&lt;span style=&quot;color:#000000;&quot;&gt;;&lt;/span&gt;&lt;/p&gt;&lt;p style=&quot;margin:0;&quot;&gt;&lt;span style=&quot;color:#000000;&quot;&gt;&lt;span style=&quot;white-space: pre;&quot;&gt;&amp;nbsp;&amp;nbsp;&amp;nbsp;&amp;nbsp;&lt;/span&gt;&lt;/span&gt;&lt;span style=&quot;color:#7f0055;font-weight:bold;&quot;&gt;private&lt;/span&gt;&lt;span style=&quot;color:#000000;&quot;&gt; String &lt;/span&gt;&lt;span style=&quot;color:#0000c0;&quot;&gt;key&lt;/span&gt;&lt;span style=&quot;color:#000000;&quot;&gt;;&lt;/span&gt;&lt;/p&gt;&lt;p style=&quot;margin:0;&quot;&gt;&lt;span style=&quot;color:#000000;&quot;&gt;&lt;span style=&quot;white-space: pre;&quot;&gt;&amp;nbsp;&amp;nbsp;&amp;nbsp;&amp;nbsp;&lt;/span&gt;&lt;/span&gt;&lt;span style=&quot;color:#7f0055;font-weight:bold;&quot;&gt;private&lt;/span&gt;&lt;span style=&quot;color:#000000;&quot;&gt; String &lt;/span&gt;&lt;span style=&quot;color:#0000c0;&quot;&gt;kcv&lt;/span&gt;&lt;span style=&quot;color:#000000;&quot;&gt;;&lt;/span&gt;&lt;/p&gt;&lt;p style=&quot;margin:0;&quot;&gt;&lt;br&gt;&lt;/p&gt;&lt;p style=&quot;margin:0;&quot;&gt;&lt;span style=&quot;color:#000000;&quot;&gt;&lt;span style=&quot;white-space: pre;&quot;&gt;&amp;nbsp;&amp;nbsp;&amp;nbsp;&amp;nbsp;&lt;/span&gt;&lt;/span&gt;&lt;span style=&quot;color:#7f0055;font-weight:bold;&quot;&gt;public&lt;/span&gt;&lt;span style=&quot;color:#000000;&quot;&gt; Long getId() {&lt;/span&gt;&lt;/p&gt;&lt;p style=&quot;margin:0;&quot;&gt;&lt;span style=&quot;color:#000000;&quot;&gt;&lt;span style=&quot;white-space: pre;&quot;&gt;&amp;nbsp;&amp;nbsp;&amp;nbsp;&amp;nbsp;&lt;/span&gt;&lt;span style=&quot;white-space: pre;&quot;&gt;&amp;nbsp;&amp;nbsp;&amp;nbsp;&amp;nbsp;&lt;/span&gt;&lt;/span&gt;&lt;span style=&quot;color:#7f0055;font-weight:bold;&quot;&gt;return&lt;/span&gt;&lt;span style=&quot;color:#000000;&quot;&gt; &lt;/span&gt;&lt;span style=&quot;color:#0000c0;&quot;&gt;id&lt;/span&gt;&lt;span style=&quot;color:#000000;&quot;&gt;;&lt;/span&gt;&lt;/p&gt;&lt;p style=&quot;margin:0;&quot;&gt;&lt;span style=&quot;color:#000000;&quot;&gt;&lt;span style=&quot;white-space: pre;&quot;&gt;&amp;nbsp;&amp;nbsp;&amp;nbsp;&amp;nbsp;&lt;/span&gt;}&lt;/span&gt;&lt;/p&gt;&lt;p style=&quot;margin:0;&quot;&gt;&lt;br&gt;&lt;/p&gt;&lt;p style=&quot;margin:0;&quot;&gt;&lt;span style=&quot;color:#000000;&quot;&gt;&lt;span style=&quot;white-space: pre;&quot;&gt;&amp;nbsp;&amp;nbsp;&amp;nbsp;&amp;nbsp;&lt;/span&gt;&lt;/span&gt;&lt;span style=&quot;color:#7f0055;font-weight:bold;&quot;&gt;public&lt;/span&gt;&lt;span style=&quot;color:#000000;&quot;&gt; &lt;/span&gt;&lt;span style=&quot;color:#7f0055;font-weight:bold;&quot;&gt;void&lt;/span&gt;&lt;span style=&quot;color:#000000;&quot;&gt; setId(Long &lt;/span&gt;&lt;span style=&quot;color:#6a3e3e;&quot;&gt;id&lt;/span&gt;&lt;span style=&quot;color:#000000;&quot;&gt;) {&lt;/span&gt;&lt;/p&gt;&lt;p style=&quot;margin:0;&quot;&gt;&lt;span style=&quot;color:#000000;&quot;&gt;&lt;span style=&quot;white-space: pre;&quot;&gt;&amp;nbsp;&amp;nbsp;&amp;nbsp;&amp;nbsp;&lt;/span&gt;&lt;span style=&quot;white-space: pre;&quot;&gt;&amp;nbsp;&amp;nbsp;&amp;nbsp;&amp;nbsp;&lt;/span&gt;&lt;/span&gt;&lt;span style=&quot;color:#7f0055;font-weight:bold;&quot;&gt;this&lt;/span&gt;&lt;span style=&quot;color:#000000;&quot;&gt;.&lt;/span&gt;&lt;span style=&quot;color:#0000c0;&quot;&gt;id&lt;/span&gt;&lt;span style=&quot;color:#000000;&quot;&gt; = &lt;/span&gt;&lt;span style=&quot;color:#6a3e3e;&quot;&gt;id&lt;/span&gt;&lt;span style=&quot;color:#000000;&quot;&gt;;&lt;/span&gt;&lt;/p&gt;&lt;p style=&quot;margin:0;&quot;&gt;&lt;span style=&quot;color:#000000;&quot;&gt;&lt;span style=&quot;white-space: pre;&quot;&gt;&amp;nbsp;&amp;nbsp;&amp;nbsp;&amp;nbsp;&lt;/span&gt;}&lt;/span&gt;&lt;/p&gt;&lt;p style=&quot;margin:0;&quot;&gt;&lt;br&gt;&lt;/p&gt;&lt;p style=&quot;margin:0;&quot;&gt;&lt;span style=&quot;color:#000000;&quot;&gt;&lt;span style=&quot;white-space: pre;&quot;&gt;&amp;nbsp;&amp;nbsp;&amp;nbsp;&amp;nbsp;&lt;/span&gt;&lt;/span&gt;&lt;span style=&quot;color:#7f0055;font-weight:bold;&quot;&gt;public&lt;/span&gt;&lt;span style=&quot;color:#000000;&quot;&gt; String getPublicKey() {&lt;/span&gt;&lt;/p&gt;&lt;p style=&quot;margin:0;&quot;&gt;&lt;span style=&quot;color:#000000;&quot;&gt;&lt;span style=&quot;white-space: pre;&quot;&gt;&amp;nbsp;&amp;nbsp;&amp;nbsp;&amp;nbsp;&lt;/span&gt;&lt;span style=&quot;white-space: pre;&quot;&gt;&amp;nbsp;&amp;nbsp;&amp;nbsp;&amp;nbsp;&lt;/span&gt;&lt;/span&gt;&lt;span style=&quot;color:#7f0055;font-weight:bold;&quot;&gt;return&lt;/span&gt;&lt;span style=&quot;color:#000000;&quot;&gt; &lt;/span&gt;&lt;span style=&quot;color:#0000c0;&quot;&gt;publicKey&lt;/span&gt;&lt;span style=&quot;color:#000000;&quot;&gt;;&lt;/span&gt;&lt;/p&gt;&lt;p style=&quot;margin:0;&quot;&gt;&lt;span style=&quot;color:#000000;&quot;&gt;&lt;span style=&quot;white-space: pre;&quot;&gt;&amp;nbsp;&amp;nbsp;&amp;nbsp;&amp;nbsp;&lt;/span&gt;}&lt;/span&gt;&lt;/p&gt;&lt;p style=&quot;margin:0;&quot;&gt;&lt;br&gt;&lt;/p&gt;&lt;p style=&quot;margin:0;&quot;&gt;&lt;span style=&quot;color:#000000;&quot;&gt;&lt;span style=&quot;white-space: pre;&quot;&gt;&amp;nbsp;&amp;nbsp;&amp;nbsp;&amp;nbsp;&lt;/span&gt;&lt;/span&gt;&lt;span style=&quot;color:#7f0055;font-weight:bold;&quot;&gt;public&lt;/span&gt;&lt;span style=&quot;color:#000000;&quot;&gt; &lt;/span&gt;&lt;span style=&quot;color:#7f0055;font-weight:bold;&quot;&gt;void&lt;/span&gt;&lt;span style=&quot;color:#000000;&quot;&gt; setPublicKey(String &lt;/span&gt;&lt;span style=&quot;color:#6a3e3e;&quot;&gt;publicKey&lt;/span&gt;&lt;span style=&quot;color:#000000;&quot;&gt;) {&lt;/span&gt;&lt;/p&gt;&lt;p style=&quot;margin:0;&quot;&gt;&lt;span style=&quot;color:#000000;&quot;&gt;&lt;span style=&quot;white-space: pre;&quot;&gt;&amp;nbsp;&amp;nbsp;&amp;nbsp;&amp;nbsp;&lt;/span&gt;&lt;span style=&quot;white-space: pre;&quot;&gt;&amp;nbsp;&amp;nbsp;&amp;nbsp;&amp;nbsp;&lt;/span&gt;&lt;/span&gt;&lt;span style=&quot;color:#7f0055;font-weight:bold;&quot;&gt;this&lt;/span&gt;&lt;span style=&quot;color:#000000;&quot;&gt;.&lt;/span&gt;&lt;span style=&quot;color:#0000c0;&quot;&gt;publicKey&lt;/span&gt;&lt;span style=&quot;color:#000000;&quot;&gt; = &lt;/span&gt;&lt;span style=&quot;color:#6a3e3e;&quot;&gt;publicKey&lt;/span&gt;&lt;span style=&quot;color:#000000;&quot;&gt;;&lt;/span&gt;&lt;/p&gt;&lt;p style=&quot;margin:0;&quot;&gt;&lt;span style=&quot;color:#000000;&quot;&gt;&lt;span style=&quot;white-space: pre;&quot;&gt;&amp;nbsp;&amp;nbsp;&amp;nbsp;&amp;nbsp;&lt;/span&gt;}&lt;/span&gt;&lt;/p&gt;&lt;p style=&quot;margin:0;&quot;&gt;&lt;br&gt;&lt;/p&gt;&lt;p style=&quot;margin:0;&quot;&gt;&lt;span style=&quot;color:#000000;&quot;&gt;&lt;span style=&quot;white-space: pre;&quot;&gt;&amp;nbsp;&amp;nbsp;&amp;nbsp;&amp;nbsp;&lt;/span&gt;&lt;/span&gt;&lt;span style=&quot;color:#7f0055;font-weight:bold;&quot;&gt;public&lt;/span&gt;&lt;span style=&quot;color:#000000;&quot;&gt; String getToken() {&lt;/span&gt;&lt;/p&gt;&lt;p style=&quot;margin:0;&quot;&gt;&lt;span style=&quot;color:#000000;&quot;&gt;&lt;span style=&quot;white-space: pre;&quot;&gt;&amp;nbsp;&amp;nbsp;&amp;nbsp;&amp;nbsp;&lt;/span&gt;&lt;span style=&quot;white-space: pre;&quot;&gt;&amp;nbsp;&amp;nbsp;&amp;nbsp;&amp;nbsp;&lt;/span&gt;&lt;/span&gt;&lt;span style=&quot;color:#7f0055;font-weight:bold;&quot;&gt;return&lt;/span&gt;&lt;span style=&quot;color:#000000;&quot;&gt; &lt;/span&gt;&lt;span style=&quot;color:#0000c0;&quot;&gt;token&lt;/span&gt;&lt;span style=&quot;color:#000000;&quot;&gt;;&lt;/span&gt;&lt;/p&gt;&lt;p style=&quot;margin:0;&quot;&gt;&lt;span style=&quot;color:#000000;&quot;&gt;&lt;span style=&quot;white-space: pre;&quot;&gt;&amp;nbsp;&amp;nbsp;&amp;nbsp;&amp;nbsp;&lt;/span&gt;}&lt;/span&gt;&lt;/p&gt;&lt;p style=&quot;margin:0;&quot;&gt;&lt;br&gt;&lt;/p&gt;&lt;p style=&quot;margin:0;&quot;&gt;&lt;span style=&quot;color:#000000;&quot;&gt;&lt;span style=&quot;white-space: pre;&quot;&gt;&amp;nbsp;&amp;nbsp;&amp;nbsp;&amp;nbsp;&lt;/span&gt;&lt;/span&gt;&lt;span style=&quot;color:#7f0055;font-weight:bold;&quot;&gt;public&lt;/span&gt;&lt;span style=&quot;color:#000000;&quot;&gt; &lt;/span&gt;&lt;span style=&quot;color:#7f0055;font-weight:bold;&quot;&gt;void&lt;/span&gt;&lt;span style=&quot;color:#000000;&quot;&gt; setToken(String &lt;/span&gt;&lt;span style=&quot;color:#6a3e3e;&quot;&gt;token&lt;/span&gt;&lt;span style=&quot;color:#000000;&quot;&gt;) {&lt;/span&gt;&lt;/p&gt;&lt;p style=&quot;margin:0;&quot;&gt;&lt;span style=&quot;color:#000000;&quot;&gt;&lt;span style=&quot;white-space: pre;&quot;&gt;&amp;nbsp;&amp;nbsp;&amp;nbsp;&amp;nbsp;&lt;/span&gt;&lt;span style=&quot;white-space: pre;&quot;&gt;&amp;nbsp;&amp;nbsp;&amp;nbsp;&amp;nbsp;&lt;/span&gt;&lt;/span&gt;&lt;span style=&quot;color:#7f0055;font-weight:bold;&quot;&gt;this&lt;/span&gt;&lt;span style=&quot;color:#000000;&quot;&gt;.&lt;/span&gt;&lt;span style=&quot;color:#0000c0;&quot;&gt;token&lt;/span&gt;&lt;span style=&quot;color:#000000;&quot;&gt; = &lt;/span&gt;&lt;span style=&quot;color:#6a3e3e;&quot;&gt;token&lt;/span&gt;&lt;span style=&quot;color:#000000;&quot;&gt;;&lt;/span&gt;&lt;/p&gt;&lt;p style=&quot;margin:0;&quot;&gt;&lt;span style=&quot;color:#000000;&quot;&gt;&lt;span style=&quot;white-space: pre;&quot;&gt;&amp;nbsp;&amp;nbsp;&amp;nbsp;&amp;nbsp;&lt;/span&gt;}&lt;/span&gt;&lt;/p&gt;&lt;p style=&quot;margin:0;&quot;&gt;&lt;br&gt;&lt;/p&gt;&lt;p style=&quot;margin:0;&quot;&gt;&lt;span style=&quot;color:#000000;&quot;&gt;&lt;span style=&quot;white-space: pre;&quot;&gt;&amp;nbsp;&amp;nbsp;&amp;nbsp;&amp;nbsp;&lt;/span&gt;&lt;/span&gt;&lt;span style=&quot;color:#7f0055;font-weight:bold;&quot;&gt;public&lt;/span&gt;&lt;span style=&quot;color:#000000;&quot;&gt; String getExponents() {&lt;/span&gt;&lt;/p&gt;&lt;p style=&quot;margin:0;&quot;&gt;&lt;span style=&quot;color:#000000;&quot;&gt;&lt;span style=&quot;white-space: pre;&quot;&gt;&amp;nbsp;&amp;nbsp;&amp;nbsp;&amp;nbsp;&lt;/span&gt;&lt;span style=&quot;white-space: pre;&quot;&gt;&amp;nbsp;&amp;nbsp;&amp;nbsp;&amp;nbsp;&lt;/span&gt;&lt;/span&gt;&lt;span style=&quot;color:#7f0055;font-weight:bold;&quot;&gt;return&lt;/span&gt;&lt;span style=&quot;color:#000000;&quot;&gt; &lt;/span&gt;&lt;span style=&quot;color:#0000c0;&quot;&gt;exponents&lt;/span&gt;&lt;span style=&quot;color:#000000;&quot;&gt;;&lt;/span&gt;&lt;/p&gt;&lt;p style=&quot;margin:0;&quot;&gt;&lt;span style=&quot;color:#000000;&quot;&gt;&lt;span style=&quot;white-space: pre;&quot;&gt;&amp;nbsp;&amp;nbsp;&amp;nbsp;&amp;nbsp;&lt;/span&gt;}&lt;/span&gt;&lt;/p&gt;&lt;p style=&quot;margin:0;&quot;&gt;&lt;br&gt;&lt;/p&gt;&lt;p style=&quot;margin:0;&quot;&gt;&lt;span style=&quot;color:#000000;&quot;&gt;&lt;span style=&quot;white-space: pre;&quot;&gt;&amp;nbsp;&amp;nbsp;&amp;nbsp;&amp;nbsp;&lt;/span&gt;&lt;/span&gt;&lt;span style=&quot;color:#7f0055;font-weight:bold;&quot;&gt;public&lt;/span&gt;&lt;span style=&quot;color:#000000;&quot;&gt; &lt;/span&gt;&lt;span style=&quot;color:#7f0055;font-weight:bold;&quot;&gt;void&lt;/span&gt;&lt;span style=&quot;color:#000000;&quot;&gt; setExponents(String &lt;/span&gt;&lt;span style=&quot;color:#6a3e3e;&quot;&gt;exponents&lt;/span&gt;&lt;span style=&quot;color:#000000;&quot;&gt;) {&lt;/span&gt;&lt;/p&gt;&lt;p style=&quot;margin:0;&quot;&gt;&lt;span style=&quot;color:#000000;&quot;&gt;&lt;span style=&quot;white-space: pre;&quot;&gt;&amp;nbsp;&amp;nbsp;&amp;nbsp;&amp;nbsp;&lt;/span&gt;&lt;span style=&quot;white-space: pre;&quot;&gt;&amp;nbsp;&amp;nbsp;&amp;nbsp;&amp;nbsp;&lt;/span&gt;&lt;/span&gt;&lt;span style=&quot;color:#7f0055;font-weight:bold;&quot;&gt;this&lt;/span&gt;&lt;span style=&quot;color:#000000;&quot;&gt;.&lt;/span&gt;&lt;span style=&quot;color:#0000c0;&quot;&gt;exponents&lt;/span&gt;&lt;span style=&quot;color:#000000;&quot;&gt; = &lt;/span&gt;&lt;span style=&quot;color:#6a3e3e;&quot;&gt;exponents&lt;/span&gt;&lt;span style=&quot;color:#000000;&quot;&gt;;&lt;/span&gt;&lt;/p&gt;&lt;p style=&quot;margin:0;&quot;&gt;&lt;span style=&quot;color:#000000;&quot;&gt;&lt;span style=&quot;white-space: pre;&quot;&gt;&amp;nbsp;&amp;nbsp;&amp;nbsp;&amp;nbsp;&lt;/span&gt;}&lt;/span&gt;&lt;/p&gt;&lt;p style=&quot;margin:0;&quot;&gt;&lt;br&gt;&lt;/p&gt;&lt;p style=&quot;margin:0;&quot;&gt;&lt;span style=&quot;color:#000000;&quot;&gt;&lt;span style=&quot;white-space: pre;&quot;&gt;&amp;nbsp;&amp;nbsp;&amp;nbsp;&amp;nbsp;&lt;/span&gt;&lt;/span&gt;&lt;span style=&quot;color:#7f0055;font-weight:bold;&quot;&gt;public&lt;/span&gt;&lt;span style=&quot;color:#000000;&quot;&gt; String getKey() {&lt;/span&gt;&lt;/p&gt;&lt;p style=&quot;margin:0;&quot;&gt;&lt;span style=&quot;color:#000000;&quot;&gt;&lt;span style=&quot;white-space: pre;&quot;&gt;&amp;nbsp;&amp;nbsp;&amp;nbsp;&amp;nbsp;&lt;/span&gt;&lt;span style=&quot;white-space: pre;&quot;&gt;&amp;nbsp;&amp;nbsp;&amp;nbsp;&amp;nbsp;&lt;/span&gt;&lt;/span&gt;&lt;span style=&quot;color:#7f0055;font-weight:bold;&quot;&gt;return&lt;/span&gt;&lt;span style=&quot;color:#000000;&quot;&gt; &lt;/span&gt;&lt;span style=&quot;color:#0000c0;&quot;&gt;key&lt;/span&gt;&lt;span style=&quot;color:#000000;&quot;&gt;;&lt;/span&gt;&lt;/p&gt;&lt;p style=&quot;margin:0;&quot;&gt;&lt;span style=&quot;color:#000000;&quot;&gt;&lt;span style=&quot;white-space: pre;&quot;&gt;&amp;nbsp;&amp;nbsp;&amp;nbsp;&amp;nbsp;&lt;/span&gt;}&lt;/span&gt;&lt;/p&gt;&lt;p style=&quot;margin:0;&quot;&gt;&lt;br&gt;&lt;/p&gt;&lt;p style=&quot;margin:0;&quot;&gt;&lt;span style=&quot;color:#000000;&quot;&gt;&lt;span style=&quot;white-space: pre;&quot;&gt;&amp;nbsp;&amp;nbsp;&amp;nbsp;&amp;nbsp;&lt;/span&gt;&lt;/span&gt;&lt;span style=&quot;color:#7f0055;font-weight:bold;&quot;&gt;public&lt;/span&gt;&lt;span style=&quot;color:#000000;&quot;&gt; &lt;/span&gt;&lt;span style=&quot;color:#7f0055;font-weight:bold;&quot;&gt;void&lt;/span&gt;&lt;span style=&quot;color:#000000;&quot;&gt; setKey(String &lt;/span&gt;&lt;span style=&quot;color:#6a3e3e;&quot;&gt;key&lt;/span&gt;&lt;span style=&quot;color:#000000;&quot;&gt;) {&lt;/span&gt;&lt;/p&gt;&lt;p style=&quot;margin:0;&quot;&gt;&lt;span style=&quot;color:#000000;&quot;&gt;&lt;span style=&quot;white-space: pre;&quot;&gt;&amp;nbsp;&amp;nbsp;&amp;nbsp;&amp;nbsp;&lt;/span&gt;&lt;span style=&quot;white-space: pre;&quot;&gt;&amp;nbsp;&amp;nbsp;&amp;nbsp;&amp;nbsp;&lt;/span&gt;&lt;/span&gt;&lt;span style=&quot;color:#7f0055;font-weight:bold;&quot;&gt;this&lt;/span&gt;&lt;span style=&quot;color:#000000;&quot;&gt;.&lt;/span&gt;&lt;span style=&quot;color:#0000c0;&quot;&gt;key&lt;/span&gt;&lt;span style=&quot;color:#000000;&quot;&gt; = &lt;/span&gt;&lt;span style=&quot;color:#6a3e3e;&quot;&gt;key&lt;/span&gt;&lt;span style=&quot;color:#000000;&quot;&gt;;&lt;/span&gt;&lt;/p&gt;&lt;p style=&quot;margin:0;&quot;&gt;&lt;span style=&quot;color:#000000;&quot;&gt;&lt;span style=&quot;white-space: pre;&quot;&gt;&amp;nbsp;&amp;nbsp;&amp;nbsp;&amp;nbsp;&lt;/span&gt;}&lt;/span&gt;&lt;/p&gt;&lt;p style=&quot;margin:0;&quot;&gt;&lt;br&gt;&lt;/p&gt;&lt;p style=&quot;margin:0;&quot;&gt;&lt;span style=&quot;color:#000000;&quot;&gt;&lt;span style=&quot;white-space: pre;&quot;&gt;&amp;nbsp;&amp;nbsp;&amp;nbsp;&amp;nbsp;&lt;/span&gt;&lt;/span&gt;&lt;span style=&quot;color:#7f0055;font-weight:bold;&quot;&gt;public&lt;/span&gt;&lt;span style=&quot;color:#000000;&quot;&gt; String getKcv() {&lt;/span&gt;&lt;/p&gt;&lt;p style=&quot;margin:0;&quot;&gt;&lt;span style=&quot;color:#000000;&quot;&gt;&lt;span style=&quot;white-space: pre;&quot;&gt;&amp;nbsp;&amp;nbsp;&amp;nbsp;&amp;nbsp;&lt;/span&gt;&lt;span style=&quot;white-space: pre;&quot;&gt;&amp;nbsp;&amp;nbsp;&amp;nbsp;&amp;nbsp;&lt;/span&gt;&lt;/span&gt;&lt;span style=&quot;color:#7f0055;font-weight:bold;&quot;&gt;return&lt;/span&gt;&lt;span style=&quot;color:#000000;&quot;&gt; &lt;/span&gt;&lt;span style=&quot;color:#0000c0;&quot;&gt;kcv&lt;/span&gt;&lt;span style=&quot;color:#000000;&quot;&gt;;&lt;/span&gt;&lt;/p&gt;&lt;p style=&quot;margin:0;&quot;&gt;&lt;span style=&quot;color:#000000;&quot;&gt;&lt;span style=&quot;white-space: pre;&quot;&gt;&amp;nbsp;&amp;nbsp;&amp;nbsp;&amp;nbsp;&lt;/span&gt;}&lt;/span&gt;&lt;/p&gt;&lt;p style=&quot;margin:0;&quot;&gt;&lt;br&gt;&lt;/p&gt;&lt;p style=&quot;margin:0;&quot;&gt;&lt;span style=&quot;color:#000000;&quot;&gt;&lt;span style=&quot;white-space: pre;&quot;&gt;&amp;nbsp;&amp;nbsp;&amp;nbsp;&amp;nbsp;&lt;/span&gt;&lt;/span&gt;&lt;span style=&quot;color:#7f0055;font-weight:bold;&quot;&gt;public&lt;/span&gt;&lt;span style=&quot;color:#000000;&quot;&gt; &lt;/span&gt;&lt;span style=&quot;color:#7f0055;font-weight:bold;&quot;&gt;void&lt;/span&gt;&lt;span style=&quot;color:#000000;&quot;&gt; setKcv(String &lt;/span&gt;&lt;span style=&quot;color:#6a3e3e;&quot;&gt;kcv&lt;/span&gt;&lt;span style=&quot;color:#000000;&quot;&gt;) {&lt;/span&gt;&lt;/p&gt;&lt;p style=&quot;margin:0;&quot;&gt;&lt;span style=&quot;color:#000000;&quot;&gt;&lt;span style=&quot;white-space: pre;&quot;&gt;&amp;nbsp;&amp;nbsp;&amp;nbsp;&amp;nbsp;&lt;/span&gt;&lt;span style=&quot;white-space: pre;&quot;&gt;&amp;nbsp;&amp;nbsp;&amp;nbsp;&amp;nbsp;&lt;/span&gt;&lt;/span&gt;&lt;span style=&quot;color:#7f0055;font-weight:bold;&quot;&gt;this&lt;/span&gt;&lt;span style=&quot;color:#000000;&quot;&gt;.&lt;/span&gt;&lt;span style=&quot;color:#0000c0;&quot;&gt;kcv&lt;/span&gt;&lt;span style=&quot;color:#000000;&quot;&gt; = &lt;/span&gt;&lt;span style=&quot;color:#6a3e3e;&quot;&gt;kcv&lt;/span&gt;&lt;span style=&quot;color:#000000;&quot;&gt;;&lt;/span&gt;&lt;/p&gt;&lt;p style=&quot;margin:0;&quot;&gt;&lt;span style=&quot;color:#000000;&quot;&gt;&lt;span style=&quot;white-space: pre;&quot;&gt;&amp;nbsp;&amp;nbsp;&amp;nbsp;&amp;nbsp;&lt;/span&gt;}&lt;/span&gt;&lt;/p&gt;&lt;p style=&quot;margin:0;&quot;&gt;&lt;br&gt;&lt;/p&gt;&lt;p style=&quot;margin:0;&quot;&gt;&lt;span style=&quot;color:#000000;&quot;&gt;&lt;span style=&quot;white-space: pre;&quot;&gt;&amp;nbsp;&amp;nbsp;&amp;nbsp;&amp;nbsp;&lt;/span&gt;&lt;/span&gt;&lt;span style=&quot;color:#7f0055;font-weight:bold;&quot;&gt;public&lt;/span&gt;&lt;span style=&quot;color:#000000;&quot;&gt; String getName() {&lt;/span&gt;&lt;/p&gt;&lt;p style=&quot;margin:0;&quot;&gt;&lt;span style=&quot;color:#000000;&quot;&gt;&lt;span style=&quot;white-space: pre;&quot;&gt;&amp;nbsp;&amp;nbsp;&amp;nbsp;&amp;nbsp;&lt;/span&gt;&lt;span style=&quot;white-space: pre;&quot;&gt;&amp;nbsp;&amp;nbsp;&amp;nbsp;&amp;nbsp;&lt;/span&gt;&lt;/span&gt;&lt;span style=&quot;color:#7f0055;font-weight:bold;&quot;&gt;return&lt;/span&gt;&lt;span style=&quot;color:#000000;&quot;&gt; &lt;/span&gt;&lt;span style=&quot;color:#0000c0;&quot;&gt;name&lt;/span&gt;&lt;span style=&quot;color:#000000;&quot;&gt;;&lt;/span&gt;&lt;/p&gt;&lt;p style=&quot;margin:0;&quot;&gt;&lt;span style=&quot;color:#000000;&quot;&gt;&lt;span style=&quot;white-space: pre;&quot;&gt;&amp;nbsp;&amp;nbsp;&amp;nbsp;&amp;nbsp;&lt;/span&gt;}&lt;/span&gt;&lt;/p&gt;&lt;p style=&quot;margin:0;&quot;&gt;&lt;br&gt;&lt;/p&gt;&lt;p style=&quot;margin:0;&quot;&gt;&lt;span style=&quot;color:#000000;&quot;&gt;&lt;span style=&quot;white-space: pre;&quot;&gt;&amp;nbsp;&amp;nbsp;&amp;nbsp;&amp;nbsp;&lt;/span&gt;&lt;/span&gt;&lt;span style=&quot;color:#7f0055;font-weight:bold;&quot;&gt;public&lt;/span&gt;&lt;span style=&quot;color:#000000;&quot;&gt; &lt;/span&gt;&lt;span style=&quot;color:#7f0055;font-weight:bold;&quot;&gt;void&lt;/span&gt;&lt;span style=&quot;color:#000000;&quot;&gt; setName(String &lt;/span&gt;&lt;span style=&quot;color:#6a3e3e;&quot;&gt;name&lt;/span&gt;&lt;span style=&quot;color:#000000;&quot;&gt;) {&lt;/span&gt;&lt;/p&gt;&lt;p style=&quot;margin:0;&quot;&gt;&lt;span style=&quot;color:#000000;&quot;&gt;&lt;span style=&quot;white-space: pre;&quot;&gt;&amp;nbsp;&amp;nbsp;&amp;nbsp;&amp;nbsp;&lt;/span&gt;&lt;span style=&quot;white-space: pre;&quot;&gt;&amp;nbsp;&amp;nbsp;&amp;nbsp;&amp;nbsp;&lt;/span&gt;&lt;/span&gt;&lt;span style=&quot;color:#7f0055;font-weight:bold;&quot;&gt;this&lt;/span&gt;&lt;span style=&quot;color:#000000;&quot;&gt;.&lt;/span&gt;&lt;span style=&quot;color:#0000c0;&quot;&gt;name&lt;/span&gt;&lt;span style=&quot;color:#000000;&quot;&gt; = &lt;/span&gt;&lt;span style=&quot;color:#6a3e3e;&quot;&gt;name&lt;/span&gt;&lt;span style=&quot;color:#000000;&quot;&gt;;&lt;/span&gt;&lt;/p&gt;&lt;p style=&quot;margin:0;&quot;&gt;&lt;span style=&quot;color:#000000;&quot;&gt;&lt;span style=&quot;white-space: pre;&quot;&gt;&amp;nbsp;&amp;nbsp;&amp;nbsp;&amp;nbsp;&lt;/span&gt;}&lt;/span&gt;&lt;/p&gt;&lt;p style=&quot;margin:0;&quot;&gt;&lt;br&gt;&lt;/p&gt;&lt;p style=&quot;margin:0;&quot;&gt;&lt;span style=&quot;color:#000000;&quot;&gt;}&lt;/span&gt;&lt;/p&gt;&lt;/div&gt;&lt;/div&gt;" style="rounded=0;whiteSpace=wrap;html=1;align=left;" vertex="1" parent="1">
          <mxGeometry x="370" y="120" width="550" height="1230" as="geometry" />
        </mxCell>
      </root>
    </mxGraphModel>
  </diagram>
  <diagram id="XijgIEdFXpIkzYzx_okr" name="sendKeyToServer()">
    <mxGraphModel dx="1290" dy="558" grid="1" gridSize="10" guides="1" tooltips="1" connect="1" arrows="1" fold="1" page="1" pageScale="1" pageWidth="827" pageHeight="1169" math="0" shadow="0">
      <root>
        <mxCell id="0" />
        <mxCell id="1" parent="0" />
        <mxCell id="k_rkCRs8fC5o5r4N-SQ3-1" value="&lt;div align=&quot;left&quot; style=&quot;background-color:#ffffff;padding:0px 0px 0px 2px;&quot;&gt;&lt;div style=&quot;color: rgb(0, 0, 0); background-color: rgb(255, 255, 255); font-family: &amp;quot;Courier New&amp;quot;; font-size: 10pt;&quot;&gt;&lt;p style=&quot;margin:0;&quot;&gt;&lt;span style=&quot;color:#7f0055;font-weight:bold;&quot;&gt;private&lt;/span&gt;&lt;span style=&quot;color:#000000;&quot;&gt; &lt;/span&gt;&lt;span style=&quot;color:#7f0055;font-weight:bold;&quot;&gt;void&lt;/span&gt;&lt;span style=&quot;color:#000000;&quot;&gt; &lt;/span&gt;&lt;span style=&quot;color:#000000;background-color:#d4d4d4;&quot;&gt;sendKeyToServer&lt;/span&gt;&lt;span style=&quot;color:#000000;&quot;&gt;() {&lt;/span&gt;&lt;/p&gt;&lt;p style=&quot;margin:0;&quot;&gt;&lt;span style=&quot;color:#000000;&quot;&gt;&lt;span style=&quot;white-space: pre;&quot;&gt;&amp;nbsp;&amp;nbsp;&amp;nbsp;&amp;nbsp;&lt;/span&gt;&lt;span style=&quot;white-space: pre;&quot;&gt;&amp;nbsp;&amp;nbsp;&amp;nbsp;&amp;nbsp;&lt;/span&gt;&lt;/span&gt;&lt;span style=&quot;color:#0000c0;font-style:italic;font-weight:bold;&quot;&gt;LOG&lt;/span&gt;&lt;span style=&quot;color:#000000;&quot;&gt;.info(&lt;/span&gt;&lt;span style=&quot;color:#2a00ff;&quot;&gt;&quot;sendKeyToServer start &quot;&lt;/span&gt;&lt;span style=&quot;color:#000000;&quot;&gt;);&lt;/span&gt;&lt;/p&gt;&lt;p style=&quot;margin:0;&quot;&gt;&lt;span style=&quot;color:#000000;&quot;&gt;&lt;span style=&quot;white-space: pre;&quot;&gt;&amp;nbsp;&amp;nbsp;&amp;nbsp;&amp;nbsp;&lt;/span&gt;&lt;span style=&quot;white-space: pre;&quot;&gt;&amp;nbsp;&amp;nbsp;&amp;nbsp;&amp;nbsp;&lt;/span&gt;&lt;/span&gt;&lt;span style=&quot;color:#7f0055;font-weight:bold;&quot;&gt;long&lt;/span&gt;&lt;span style=&quot;color:#000000;&quot;&gt; &lt;/span&gt;&lt;span style=&quot;color:#6a3e3e;&quot;&gt;start&lt;/span&gt;&lt;span style=&quot;color:#000000;&quot;&gt; = System.&lt;/span&gt;&lt;span style=&quot;color:#000000;font-style:italic;&quot;&gt;currentTimeMillis&lt;/span&gt;&lt;span style=&quot;color:#000000;&quot;&gt;();&lt;/span&gt;&lt;/p&gt;&lt;p style=&quot;margin:0;&quot;&gt;&lt;span style=&quot;color:#000000;&quot;&gt;&lt;span style=&quot;white-space: pre;&quot;&gt;&amp;nbsp;&amp;nbsp;&amp;nbsp;&amp;nbsp;&lt;/span&gt;&lt;span style=&quot;white-space: pre;&quot;&gt;&amp;nbsp;&amp;nbsp;&amp;nbsp;&amp;nbsp;&lt;/span&gt;&lt;/span&gt;&lt;span style=&quot;color:#7f0055;font-weight:bold;&quot;&gt;if&lt;/span&gt;&lt;span style=&quot;color:#000000;&quot;&gt; (&lt;/span&gt;&lt;span style=&quot;color:#0000c0;&quot;&gt;keySession&lt;/span&gt;&lt;span style=&quot;color:#000000;&quot;&gt; != &lt;/span&gt;&lt;span style=&quot;color:#7f0055;font-weight:bold;&quot;&gt;null&lt;/span&gt;&lt;span style=&quot;color:#000000;&quot;&gt;) {&lt;/span&gt;&lt;/p&gt;&lt;p style=&quot;margin:0;&quot;&gt;&lt;span style=&quot;color:#000000;&quot;&gt;&lt;span style=&quot;white-space: pre;&quot;&gt;&amp;nbsp;&amp;nbsp;&amp;nbsp;&amp;nbsp;&lt;/span&gt;&lt;span style=&quot;white-space: pre;&quot;&gt;&amp;nbsp;&amp;nbsp;&amp;nbsp;&amp;nbsp;&lt;/span&gt;&lt;span style=&quot;white-space: pre;&quot;&gt;&amp;nbsp;&amp;nbsp;&amp;nbsp;&amp;nbsp;&lt;/span&gt;&lt;/span&gt;&lt;span style=&quot;color:#7f0055;font-weight:bold;&quot;&gt;byte&lt;/span&gt;&lt;span style=&quot;color:#000000;&quot;&gt;[] &lt;/span&gt;&lt;span style=&quot;color:#6a3e3e;&quot;&gt;result&lt;/span&gt;&lt;span style=&quot;color:#000000;&quot;&gt; = &lt;/span&gt;&lt;span style=&quot;color:#0000c0;&quot;&gt;toolsWin&lt;/span&gt;&lt;span style=&quot;color:#000000;&quot;&gt;.encipherByPublicKey(&lt;/span&gt;&lt;/p&gt;&lt;p style=&quot;margin:0;&quot;&gt;&lt;span style=&quot;color:#000000;&quot;&gt;&lt;span style=&quot;white-space: pre;&quot;&gt;&amp;nbsp;&amp;nbsp;&amp;nbsp;&amp;nbsp;&lt;/span&gt;&lt;span style=&quot;white-space: pre;&quot;&gt;&amp;nbsp;&amp;nbsp;&amp;nbsp;&amp;nbsp;&lt;/span&gt;&lt;span style=&quot;white-space: pre;&quot;&gt;&amp;nbsp;&amp;nbsp;&amp;nbsp;&amp;nbsp;&lt;/span&gt;&lt;span style=&quot;white-space: pre;&quot;&gt;&amp;nbsp;&amp;nbsp;&amp;nbsp;&amp;nbsp;&lt;/span&gt;&lt;span style=&quot;white-space: pre;&quot;&gt;&amp;nbsp;&amp;nbsp;&amp;nbsp;&amp;nbsp;&lt;/span&gt;&lt;/span&gt;&lt;span style=&quot;color:#0000c0;&quot;&gt;toolsWin&lt;/span&gt;&lt;span style=&quot;color:#000000;&quot;&gt;.hexString2byteArray(&lt;/span&gt;&lt;span style=&quot;color:#0000c0;&quot;&gt;keySession&lt;/span&gt;&lt;span style=&quot;color:#000000;&quot;&gt;),&lt;/span&gt;&lt;/p&gt;&lt;p style=&quot;margin:0;&quot;&gt;&lt;span style=&quot;color:#000000;&quot;&gt;&lt;span style=&quot;white-space: pre;&quot;&gt;&amp;nbsp;&amp;nbsp;&amp;nbsp;&amp;nbsp;&lt;/span&gt;&lt;span style=&quot;white-space: pre;&quot;&gt;&amp;nbsp;&amp;nbsp;&amp;nbsp;&amp;nbsp;&lt;/span&gt;&lt;span style=&quot;white-space: pre;&quot;&gt;&amp;nbsp;&amp;nbsp;&amp;nbsp;&amp;nbsp;&lt;/span&gt;&lt;span style=&quot;white-space: pre;&quot;&gt;&amp;nbsp;&amp;nbsp;&amp;nbsp;&amp;nbsp;&lt;/span&gt;&lt;span style=&quot;white-space: pre;&quot;&gt;&amp;nbsp;&amp;nbsp;&amp;nbsp;&amp;nbsp;&lt;/span&gt;&lt;/span&gt;&lt;span style=&quot;color:#0000c0;&quot;&gt;toolsWin&lt;/span&gt;&lt;span style=&quot;color:#000000;&quot;&gt;.hexString2byteArray(&lt;/span&gt;&lt;span style=&quot;color:#0000c0;&quot;&gt;secureObject&lt;/span&gt;&lt;span style=&quot;color:#000000;&quot;&gt;.getExponents()),&lt;/span&gt;&lt;/p&gt;&lt;p style=&quot;margin:0;&quot;&gt;&lt;span style=&quot;color:#000000;&quot;&gt;&lt;span style=&quot;white-space: pre;&quot;&gt;&amp;nbsp;&amp;nbsp;&amp;nbsp;&amp;nbsp;&lt;/span&gt;&lt;span style=&quot;white-space: pre;&quot;&gt;&amp;nbsp;&amp;nbsp;&amp;nbsp;&amp;nbsp;&lt;/span&gt;&lt;span style=&quot;white-space: pre;&quot;&gt;&amp;nbsp;&amp;nbsp;&amp;nbsp;&amp;nbsp;&lt;/span&gt;&lt;span style=&quot;white-space: pre;&quot;&gt;&amp;nbsp;&amp;nbsp;&amp;nbsp;&amp;nbsp;&lt;/span&gt;&lt;span style=&quot;white-space: pre;&quot;&gt;&amp;nbsp;&amp;nbsp;&amp;nbsp;&amp;nbsp;&lt;/span&gt;&lt;/span&gt;&lt;span style=&quot;color:#0000c0;&quot;&gt;toolsWin&lt;/span&gt;&lt;span style=&quot;color:#000000;&quot;&gt;.hexString2byteArray(&lt;/span&gt;&lt;span style=&quot;color:#0000c0;&quot;&gt;secureObject&lt;/span&gt;&lt;span style=&quot;color:#000000;&quot;&gt;.getPublicKey()), &lt;/span&gt;&lt;span style=&quot;color:#2a00ff;&quot;&gt;&quot;PKCS1&quot;&lt;/span&gt;&lt;span style=&quot;color:#000000;&quot;&gt;);&lt;/span&gt;&lt;/p&gt;&lt;p style=&quot;margin:0;&quot;&gt;&lt;span style=&quot;color:#000000;&quot;&gt;&lt;span style=&quot;white-space: pre;&quot;&gt;&amp;nbsp;&amp;nbsp;&amp;nbsp;&amp;nbsp;&lt;/span&gt;&lt;span style=&quot;white-space: pre;&quot;&gt;&amp;nbsp;&amp;nbsp;&amp;nbsp;&amp;nbsp;&lt;/span&gt;&lt;span style=&quot;white-space: pre;&quot;&gt;&amp;nbsp;&amp;nbsp;&amp;nbsp;&amp;nbsp;&lt;/span&gt;String &lt;/span&gt;&lt;span style=&quot;color:#6a3e3e;&quot;&gt;cryptedKey&lt;/span&gt;&lt;span style=&quot;color:#000000;&quot;&gt; = &lt;/span&gt;&lt;span style=&quot;color:#0000c0;&quot;&gt;toolsWin&lt;/span&gt;&lt;span style=&quot;color:#000000;&quot;&gt;.byteArray2hexString(&lt;/span&gt;&lt;span style=&quot;color:#6a3e3e;&quot;&gt;result&lt;/span&gt;&lt;span style=&quot;color:#000000;&quot;&gt;).toUpperCase();&lt;/span&gt;&lt;/p&gt;&lt;p style=&quot;margin:0;&quot;&gt;&lt;span style=&quot;color:#000000;&quot;&gt;&lt;span style=&quot;white-space: pre;&quot;&gt;&amp;nbsp;&amp;nbsp;&amp;nbsp;&amp;nbsp;&lt;/span&gt;&lt;span style=&quot;white-space: pre;&quot;&gt;&amp;nbsp;&amp;nbsp;&amp;nbsp;&amp;nbsp;&lt;/span&gt;&lt;span style=&quot;white-space: pre;&quot;&gt;&amp;nbsp;&amp;nbsp;&amp;nbsp;&amp;nbsp;&lt;/span&gt;&lt;/span&gt;&lt;span style=&quot;color:#7f0055;font-weight:bold;&quot;&gt;if&lt;/span&gt;&lt;span style=&quot;color:#000000;&quot;&gt; (&lt;/span&gt;&lt;span style=&quot;color:#0000c0;&quot;&gt;secureObject&lt;/span&gt;&lt;span style=&quot;color:#000000;&quot;&gt; != &lt;/span&gt;&lt;span style=&quot;color:#7f0055;font-weight:bold;&quot;&gt;null&lt;/span&gt;&lt;span style=&quot;color:#000000;&quot;&gt;) {&lt;/span&gt;&lt;/p&gt;&lt;p style=&quot;margin:0;&quot;&gt;&lt;span style=&quot;color:#000000;&quot;&gt;&lt;span style=&quot;white-space: pre;&quot;&gt;&amp;nbsp;&amp;nbsp;&amp;nbsp;&amp;nbsp;&lt;/span&gt;&lt;span style=&quot;white-space: pre;&quot;&gt;&amp;nbsp;&amp;nbsp;&amp;nbsp;&amp;nbsp;&lt;/span&gt;&lt;span style=&quot;white-space: pre;&quot;&gt;&amp;nbsp;&amp;nbsp;&amp;nbsp;&amp;nbsp;&lt;/span&gt;&lt;span style=&quot;white-space: pre;&quot;&gt;&amp;nbsp;&amp;nbsp;&amp;nbsp;&amp;nbsp;&lt;/span&gt;&lt;/span&gt;&lt;span style=&quot;color:#0000c0;&quot;&gt;secureObject&lt;/span&gt;&lt;span style=&quot;color:#000000;&quot;&gt;.setKey(&lt;/span&gt;&lt;span style=&quot;color:#6a3e3e;&quot;&gt;cryptedKey&lt;/span&gt;&lt;span style=&quot;color:#000000;&quot;&gt;);&lt;/span&gt;&lt;/p&gt;&lt;p style=&quot;margin:0;&quot;&gt;&lt;span style=&quot;color:#000000;&quot;&gt;&lt;span style=&quot;white-space: pre;&quot;&gt;&amp;nbsp;&amp;nbsp;&amp;nbsp;&amp;nbsp;&lt;/span&gt;&lt;span style=&quot;white-space: pre;&quot;&gt;&amp;nbsp;&amp;nbsp;&amp;nbsp;&amp;nbsp;&lt;/span&gt;&lt;span style=&quot;white-space: pre;&quot;&gt;&amp;nbsp;&amp;nbsp;&amp;nbsp;&amp;nbsp;&lt;/span&gt;}&lt;/span&gt;&lt;/p&gt;&lt;p style=&quot;margin:0;&quot;&gt;&lt;span style=&quot;color:#000000;&quot;&gt;&lt;span style=&quot;white-space: pre;&quot;&gt;&amp;nbsp;&amp;nbsp;&amp;nbsp;&amp;nbsp;&lt;/span&gt;&lt;span style=&quot;white-space: pre;&quot;&gt;&amp;nbsp;&amp;nbsp;&amp;nbsp;&amp;nbsp;&lt;/span&gt;&lt;span style=&quot;white-space: pre;&quot;&gt;&amp;nbsp;&amp;nbsp;&amp;nbsp;&amp;nbsp;&lt;/span&gt;&lt;/span&gt;&lt;/p&gt;&lt;p style=&quot;margin:0;&quot;&gt;&lt;span style=&quot;color:#000000;&quot;&gt;&lt;span style=&quot;white-space: pre;&quot;&gt;&amp;nbsp;&amp;nbsp;&amp;nbsp;&amp;nbsp;&lt;/span&gt;&lt;span style=&quot;white-space: pre;&quot;&gt;&amp;nbsp;&amp;nbsp;&amp;nbsp;&amp;nbsp;&lt;/span&gt;&lt;span style=&quot;white-space: pre;&quot;&gt;&amp;nbsp;&amp;nbsp;&amp;nbsp;&amp;nbsp;&lt;/span&gt;&lt;/span&gt;&lt;span style=&quot;color:#7f0055;font-weight:bold;&quot;&gt;try&lt;/span&gt;&lt;span style=&quot;color:#000000;&quot;&gt; {&lt;/span&gt;&lt;/p&gt;&lt;p style=&quot;margin:0;&quot;&gt;&lt;span style=&quot;color:#000000;&quot;&gt;&lt;span style=&quot;white-space: pre;&quot;&gt;&amp;nbsp;&amp;nbsp;&amp;nbsp;&amp;nbsp;&lt;/span&gt;&lt;span style=&quot;white-space: pre;&quot;&gt;&amp;nbsp;&amp;nbsp;&amp;nbsp;&amp;nbsp;&lt;/span&gt;&lt;span style=&quot;white-space: pre;&quot;&gt;&amp;nbsp;&amp;nbsp;&amp;nbsp;&amp;nbsp;&lt;/span&gt;&lt;span style=&quot;white-space: pre;&quot;&gt;&amp;nbsp;&amp;nbsp;&amp;nbsp;&amp;nbsp;&lt;/span&gt;&lt;/span&gt;&lt;span style=&quot;color:#7f0055;font-weight:bold;&quot;&gt;boolean&lt;/span&gt;&lt;span style=&quot;color:#000000;&quot;&gt; &lt;/span&gt;&lt;span style=&quot;color:#6a3e3e;&quot;&gt;resultService&lt;/span&gt;&lt;span style=&quot;color:#000000;&quot;&gt; = &lt;/span&gt;&lt;span style=&quot;color:#0000c0;&quot;&gt;keyServiceManager&lt;/span&gt;&lt;span style=&quot;color:#000000;&quot;&gt;.sendSessionKey(&lt;/span&gt;&lt;span style=&quot;color:#0000c0;&quot;&gt;host&lt;/span&gt;&lt;span style=&quot;color:#000000;&quot;&gt;, &lt;/span&gt;&lt;span style=&quot;color:#0000c0;&quot;&gt;port&lt;/span&gt;&lt;span style=&quot;color:#000000;&quot;&gt;, &lt;/span&gt;&lt;span style=&quot;color:#0000c0;&quot;&gt;secureObject&lt;/span&gt;&lt;span style=&quot;color:#000000;&quot;&gt;);&lt;/span&gt;&lt;/p&gt;&lt;p style=&quot;margin:0;&quot;&gt;&lt;span style=&quot;color:#000000;&quot;&gt;&lt;span style=&quot;white-space: pre;&quot;&gt;&amp;nbsp;&amp;nbsp;&amp;nbsp;&amp;nbsp;&lt;/span&gt;&lt;span style=&quot;white-space: pre;&quot;&gt;&amp;nbsp;&amp;nbsp;&amp;nbsp;&amp;nbsp;&lt;/span&gt;&lt;span style=&quot;white-space: pre;&quot;&gt;&amp;nbsp;&amp;nbsp;&amp;nbsp;&amp;nbsp;&lt;/span&gt;&lt;span style=&quot;white-space: pre;&quot;&gt;&amp;nbsp;&amp;nbsp;&amp;nbsp;&amp;nbsp;&lt;/span&gt;&lt;/span&gt;&lt;span style=&quot;color:#7f0055;font-weight:bold;&quot;&gt;if&lt;/span&gt;&lt;span style=&quot;color:#000000;&quot;&gt; (&lt;/span&gt;&lt;span style=&quot;color:#6a3e3e;&quot;&gt;resultService&lt;/span&gt;&lt;span style=&quot;color:#000000;&quot;&gt;) {&lt;/span&gt;&lt;/p&gt;&lt;p style=&quot;margin:0;&quot;&gt;&lt;span style=&quot;color:#000000;&quot;&gt;&lt;span style=&quot;white-space: pre;&quot;&gt;&amp;nbsp;&amp;nbsp;&amp;nbsp;&amp;nbsp;&lt;/span&gt;&lt;span style=&quot;white-space: pre;&quot;&gt;&amp;nbsp;&amp;nbsp;&amp;nbsp;&amp;nbsp;&lt;/span&gt;&lt;span style=&quot;white-space: pre;&quot;&gt;&amp;nbsp;&amp;nbsp;&amp;nbsp;&amp;nbsp;&lt;/span&gt;&lt;span style=&quot;white-space: pre;&quot;&gt;&amp;nbsp;&amp;nbsp;&amp;nbsp;&amp;nbsp;&lt;/span&gt;&lt;span style=&quot;white-space: pre;&quot;&gt;&amp;nbsp;&amp;nbsp;&amp;nbsp;&amp;nbsp;&lt;/span&gt;&lt;/span&gt;&lt;span style=&quot;color:#0000c0;&quot;&gt;secureObject&lt;/span&gt;&lt;span style=&quot;color:#000000;&quot;&gt;.setExponents(&lt;/span&gt;&lt;span style=&quot;color:#2a00ff;&quot;&gt;&quot;&quot;&lt;/span&gt;&lt;span style=&quot;color:#000000;&quot;&gt;);&lt;/span&gt;&lt;/p&gt;&lt;p style=&quot;margin:0;&quot;&gt;&lt;span style=&quot;color:#000000;&quot;&gt;&lt;span style=&quot;white-space: pre;&quot;&gt;&amp;nbsp;&amp;nbsp;&amp;nbsp;&amp;nbsp;&lt;/span&gt;&lt;span style=&quot;white-space: pre;&quot;&gt;&amp;nbsp;&amp;nbsp;&amp;nbsp;&amp;nbsp;&lt;/span&gt;&lt;span style=&quot;white-space: pre;&quot;&gt;&amp;nbsp;&amp;nbsp;&amp;nbsp;&amp;nbsp;&lt;/span&gt;&lt;span style=&quot;white-space: pre;&quot;&gt;&amp;nbsp;&amp;nbsp;&amp;nbsp;&amp;nbsp;&lt;/span&gt;&lt;span style=&quot;white-space: pre;&quot;&gt;&amp;nbsp;&amp;nbsp;&amp;nbsp;&amp;nbsp;&lt;/span&gt;&lt;/span&gt;&lt;span style=&quot;color:#0000c0;&quot;&gt;secureObject&lt;/span&gt;&lt;span style=&quot;color:#000000;&quot;&gt;.setPublicKey(&lt;/span&gt;&lt;span style=&quot;color:#2a00ff;&quot;&gt;&quot;&quot;&lt;/span&gt;&lt;span style=&quot;color:#000000;&quot;&gt;);&lt;/span&gt;&lt;/p&gt;&lt;p style=&quot;margin:0;&quot;&gt;&lt;span style=&quot;color:#000000;&quot;&gt;&lt;span style=&quot;white-space: pre;&quot;&gt;&amp;nbsp;&amp;nbsp;&amp;nbsp;&amp;nbsp;&lt;/span&gt;&lt;span style=&quot;white-space: pre;&quot;&gt;&amp;nbsp;&amp;nbsp;&amp;nbsp;&amp;nbsp;&lt;/span&gt;&lt;span style=&quot;white-space: pre;&quot;&gt;&amp;nbsp;&amp;nbsp;&amp;nbsp;&amp;nbsp;&lt;/span&gt;&lt;span style=&quot;white-space: pre;&quot;&gt;&amp;nbsp;&amp;nbsp;&amp;nbsp;&amp;nbsp;&lt;/span&gt;&lt;span style=&quot;white-space: pre;&quot;&gt;&amp;nbsp;&amp;nbsp;&amp;nbsp;&amp;nbsp;&lt;/span&gt;&lt;/span&gt;&lt;span style=&quot;color:#0000c0;&quot;&gt;secureObject&lt;/span&gt;&lt;span style=&quot;color:#000000;&quot;&gt;.setKey(&lt;/span&gt;&lt;span style=&quot;color:#2a00ff;&quot;&gt;&quot;&quot;&lt;/span&gt;&lt;span style=&quot;color:#000000;&quot;&gt;);&lt;/span&gt;&lt;/p&gt;&lt;p style=&quot;margin:0;&quot;&gt;&lt;span style=&quot;color:#000000;&quot;&gt;&lt;span style=&quot;white-space: pre;&quot;&gt;&amp;nbsp;&amp;nbsp;&amp;nbsp;&amp;nbsp;&lt;/span&gt;&lt;span style=&quot;white-space: pre;&quot;&gt;&amp;nbsp;&amp;nbsp;&amp;nbsp;&amp;nbsp;&lt;/span&gt;&lt;span style=&quot;white-space: pre;&quot;&gt;&amp;nbsp;&amp;nbsp;&amp;nbsp;&amp;nbsp;&lt;/span&gt;&lt;span style=&quot;white-space: pre;&quot;&gt;&amp;nbsp;&amp;nbsp;&amp;nbsp;&amp;nbsp;&lt;/span&gt;} &lt;/span&gt;&lt;span style=&quot;color:#7f0055;font-weight:bold;&quot;&gt;else&lt;/span&gt;&lt;span style=&quot;color:#000000;&quot;&gt; {&lt;/span&gt;&lt;/p&gt;&lt;p style=&quot;margin:0;&quot;&gt;&lt;span style=&quot;color:#000000;&quot;&gt;&lt;span style=&quot;white-space: pre;&quot;&gt;&amp;nbsp;&amp;nbsp;&amp;nbsp;&amp;nbsp;&lt;/span&gt;&lt;span style=&quot;white-space: pre;&quot;&gt;&amp;nbsp;&amp;nbsp;&amp;nbsp;&amp;nbsp;&lt;/span&gt;&lt;span style=&quot;white-space: pre;&quot;&gt;&amp;nbsp;&amp;nbsp;&amp;nbsp;&amp;nbsp;&lt;/span&gt;&lt;span style=&quot;white-space: pre;&quot;&gt;&amp;nbsp;&amp;nbsp;&amp;nbsp;&amp;nbsp;&lt;/span&gt;&lt;span style=&quot;white-space: pre;&quot;&gt;&amp;nbsp;&amp;nbsp;&amp;nbsp;&amp;nbsp;&lt;/span&gt;&lt;/span&gt;&lt;span style=&quot;color:#7f0055;font-weight:bold;&quot;&gt;throw&lt;/span&gt;&lt;span style=&quot;color:#000000;&quot;&gt; &lt;/span&gt;&lt;span style=&quot;color:#7f0055;font-weight:bold;&quot;&gt;new&lt;/span&gt;&lt;span style=&quot;color:#000000;&quot;&gt; Exception(&lt;/span&gt;&lt;span style=&quot;color:#2a00ff;&quot;&gt;&quot;Error while exchanging the session key !&quot;&lt;/span&gt;&lt;span style=&quot;color:#000000;&quot;&gt;);&lt;/span&gt;&lt;/p&gt;&lt;p style=&quot;margin:0;&quot;&gt;&lt;span style=&quot;color:#000000;&quot;&gt;&lt;span style=&quot;white-space: pre;&quot;&gt;&amp;nbsp;&amp;nbsp;&amp;nbsp;&amp;nbsp;&lt;/span&gt;&lt;span style=&quot;white-space: pre;&quot;&gt;&amp;nbsp;&amp;nbsp;&amp;nbsp;&amp;nbsp;&lt;/span&gt;&lt;span style=&quot;white-space: pre;&quot;&gt;&amp;nbsp;&amp;nbsp;&amp;nbsp;&amp;nbsp;&lt;/span&gt;&lt;span style=&quot;white-space: pre;&quot;&gt;&amp;nbsp;&amp;nbsp;&amp;nbsp;&amp;nbsp;&lt;/span&gt;}&lt;/span&gt;&lt;/p&gt;&lt;p style=&quot;margin:0;&quot;&gt;&lt;span style=&quot;color:#000000;&quot;&gt;&lt;span style=&quot;white-space: pre;&quot;&gt;&amp;nbsp;&amp;nbsp;&amp;nbsp;&amp;nbsp;&lt;/span&gt;&lt;span style=&quot;white-space: pre;&quot;&gt;&amp;nbsp;&amp;nbsp;&amp;nbsp;&amp;nbsp;&lt;/span&gt;&lt;span style=&quot;white-space: pre;&quot;&gt;&amp;nbsp;&amp;nbsp;&amp;nbsp;&amp;nbsp;&lt;/span&gt;} &lt;/span&gt;&lt;span style=&quot;color:#7f0055;font-weight:bold;&quot;&gt;catch&lt;/span&gt;&lt;span style=&quot;color:#000000;&quot;&gt; (ClientProtocolException &lt;/span&gt;&lt;span style=&quot;color:#6a3e3e;&quot;&gt;e&lt;/span&gt;&lt;span style=&quot;color:#000000;&quot;&gt;) {&lt;/span&gt;&lt;/p&gt;&lt;p style=&quot;margin:0;&quot;&gt;&lt;span style=&quot;color:#000000;&quot;&gt;&lt;span style=&quot;white-space: pre;&quot;&gt;&amp;nbsp;&amp;nbsp;&amp;nbsp;&amp;nbsp;&lt;/span&gt;&lt;span style=&quot;white-space: pre;&quot;&gt;&amp;nbsp;&amp;nbsp;&amp;nbsp;&amp;nbsp;&lt;/span&gt;&lt;span style=&quot;white-space: pre;&quot;&gt;&amp;nbsp;&amp;nbsp;&amp;nbsp;&amp;nbsp;&lt;/span&gt;&lt;span style=&quot;white-space: pre;&quot;&gt;&amp;nbsp;&amp;nbsp;&amp;nbsp;&amp;nbsp;&lt;/span&gt;&lt;/span&gt;&lt;span style=&quot;color:#0000c0;font-style:italic;font-weight:bold;&quot;&gt;LOG&lt;/span&gt;&lt;span style=&quot;color:#000000;&quot;&gt;.error(&lt;/span&gt;&lt;span style=&quot;color:#2a00ff;&quot;&gt;&quot;Exception ClientProtocolException while sendKeyToServer &quot;&lt;/span&gt;&lt;span style=&quot;color:#000000;&quot;&gt;, &lt;/span&gt;&lt;span style=&quot;color:#6a3e3e;&quot;&gt;e&lt;/span&gt;&lt;span style=&quot;color:#000000;&quot;&gt;);&lt;/span&gt;&lt;/p&gt;&lt;p style=&quot;margin:0;&quot;&gt;&lt;span style=&quot;color:#000000;&quot;&gt;&lt;span style=&quot;white-space: pre;&quot;&gt;&amp;nbsp;&amp;nbsp;&amp;nbsp;&amp;nbsp;&lt;/span&gt;&lt;span style=&quot;white-space: pre;&quot;&gt;&amp;nbsp;&amp;nbsp;&amp;nbsp;&amp;nbsp;&lt;/span&gt;&lt;span style=&quot;white-space: pre;&quot;&gt;&amp;nbsp;&amp;nbsp;&amp;nbsp;&amp;nbsp;&lt;/span&gt;&lt;span style=&quot;white-space: pre;&quot;&gt;&amp;nbsp;&amp;nbsp;&amp;nbsp;&amp;nbsp;&lt;/span&gt;showError(&lt;/span&gt;&lt;span style=&quot;color:#6a3e3e;&quot;&gt;e&lt;/span&gt;&lt;span style=&quot;color:#000000;&quot;&gt;.getMessage());&lt;/span&gt;&lt;/p&gt;&lt;p style=&quot;margin:0;&quot;&gt;&lt;span style=&quot;color:#000000;&quot;&gt;&lt;span style=&quot;white-space: pre;&quot;&gt;&amp;nbsp;&amp;nbsp;&amp;nbsp;&amp;nbsp;&lt;/span&gt;&lt;span style=&quot;white-space: pre;&quot;&gt;&amp;nbsp;&amp;nbsp;&amp;nbsp;&amp;nbsp;&lt;/span&gt;&lt;span style=&quot;white-space: pre;&quot;&gt;&amp;nbsp;&amp;nbsp;&amp;nbsp;&amp;nbsp;&lt;/span&gt;&lt;span style=&quot;white-space: pre;&quot;&gt;&amp;nbsp;&amp;nbsp;&amp;nbsp;&amp;nbsp;&lt;/span&gt;System.&lt;/span&gt;&lt;span style=&quot;color:#000000;font-style:italic;&quot;&gt;exit&lt;/span&gt;&lt;span style=&quot;color:#000000;&quot;&gt;(0);&lt;/span&gt;&lt;/p&gt;&lt;p style=&quot;margin:0;&quot;&gt;&lt;span style=&quot;color:#000000;&quot;&gt;&lt;span style=&quot;white-space: pre;&quot;&gt;&amp;nbsp;&amp;nbsp;&amp;nbsp;&amp;nbsp;&lt;/span&gt;&lt;span style=&quot;white-space: pre;&quot;&gt;&amp;nbsp;&amp;nbsp;&amp;nbsp;&amp;nbsp;&lt;/span&gt;&lt;span style=&quot;white-space: pre;&quot;&gt;&amp;nbsp;&amp;nbsp;&amp;nbsp;&amp;nbsp;&lt;/span&gt;} &lt;/span&gt;&lt;span style=&quot;color:#7f0055;font-weight:bold;&quot;&gt;catch&lt;/span&gt;&lt;span style=&quot;color:#000000;&quot;&gt; (IOException &lt;/span&gt;&lt;span style=&quot;color:#6a3e3e;&quot;&gt;e&lt;/span&gt;&lt;span style=&quot;color:#000000;&quot;&gt;) {&lt;/span&gt;&lt;/p&gt;&lt;p style=&quot;margin:0;&quot;&gt;&lt;span style=&quot;color:#000000;&quot;&gt;&lt;span style=&quot;white-space: pre;&quot;&gt;&amp;nbsp;&amp;nbsp;&amp;nbsp;&amp;nbsp;&lt;/span&gt;&lt;span style=&quot;white-space: pre;&quot;&gt;&amp;nbsp;&amp;nbsp;&amp;nbsp;&amp;nbsp;&lt;/span&gt;&lt;span style=&quot;white-space: pre;&quot;&gt;&amp;nbsp;&amp;nbsp;&amp;nbsp;&amp;nbsp;&lt;/span&gt;&lt;span style=&quot;white-space: pre;&quot;&gt;&amp;nbsp;&amp;nbsp;&amp;nbsp;&amp;nbsp;&lt;/span&gt;&lt;/span&gt;&lt;span style=&quot;color:#0000c0;font-style:italic;font-weight:bold;&quot;&gt;LOG&lt;/span&gt;&lt;span style=&quot;color:#000000;&quot;&gt;.error(&lt;/span&gt;&lt;span style=&quot;color:#2a00ff;&quot;&gt;&quot;Exception IOException while sendKeyToServer &quot;&lt;/span&gt;&lt;span style=&quot;color:#000000;&quot;&gt;, &lt;/span&gt;&lt;span style=&quot;color:#6a3e3e;&quot;&gt;e&lt;/span&gt;&lt;span style=&quot;color:#000000;&quot;&gt;);&lt;/span&gt;&lt;/p&gt;&lt;p style=&quot;margin:0;&quot;&gt;&lt;span style=&quot;color:#000000;&quot;&gt;&lt;span style=&quot;white-space: pre;&quot;&gt;&amp;nbsp;&amp;nbsp;&amp;nbsp;&amp;nbsp;&lt;/span&gt;&lt;span style=&quot;white-space: pre;&quot;&gt;&amp;nbsp;&amp;nbsp;&amp;nbsp;&amp;nbsp;&lt;/span&gt;&lt;span style=&quot;white-space: pre;&quot;&gt;&amp;nbsp;&amp;nbsp;&amp;nbsp;&amp;nbsp;&lt;/span&gt;&lt;span style=&quot;white-space: pre;&quot;&gt;&amp;nbsp;&amp;nbsp;&amp;nbsp;&amp;nbsp;&lt;/span&gt;showError(&lt;/span&gt;&lt;span style=&quot;color:#6a3e3e;&quot;&gt;e&lt;/span&gt;&lt;span style=&quot;color:#000000;&quot;&gt;.getMessage());&lt;/span&gt;&lt;/p&gt;&lt;p style=&quot;margin:0;&quot;&gt;&lt;span style=&quot;color:#000000;&quot;&gt;&lt;span style=&quot;white-space: pre;&quot;&gt;&amp;nbsp;&amp;nbsp;&amp;nbsp;&amp;nbsp;&lt;/span&gt;&lt;span style=&quot;white-space: pre;&quot;&gt;&amp;nbsp;&amp;nbsp;&amp;nbsp;&amp;nbsp;&lt;/span&gt;&lt;span style=&quot;white-space: pre;&quot;&gt;&amp;nbsp;&amp;nbsp;&amp;nbsp;&amp;nbsp;&lt;/span&gt;&lt;span style=&quot;white-space: pre;&quot;&gt;&amp;nbsp;&amp;nbsp;&amp;nbsp;&amp;nbsp;&lt;/span&gt;System.&lt;/span&gt;&lt;span style=&quot;color:#000000;font-style:italic;&quot;&gt;exit&lt;/span&gt;&lt;span style=&quot;color:#000000;&quot;&gt;(0);&lt;/span&gt;&lt;/p&gt;&lt;p style=&quot;margin:0;&quot;&gt;&lt;span style=&quot;color:#000000;&quot;&gt;&lt;span style=&quot;white-space: pre;&quot;&gt;&amp;nbsp;&amp;nbsp;&amp;nbsp;&amp;nbsp;&lt;/span&gt;&lt;span style=&quot;white-space: pre;&quot;&gt;&amp;nbsp;&amp;nbsp;&amp;nbsp;&amp;nbsp;&lt;/span&gt;&lt;span style=&quot;white-space: pre;&quot;&gt;&amp;nbsp;&amp;nbsp;&amp;nbsp;&amp;nbsp;&lt;/span&gt;} &lt;/span&gt;&lt;span style=&quot;color:#7f0055;font-weight:bold;&quot;&gt;catch&lt;/span&gt;&lt;span style=&quot;color:#000000;&quot;&gt; (Exception &lt;/span&gt;&lt;span style=&quot;color:#6a3e3e;&quot;&gt;e&lt;/span&gt;&lt;span style=&quot;color:#000000;&quot;&gt;) {&lt;/span&gt;&lt;/p&gt;&lt;p style=&quot;margin:0;&quot;&gt;&lt;span style=&quot;color:#000000;&quot;&gt;&lt;span style=&quot;white-space: pre;&quot;&gt;&amp;nbsp;&amp;nbsp;&amp;nbsp;&amp;nbsp;&lt;/span&gt;&lt;span style=&quot;white-space: pre;&quot;&gt;&amp;nbsp;&amp;nbsp;&amp;nbsp;&amp;nbsp;&lt;/span&gt;&lt;span style=&quot;white-space: pre;&quot;&gt;&amp;nbsp;&amp;nbsp;&amp;nbsp;&amp;nbsp;&lt;/span&gt;&lt;span style=&quot;white-space: pre;&quot;&gt;&amp;nbsp;&amp;nbsp;&amp;nbsp;&amp;nbsp;&lt;/span&gt;&lt;/span&gt;&lt;span style=&quot;color:#0000c0;font-style:italic;font-weight:bold;&quot;&gt;LOG&lt;/span&gt;&lt;span style=&quot;color:#000000;&quot;&gt;.error(&lt;/span&gt;&lt;span style=&quot;color:#2a00ff;&quot;&gt;&quot;Exception Exception while sendKeyToServer &quot;&lt;/span&gt;&lt;span style=&quot;color:#000000;&quot;&gt;, &lt;/span&gt;&lt;span style=&quot;color:#6a3e3e;&quot;&gt;e&lt;/span&gt;&lt;span style=&quot;color:#000000;&quot;&gt;);&lt;/span&gt;&lt;/p&gt;&lt;p style=&quot;margin:0;&quot;&gt;&lt;span style=&quot;color:#000000;&quot;&gt;&lt;span style=&quot;white-space: pre;&quot;&gt;&amp;nbsp;&amp;nbsp;&amp;nbsp;&amp;nbsp;&lt;/span&gt;&lt;span style=&quot;white-space: pre;&quot;&gt;&amp;nbsp;&amp;nbsp;&amp;nbsp;&amp;nbsp;&lt;/span&gt;&lt;span style=&quot;white-space: pre;&quot;&gt;&amp;nbsp;&amp;nbsp;&amp;nbsp;&amp;nbsp;&lt;/span&gt;&lt;span style=&quot;white-space: pre;&quot;&gt;&amp;nbsp;&amp;nbsp;&amp;nbsp;&amp;nbsp;&lt;/span&gt;showError(&lt;/span&gt;&lt;span style=&quot;color:#6a3e3e;&quot;&gt;e&lt;/span&gt;&lt;span style=&quot;color:#000000;&quot;&gt;.getMessage());&lt;/span&gt;&lt;/p&gt;&lt;p style=&quot;margin:0;&quot;&gt;&lt;span style=&quot;color:#000000;&quot;&gt;&lt;span style=&quot;white-space: pre;&quot;&gt;&amp;nbsp;&amp;nbsp;&amp;nbsp;&amp;nbsp;&lt;/span&gt;&lt;span style=&quot;white-space: pre;&quot;&gt;&amp;nbsp;&amp;nbsp;&amp;nbsp;&amp;nbsp;&lt;/span&gt;&lt;span style=&quot;white-space: pre;&quot;&gt;&amp;nbsp;&amp;nbsp;&amp;nbsp;&amp;nbsp;&lt;/span&gt;&lt;span style=&quot;white-space: pre;&quot;&gt;&amp;nbsp;&amp;nbsp;&amp;nbsp;&amp;nbsp;&lt;/span&gt;System.&lt;/span&gt;&lt;span style=&quot;color:#000000;font-style:italic;&quot;&gt;exit&lt;/span&gt;&lt;span style=&quot;color:#000000;&quot;&gt;(0);&lt;/span&gt;&lt;/p&gt;&lt;p style=&quot;margin:0;&quot;&gt;&lt;span style=&quot;color:#000000;&quot;&gt;&lt;span style=&quot;white-space: pre;&quot;&gt;&amp;nbsp;&amp;nbsp;&amp;nbsp;&amp;nbsp;&lt;/span&gt;&lt;span style=&quot;white-space: pre;&quot;&gt;&amp;nbsp;&amp;nbsp;&amp;nbsp;&amp;nbsp;&lt;/span&gt;&lt;span style=&quot;white-space: pre;&quot;&gt;&amp;nbsp;&amp;nbsp;&amp;nbsp;&amp;nbsp;&lt;/span&gt;}&lt;/span&gt;&lt;/p&gt;&lt;p style=&quot;margin:0;&quot;&gt;&lt;span style=&quot;color:#000000;&quot;&gt;&lt;span style=&quot;white-space: pre;&quot;&gt;&amp;nbsp;&amp;nbsp;&amp;nbsp;&amp;nbsp;&lt;/span&gt;&lt;span style=&quot;white-space: pre;&quot;&gt;&amp;nbsp;&amp;nbsp;&amp;nbsp;&amp;nbsp;&lt;/span&gt;&lt;span style=&quot;white-space: pre;&quot;&gt;&amp;nbsp;&amp;nbsp;&amp;nbsp;&amp;nbsp;&lt;/span&gt;&lt;/span&gt;&lt;/p&gt;&lt;p style=&quot;margin:0;&quot;&gt;&lt;span style=&quot;color:#000000;&quot;&gt;&lt;span style=&quot;white-space: pre;&quot;&gt;&amp;nbsp;&amp;nbsp;&amp;nbsp;&amp;nbsp;&lt;/span&gt;&lt;span style=&quot;white-space: pre;&quot;&gt;&amp;nbsp;&amp;nbsp;&amp;nbsp;&amp;nbsp;&lt;/span&gt;}&lt;/span&gt;&lt;/p&gt;&lt;p style=&quot;margin:0;&quot;&gt;&lt;span style=&quot;color:#000000;&quot;&gt;&lt;span style=&quot;white-space: pre;&quot;&gt;&amp;nbsp;&amp;nbsp;&amp;nbsp;&amp;nbsp;&lt;/span&gt;&lt;span style=&quot;white-space: pre;&quot;&gt;&amp;nbsp;&amp;nbsp;&amp;nbsp;&amp;nbsp;&lt;/span&gt;&lt;/span&gt;&lt;span style=&quot;color:#0000c0;font-style:italic;font-weight:bold;&quot;&gt;LOG&lt;/span&gt;&lt;span style=&quot;color:#000000;&quot;&gt;.info(&lt;/span&gt;&lt;span style=&quot;color:#2a00ff;&quot;&gt;&quot;sendKeyToServer end in &quot;&lt;/span&gt;&lt;span style=&quot;color:#000000;&quot;&gt; + (System.&lt;/span&gt;&lt;span style=&quot;color:#000000;font-style:italic;&quot;&gt;currentTimeMillis&lt;/span&gt;&lt;span style=&quot;color:#000000;&quot;&gt;() - &lt;/span&gt;&lt;span style=&quot;color:#6a3e3e;&quot;&gt;start&lt;/span&gt;&lt;span style=&quot;color:#000000;&quot;&gt;));&lt;/span&gt;&lt;/p&gt;&lt;p style=&quot;margin:0;&quot;&gt;&lt;span style=&quot;color:#000000;&quot;&gt;&lt;span style=&quot;white-space: pre;&quot;&gt;&amp;nbsp;&amp;nbsp;&amp;nbsp;&amp;nbsp;&lt;/span&gt;}&lt;/span&gt;&lt;/p&gt;&lt;/div&gt;&lt;/div&gt;" style="rounded=0;whiteSpace=wrap;html=1;align=left;" vertex="1" parent="1">
          <mxGeometry x="17" y="440" width="810" height="660" as="geometry" />
        </mxCell>
      </root>
    </mxGraphModel>
  </diagram>
</mxfile>
